<svg width="34" height="34" viewBox="0 0 34 34" fill="none" xmlns="http://www.w3.org/2000/svg">
<g clip-path="url(#clip0_3246_15835)">
<path d="M33.3958 6.42929C32.9552 5.90853 32.3383 5.59045 31.6585 5.53367L7.71538 3.53445C7.03552 3.47768 6.37451 3.68905 5.85369 4.12952C5.33499 4.56826 5.01737 5.18205 4.9588 5.85853L4.47709 10.3779H2.55364C1.14557 10.3779 0 11.5234 0 12.9315V27.9195C0 29.3275 1.14557 30.4731 2.55364 30.4731H26.5802C27.9883 30.4731 29.1339 29.3275 29.1339 27.9195V25.4881L29.9865 25.5593C30.0584 25.5653 30.1299 25.5683 30.2008 25.5683C31.5136 25.5683 32.6326 24.5583 32.7438 23.227L33.991 8.29105C34.0477 7.61125 33.8363 6.95011 33.3958 6.42929ZM2.55364 11.706H26.5802C27.2559 11.706 27.8058 12.2558 27.8058 12.9315V14.2972H1.32812V12.9315C1.32812 12.2558 1.8779 11.706 2.55364 11.706ZM1.32812 15.6253H27.8058V18.3804H1.32812V15.6253ZM26.5802 29.145H2.55364C1.8779 29.145 1.32812 28.5952 1.32812 27.9195V19.7086H27.8058V27.9195C27.8058 28.5952 27.2559 29.145 26.5802 29.145ZM32.6674 8.18048L31.4203 23.1165C31.364 23.7899 30.7703 24.2922 30.097 24.2358L29.1339 24.1554V12.9315C29.1339 11.5234 27.9883 10.3779 26.5802 10.3779H5.81278L6.28021 5.99241C6.28074 5.98736 6.28121 5.98238 6.28161 5.97726C6.33785 5.30384 6.93126 4.80155 7.60488 4.85799L31.5481 6.85721C31.8743 6.88444 32.1704 7.0371 32.3818 7.28706C32.5932 7.53701 32.6947 7.85423 32.6674 8.18048Z" fill="#0154A4"/>
<path d="M25.0268 21.6836H18.6358C18.269 21.6836 17.9717 21.9809 17.9717 22.3477V26.5172C17.9717 26.884 18.269 27.1813 18.6358 27.1813H25.0268C25.3936 27.1813 25.6909 26.884 25.6909 26.5172V22.3477C25.6909 21.9809 25.3936 21.6836 25.0268 21.6836ZM24.3628 25.8532H19.2998V23.0117H24.3628V25.8532Z" fill="#0154A4"/>
</g>
<defs>
<clipPath id="clip0_3246_15835">
<rect width="34" height="34" fill="white"/>
</clipPath>
</defs>
</svg>
