<svg width="32" height="32" viewBox="0 0 32 32" fill="none" xmlns="http://www.w3.org/2000/svg">
<g clip-path="url(#clip0_1602_11157)">
<path d="M31.4313 6.05144C31.0167 5.56132 30.4361 5.26194 29.7963 5.20851L7.26153 3.32689C6.62166 3.27345 5.99954 3.47239 5.50935 3.88695C5.02117 4.29989 4.72223 4.87757 4.66711 5.51426L4.21373 9.76774H2.40343C1.07818 9.76774 0 10.8459 0 12.1712V26.2775C0 27.6027 1.07818 28.6809 2.40343 28.6809H25.0167C26.342 28.6809 27.4201 27.6027 27.4201 26.2775V23.9892L28.2226 24.0562C28.2903 24.0618 28.3576 24.0646 28.4243 24.0646C29.6598 24.0646 30.7131 23.1141 30.8177 21.8611L31.9915 7.80368C32.0449 7.16387 31.8459 6.54163 31.4313 6.05144ZM2.40343 11.0177H25.0167C25.6526 11.0177 26.1701 11.5352 26.1701 12.1712V13.4565H1.25V12.1712C1.25 11.5352 1.76743 11.0177 2.40343 11.0177ZM1.25 14.7065H26.1701V17.2996H1.25V14.7065ZM25.0167 27.4309H2.40343C1.76743 27.4309 1.25 26.9135 1.25 26.2775V18.5496H26.1701V26.2775C26.1701 26.9135 25.6526 27.4309 25.0167 27.4309ZM30.7458 7.69962L29.572 21.757C29.5191 22.3908 28.9603 22.8636 28.3266 22.8105L27.4201 22.7348V12.1712C27.4201 10.8459 26.342 9.76774 25.0167 9.76774H5.47085L5.91079 5.64026C5.91129 5.63551 5.91173 5.63082 5.9121 5.62601C5.96504 4.9922 6.52354 4.51945 7.15753 4.57257L29.6923 6.45419C29.9994 6.47981 30.2781 6.6235 30.477 6.85875C30.6759 7.094 30.7714 7.39256 30.7458 7.69962Z" fill="#0154A4"/>
<path d="M23.5547 20.4082H17.5396C17.1944 20.4082 16.9146 20.688 16.9146 21.0332V24.9575C16.9146 25.3027 17.1944 25.5825 17.5396 25.5825H23.5547C23.8999 25.5825 24.1797 25.3027 24.1797 24.9575V21.0332C24.1797 20.688 23.8999 20.4082 23.5547 20.4082ZM22.9297 24.3325H18.1646V21.6582H22.9297V24.3325Z" fill="#0154A4"/>
</g>
<defs>
<clipPath id="clip0_1602_11157">
<rect width="32" height="32" fill="white"/>
</clipPath>
</defs>
</svg>
