<svg width="20" height="20" viewBox="0 0 20 20" fill="none" xmlns="http://www.w3.org/2000/svg">
<path d="M12.8743 3.15058C12.841 3.35891 12.8243 3.56724 12.8243 3.77558C12.8243 5.65058 14.341 7.16641 16.2077 7.16641C16.416 7.16641 16.616 7.14224 16.8244 7.10891V13.8331C16.8244 16.6589 15.1577 18.3339 12.3243 18.3339H6.16685C3.33268 18.3339 1.66602 16.6589 1.66602 13.8331V7.66724C1.66602 4.83391 3.33268 3.15058 6.16685 3.15058H12.8743ZM13.0418 8.21724C12.816 8.19224 12.5918 8.29224 12.4577 8.47557L10.4418 11.0839L8.13268 9.26724C7.99102 9.15891 7.82435 9.11641 7.65768 9.13391C7.49185 9.15891 7.34185 9.24974 7.24102 9.38308L4.77518 12.5922L4.72435 12.6672C4.58268 12.9331 4.64935 13.2747 4.89935 13.4589C5.01602 13.5339 5.14102 13.5839 5.28268 13.5839C5.47518 13.5922 5.65768 13.4914 5.77435 13.3339L7.86602 10.6414L10.241 12.4256L10.316 12.4747C10.5827 12.6164 10.916 12.5506 11.1077 12.2997L13.516 9.19224L13.4827 9.20891C13.616 9.02558 13.641 8.79224 13.5493 8.58391C13.4585 8.37558 13.2577 8.23391 13.0418 8.21724ZM16.3244 1.66699C17.4328 1.66699 18.3328 2.56699 18.3328 3.67533C18.3328 4.78366 17.4328 5.68366 16.3244 5.68366C15.2161 5.68366 14.3161 4.78366 14.3161 3.67533C14.3161 2.56699 15.2161 1.66699 16.3244 1.66699Z" fill="#0154A4"/>
</svg>
