<svg width="20" height="20" viewBox="0 0 20 20" fill="none" xmlns="http://www.w3.org/2000/svg">
<path fill-rule="evenodd" clip-rule="evenodd" d="M12.4145 2.36874C12.7595 2.36874 13.0395 2.64874 13.0395 2.99374C13.0395 3.33874 12.7595 3.61874 12.4145 3.61874H6.35783C4.26783 3.61874 2.91699 5.05541 2.91699 7.28041V14.0154C2.91699 16.2696 4.23533 17.6696 6.35783 17.6696H13.5278C15.6178 17.6696 16.9687 16.2354 16.9687 14.0154V8.14958C16.9687 7.80458 17.2487 7.52458 17.5937 7.52458C17.9387 7.52458 18.2187 7.80458 18.2187 8.14958V14.0154C18.2187 16.9487 16.3337 18.9196 13.5278 18.9196H6.35783C3.55199 18.9196 1.66699 16.9487 1.66699 14.0154V7.28041C1.66699 4.34291 3.55199 2.36874 6.35783 2.36874H12.4145ZM14.1773 8.06024C14.4507 8.27191 14.5007 8.66441 14.289 8.93691L11.8473 12.0869C11.7457 12.2186 11.5957 12.3044 11.4307 12.3244C11.264 12.3469 11.099 12.2986 10.9673 12.1961L8.61899 10.3511L6.50983 13.0919C6.38649 13.2519 6.20149 13.3361 6.01399 13.3361C5.88066 13.3361 5.74649 13.2936 5.63316 13.2069C5.35983 12.9961 5.30816 12.6036 5.51899 12.3302L8.01316 9.08858C8.11483 8.95608 8.26566 8.87024 8.43066 8.84941C8.59899 8.82774 8.76399 8.87441 8.89483 8.97858L11.2448 10.8244L13.3007 8.17191C13.5123 7.89774 13.904 7.84691 14.1773 8.06024ZM16.6398 1.66699C17.8682 1.66699 18.8665 2.66533 18.8665 3.89366C18.8665 5.12199 17.8682 6.12116 16.6398 6.12116C15.4123 6.12116 14.4132 5.12199 14.4132 3.89366C14.4132 2.66533 15.4123 1.66699 16.6398 1.66699ZM16.6398 2.91699C16.1015 2.91699 15.6632 3.35449 15.6632 3.89366C15.6632 4.43199 16.1015 4.87116 16.6398 4.87116C17.1782 4.87116 17.6165 4.43199 17.6165 3.89366C17.6165 3.35449 17.1782 2.91699 16.6398 2.91699Z" fill="#4E4E4E"/>
</svg>
