<svg width="22" height="22" viewBox="0 0 22 22" fill="none" xmlns="http://www.w3.org/2000/svg">
<path fill-rule="evenodd" clip-rule="evenodd" d="M13.6556 2.60493C14.0351 2.60493 14.3431 2.91293 14.3431 3.29243C14.3431 3.67193 14.0351 3.97993 13.6556 3.97993H6.99323C4.69423 3.97993 3.20831 5.56027 3.20831 8.00777V15.4163C3.20831 17.8958 4.65848 19.4359 6.99323 19.4359H14.8802C17.1792 19.4359 18.6651 17.8583 18.6651 15.4163V8.96385C18.6651 8.58435 18.9731 8.27635 19.3526 8.27635C19.7321 8.27635 20.0401 8.58435 20.0401 8.96385V15.4163C20.0401 18.6429 17.9666 20.8109 14.8802 20.8109H6.99323C3.90681 20.8109 1.83331 18.6429 1.83331 15.4163V8.00777C1.83331 4.77652 3.90681 2.60493 6.99323 2.60493H13.6556ZM15.5947 8.86558C15.8953 9.09842 15.9503 9.53017 15.7175 9.82992L13.0317 13.2949C12.9198 13.4397 12.7548 13.5342 12.5733 13.5562C12.39 13.5809 12.2085 13.5277 12.0637 13.415L9.48051 11.3855L7.16043 14.4004C7.02476 14.5764 6.82126 14.669 6.61501 14.669C6.46835 14.669 6.32076 14.6223 6.1961 14.5269C5.89543 14.295 5.8386 13.8633 6.07051 13.5626L8.8141 9.99675C8.92593 9.851 9.09185 9.75658 9.27335 9.73367C9.45851 9.70983 9.64001 9.76117 9.78393 9.87575L12.3689 11.9062L14.6303 8.98842C14.8632 8.68683 15.294 8.63092 15.5947 8.86558ZM18.3034 1.83301C19.6546 1.83301 20.7528 2.93117 20.7528 4.28234C20.7528 5.63351 19.6546 6.73259 18.3034 6.73259C16.9532 6.73259 15.8541 5.63351 15.8541 4.28234C15.8541 2.93117 16.9532 1.83301 18.3034 1.83301ZM18.3034 3.20801C17.7113 3.20801 17.2291 3.68926 17.2291 4.28234C17.2291 4.87451 17.7113 5.35759 18.3034 5.35759C18.8956 5.35759 19.3778 4.87451 19.3778 4.28234C19.3778 3.68926 18.8956 3.20801 18.3034 3.20801Z" fill="#0154A4"/>
</svg>
