<svg width="34" height="34" viewBox="0 0 34 34" fill="none" xmlns="http://www.w3.org/2000/svg">
<path d="M29.1118 15.2539C29.0537 15.2538 28.9962 15.2428 28.9423 15.2213L25.4779 13.8429C25.3942 13.8097 25.3221 13.7526 25.2706 13.6788C25.2191 13.6049 25.1904 13.5176 25.1881 13.4276C25.1858 13.3375 25.21 13.2488 25.2577 13.1725C25.3054 13.0961 25.3744 13.0354 25.4563 12.998C25.7969 12.8412 26.0645 12.5599 26.2039 12.2118C26.2746 12.0336 26.3096 11.8432 26.3067 11.6515C26.3038 11.4598 26.2631 11.2706 26.1871 11.0946C26.111 10.9186 26.0009 10.7594 25.8633 10.6259C25.7256 10.4925 25.563 10.3875 25.3847 10.317C25.025 10.174 24.6233 10.1794 24.2678 10.3323C23.9122 10.4851 23.6317 10.7727 23.488 11.1321C23.4177 11.3034 23.3818 11.4869 23.3825 11.6721C23.3831 11.8573 23.4202 12.0405 23.4917 12.2114C23.5273 12.2948 23.5375 12.3869 23.5208 12.4761C23.5041 12.5653 23.4615 12.6476 23.3981 12.7125C23.3348 12.7775 23.2536 12.8223 23.1649 12.8412C23.0761 12.8601 22.9838 12.8523 22.8995 12.8188L19.4218 11.4367C19.3657 11.4144 19.3145 11.3813 19.2711 11.3392C19.2278 11.2971 19.1932 11.2469 19.1693 11.1914C19.1454 11.1359 19.1327 11.0763 19.1319 11.0159C19.131 10.9555 19.1421 10.8955 19.1645 10.8394L20.236 8.14469C19.9369 8.14301 19.6408 8.08519 19.363 7.97423C19.0389 7.84409 18.7475 7.6442 18.5094 7.38874C18.2713 7.13328 18.0923 6.82852 17.9853 6.49611C17.8782 6.1637 17.8456 5.81179 17.8899 5.46539C17.9342 5.11898 18.0542 4.78657 18.2414 4.49177C18.4286 4.19697 18.6785 3.947 18.9732 3.75964C19.2679 3.57227 19.6002 3.45209 19.9466 3.40764C20.293 3.36319 20.6449 3.39556 20.9774 3.50244C21.3098 3.60933 21.6147 3.78811 21.8703 4.02609L22.9445 1.32769C22.9668 1.27158 23 1.22042 23.0421 1.17714C23.0842 1.13386 23.1344 1.09931 23.1899 1.07545C23.2454 1.0516 23.305 1.03892 23.3654 1.03813C23.4258 1.03733 23.4857 1.04845 23.5418 1.07085L32.2219 4.52093C32.5575 4.65481 32.8263 4.91628 32.9695 5.24804C33.1126 5.57979 33.1184 5.95476 32.9855 6.29077L29.5396 14.9612C29.506 15.0474 29.4472 15.1214 29.3709 15.1736C29.2946 15.2259 29.2043 15.2538 29.1118 15.2539ZM26.5848 13.2957L28.854 14.1971L32.1305 5.95352C32.1723 5.84397 32.1697 5.72242 32.1233 5.61474C32.0768 5.50705 31.9902 5.42172 31.8819 5.3769L23.6291 2.09452L22.4216 5.13844C22.3883 5.22242 22.331 5.29473 22.2569 5.34632C22.1827 5.39791 22.095 5.4265 22.0047 5.42851C21.9144 5.43052 21.8255 5.40587 21.7491 5.35762C21.6727 5.30938 21.6123 5.2397 21.5753 5.15728C21.4565 4.89701 21.2638 4.67739 21.0212 4.52571C20.7787 4.37403 20.4968 4.29699 20.2108 4.30415C19.9248 4.31131 19.6472 4.40237 19.4125 4.566C19.1778 4.72963 18.9964 4.95862 18.8908 5.22452C18.7852 5.49041 18.76 5.78148 18.8184 6.06155C18.8769 6.34162 19.0163 6.59834 19.2195 6.79981C19.4226 7.00128 19.6805 7.13861 19.961 7.19474C20.2416 7.25086 20.5324 7.22331 20.7974 7.1155C20.8809 7.08115 20.9726 7.07213 21.0611 7.08955C21.1496 7.10698 21.231 7.15008 21.2952 7.21348C21.3594 7.27689 21.4035 7.35779 21.422 7.44609C21.4405 7.53439 21.4326 7.62619 21.3993 7.71004L20.1882 10.7512L22.4634 11.6559C22.465 11.2677 22.5613 10.8858 22.7441 10.5434C22.9269 10.201 23.1906 9.90843 23.5122 9.69113C23.8338 9.47382 24.2036 9.33838 24.5895 9.29657C24.9754 9.25475 25.3656 9.30785 25.7263 9.45122C26.087 9.5946 26.4072 9.82392 26.6591 10.1192C26.911 10.4146 27.0869 10.7669 27.1716 11.1457C27.2562 11.5245 27.2471 11.9183 27.1449 12.2927C27.0427 12.6672 26.8506 13.011 26.5852 13.2943L26.5848 13.2957Z" fill="#0154A4"/>
<path d="M27.5216 19.8808C27.4613 19.8811 27.4015 19.8695 27.3456 19.8467C27.2898 19.8238 27.239 19.7902 27.1961 19.7477C27.1532 19.7052 27.1192 19.6548 27.0958 19.5991C27.0725 19.5435 27.0603 19.4838 27.0601 19.4234C27.0598 19.3631 27.0714 19.3033 27.0942 19.2475C27.1171 19.1916 27.1507 19.1408 27.1932 19.0979C27.2356 19.0551 27.2861 19.021 27.3418 18.9977C27.3974 18.9743 27.4571 18.9622 27.5175 18.9619H27.5216C27.6434 18.9619 27.7603 19.0103 27.8465 19.0965C27.9326 19.1827 27.9811 19.2995 27.9811 19.4214C27.9811 19.5432 27.9326 19.6601 27.8465 19.7463C27.7603 19.8324 27.6434 19.8808 27.5216 19.8808Z" fill="#0154A4"/>
<path d="M22.7567 19.8808C22.6348 19.8814 22.5177 19.8336 22.4311 19.7479C22.3445 19.6622 22.2955 19.5455 22.2949 19.4237C22.2943 19.3018 22.3421 19.1847 22.4279 19.0981C22.5136 19.0115 22.6302 18.9625 22.7521 18.9619H22.7567C22.8785 18.9619 22.9954 19.0103 23.0816 19.0965C23.1677 19.1827 23.2161 19.2995 23.2161 19.4214C23.2161 19.5432 23.1677 19.6601 23.0816 19.7463C22.9954 19.8324 22.8785 19.8808 22.7567 19.8808Z" fill="#0154A4"/>
<path d="M22.7519 19.884C22.6306 19.884 22.5141 19.836 22.428 19.7504C22.3419 19.6648 22.2932 19.5487 22.2925 19.4273C22.292 19.3443 22.3139 19.2628 22.356 19.1913C22.398 19.1198 22.4587 19.061 22.5315 19.0212C22.6043 18.9814 22.6865 18.962 22.7694 18.9652C22.8523 18.9683 22.9328 18.9939 23.0023 19.0391C23.0719 19.0843 23.1279 19.1475 23.1645 19.222C23.201 19.2965 23.2167 19.3794 23.2098 19.4621C23.203 19.5448 23.1739 19.6241 23.1257 19.6916C23.0774 19.7591 23.0118 19.8122 22.9357 19.8454C22.8779 19.871 22.8152 19.8842 22.7519 19.884Z" fill="#0154A4"/>
<path d="M26.3587 32.9618H2.53943C2.11032 32.9619 1.69869 32.7917 1.39488 32.4887C1.09106 32.1857 0.919888 31.7745 0.918915 31.3454V7.52194C0.920618 7.09348 1.09217 6.68318 1.39596 6.38103C1.69975 6.07888 2.11097 5.90955 2.53943 5.91016H14.4445C14.5663 5.91016 14.6832 5.95857 14.7694 6.04473C14.8555 6.1309 14.9039 6.24776 14.9039 6.36962V11.1333C14.9043 11.2239 14.8778 11.3126 14.8279 11.3883C14.7779 11.4639 14.7067 11.5231 14.6233 11.5583C14.5398 11.5936 14.4477 11.6034 14.3587 11.5864C14.2696 11.5695 14.1876 11.5266 14.1229 11.4632C13.7533 11.1057 13.2586 10.907 12.7445 10.9095C12.2171 10.9095 11.7113 11.119 11.3384 11.492C10.9654 11.8649 10.7559 12.3707 10.7559 12.8981C10.7559 13.4255 10.9654 13.9313 11.3384 14.3042C11.7113 14.6771 12.2171 14.8866 12.7445 14.8866C13.2583 14.8897 13.753 14.6919 14.1229 14.3353C14.1876 14.2718 14.2696 14.2289 14.3587 14.212C14.4477 14.1951 14.5398 14.2049 14.6233 14.2401C14.7067 14.2754 14.7779 14.3346 14.8279 14.4102C14.8778 14.4858 14.9043 14.5745 14.9039 14.6652V18.9648H18.3453C18.1371 18.5209 18.0443 18.0317 18.0755 17.5424C18.1068 17.0531 18.261 16.5796 18.524 16.1658C18.7869 15.752 19.1501 15.4113 19.5798 15.1752C20.0095 14.9392 20.4919 14.8154 20.9821 14.8154C21.4724 14.8154 21.9548 14.9392 22.3845 15.1752C22.8142 15.4113 23.1773 15.752 23.4403 16.1658C23.7033 16.5796 23.8575 17.0531 23.8887 17.5424C23.92 18.0317 23.8272 18.5209 23.619 18.9648H27.5111C27.6329 18.9648 27.7498 19.0132 27.8359 19.0994C27.9221 19.1855 27.9705 19.3024 27.9705 19.4242V31.3454C27.9708 31.7733 27.8012 32.1839 27.499 32.487C27.1968 32.79 26.7867 32.9608 26.3587 32.9618ZM2.53943 6.82908C2.3546 6.82822 2.17697 6.90066 2.04546 7.03054C1.91395 7.16041 1.83929 7.33712 1.83783 7.52194V31.3454C1.83868 31.5308 1.91301 31.7083 2.04452 31.8391C2.17602 31.9698 2.35399 32.0431 2.53943 32.0428H26.3587C26.543 32.042 26.7195 31.9681 26.8493 31.8373C26.9792 31.7066 27.052 31.5297 27.0516 31.3454V19.8814H22.7566C22.6666 19.8813 22.5786 19.8548 22.5036 19.8052C22.4286 19.7556 22.3697 19.6851 22.3344 19.6024C22.2991 19.5196 22.2888 19.4283 22.3049 19.3398C22.321 19.2513 22.3627 19.1695 22.4248 19.1045C22.6484 18.869 22.8109 18.5823 22.8981 18.2695C22.9853 17.9567 22.9946 17.6274 22.9251 17.3102C22.8557 16.993 22.7096 16.6976 22.4997 16.4499C22.2898 16.2022 22.0224 16.0096 21.7209 15.8891C21.4195 15.7685 21.093 15.7236 20.7702 15.7583C20.4473 15.793 20.1379 15.9062 19.8689 16.088C19.5999 16.2699 19.3795 16.5148 19.227 16.8015C19.0745 17.0882 18.9945 17.4078 18.9941 17.7325C18.9895 18.2431 19.1878 18.7345 19.5454 19.0989C19.6087 19.1635 19.6515 19.2452 19.6685 19.334C19.6855 19.4227 19.676 19.5145 19.6412 19.5978C19.6063 19.6812 19.5476 19.7524 19.4725 19.8026C19.3974 19.8528 19.3091 19.8797 19.2187 19.88H14.4445C14.3226 19.88 14.2058 19.8316 14.1196 19.7454C14.0334 19.6593 13.985 19.5424 13.985 19.4206V15.5299C13.5419 15.7371 13.0537 15.8292 12.5656 15.7976C12.0775 15.7661 11.6052 15.6119 11.1925 15.3493C10.7798 15.0867 10.44 14.7242 10.2046 14.2954C9.96917 13.8666 9.84575 13.3854 9.84575 12.8962C9.84575 12.4071 9.96917 11.9258 10.2046 11.497C10.44 11.0683 10.7798 10.7058 11.1925 10.4432C11.6052 10.1806 12.0775 10.0264 12.5656 9.99484C13.0537 9.96327 13.5419 10.0554 13.985 10.2626V6.82908H2.53943Z" fill="#0154A4"/>
<path d="M14.4491 24.6523C14.3272 24.6523 14.2104 24.6039 14.1242 24.5177C14.038 24.4315 13.9896 24.3147 13.9896 24.1928V19.4268C13.9893 19.3665 14.0008 19.3067 14.0236 19.2508C14.0464 19.1949 14.08 19.1441 14.1224 19.1012C14.2081 19.0146 14.3247 18.9655 14.4465 18.9649C14.5684 18.9642 14.6855 19.0119 14.7722 19.0976C14.8588 19.1833 14.9079 19.2999 14.9085 19.4218V24.1905C14.9088 24.251 14.8972 24.311 14.8742 24.367C14.8513 24.4231 14.8175 24.474 14.7748 24.5169C14.7321 24.5598 14.6813 24.5938 14.6254 24.6171C14.5695 24.6403 14.5096 24.6523 14.4491 24.6523Z" fill="#0154A4"/>
<path d="M14.4521 32.9429C14.3303 32.9429 14.2134 32.8945 14.1272 32.8083C14.0411 32.7221 13.9927 32.6053 13.9927 32.4834V27.7124C13.9927 27.5905 14.0411 27.4737 14.1272 27.3875C14.2134 27.3013 14.3303 27.2529 14.4521 27.2529C14.574 27.2529 14.6909 27.3013 14.777 27.3875C14.8632 27.4737 14.9116 27.5905 14.9116 27.7124V32.4834C14.9116 32.6053 14.8632 32.7221 14.777 32.8083C14.6909 32.8945 14.574 32.9429 14.4521 32.9429Z" fill="#0154A4"/>
<path d="M14.4493 19.8808H9.69481C9.57295 19.8808 9.45609 19.8324 9.36992 19.7463C9.28376 19.6601 9.23535 19.5432 9.23535 19.4214C9.23535 19.2995 9.28376 19.1827 9.36992 19.0965C9.45609 19.0103 9.57295 18.9619 9.69481 18.9619H14.4493C14.5712 18.9619 14.688 19.0103 14.7742 19.0965C14.8603 19.1827 14.9088 19.2995 14.9088 19.4214C14.9088 19.5432 14.8603 19.6601 14.7742 19.7463C14.688 19.8324 14.5712 19.8808 14.4493 19.8808Z" fill="#0154A4"/>
<path d="M6.16351 19.8838H1.3911C1.26924 19.8838 1.15238 19.8354 1.06621 19.7492C0.980048 19.663 0.931641 19.5462 0.931641 19.4243C0.931641 19.3024 0.980048 19.1856 1.06621 19.0994C1.15238 19.0133 1.26924 18.9648 1.3911 18.9648H6.16351C6.28536 18.9648 6.40223 19.0133 6.48839 19.0994C6.57456 19.1856 6.62296 19.3024 6.62296 19.4243C6.62296 19.5462 6.57456 19.663 6.48839 19.7492C6.40223 19.8354 6.28536 19.8838 6.16351 19.8838Z" fill="#0154A4"/>
<path d="M7.91969 24.0343C7.3486 24.0344 6.79013 23.8663 6.31408 23.5508C5.83803 23.2354 5.46551 22.7866 5.24308 22.2606C5.02065 21.7346 4.95819 21.1547 5.06348 20.5934C5.16878 20.0321 5.43718 19.5143 5.83512 19.1047C5.92037 19.0188 6.0361 18.97 6.15714 18.9689C6.27819 18.9678 6.39478 19.0145 6.48158 19.0988C6.56838 19.1832 6.61837 19.2984 6.6207 19.4195C6.62302 19.5405 6.57748 19.6576 6.49399 19.7452C6.22202 20.0252 6.03859 20.3791 5.9666 20.7628C5.89461 21.1464 5.93726 21.5428 6.08921 21.9023C6.24117 22.2619 6.4957 22.5687 6.821 22.7844C7.14631 23.0001 7.52797 23.1153 7.91831 23.1153C8.44604 23.1153 8.95222 22.906 9.32572 22.5331C9.69923 22.1603 9.90955 21.6545 9.91053 21.1268C9.9142 20.612 9.71439 20.1166 9.35458 19.7484C9.30947 19.706 9.27339 19.655 9.2485 19.5983C9.22361 19.5416 9.21043 19.4805 9.20975 19.4186C9.20906 19.3567 9.2209 19.2953 9.24453 19.2381C9.26817 19.1809 9.30312 19.1291 9.34729 19.0857C9.39146 19.0423 9.44394 19.0083 9.50157 18.9858C9.55921 18.9632 9.62081 18.9525 9.68268 18.9543C9.74456 18.9561 9.80542 18.9704 9.86163 18.9964C9.91784 19.0223 9.96823 19.0593 10.0098 19.1052C10.5391 19.6454 10.8337 20.3728 10.8294 21.1291C10.8275 21.8998 10.5202 22.6383 9.97477 23.1828C9.42938 23.7274 8.69039 24.0335 7.91969 24.0343Z" fill="#0154A4"/>
<path d="M16.1548 28.8674C15.3997 28.8676 14.6744 28.5732 14.1331 28.0468C14.0879 28.0053 14.0514 27.9553 14.0258 27.8995C14.0002 27.8438 13.986 27.7835 13.9841 27.7221C13.9822 27.6608 13.9926 27.5997 14.0147 27.5425C14.0367 27.4853 14.0701 27.433 14.1127 27.3889C14.1552 27.3447 14.2062 27.3095 14.2626 27.2854C14.3191 27.2613 14.3797 27.2487 14.4411 27.2484C14.5024 27.2481 14.5632 27.2601 14.6198 27.2836C14.6765 27.3072 14.7278 27.3419 14.7709 27.3856C15.0509 27.6553 15.4039 27.8369 15.7861 27.908C16.1684 27.979 16.5631 27.9363 16.9213 27.7852C17.2795 27.6341 17.5855 27.3812 17.8014 27.0578C18.0172 26.7345 18.1335 26.3549 18.1357 25.9661C18.138 25.5773 18.0261 25.1964 17.8139 24.8706C17.6018 24.5448 17.2987 24.2884 16.9423 24.1332C16.5858 23.978 16.1916 23.9307 15.8086 23.9974C15.4256 24.064 15.0705 24.2415 14.7874 24.508C14.7246 24.5751 14.643 24.6219 14.5533 24.6421C14.4637 24.6624 14.3699 24.6553 14.2843 24.6218C14.1987 24.5882 14.1252 24.5298 14.0731 24.4539C14.0211 24.3781 13.993 24.2884 13.9925 24.1965V24.1924C13.9926 24.1307 14.0051 24.0696 14.0292 24.0129C14.0534 23.9561 14.0887 23.9048 14.1331 23.862C14.476 23.5317 14.8947 23.2906 15.3525 23.1598C15.8102 23.029 16.2931 23.0125 16.7587 23.1118C17.2243 23.2111 17.6585 23.4232 18.0231 23.7293C18.3877 24.0355 18.6715 24.4265 18.8498 24.8679C19.0281 25.3093 19.0954 25.7878 19.0457 26.2613C18.996 26.7348 18.8309 27.1888 18.5649 27.5837C18.2988 27.9785 17.9399 28.302 17.5197 28.5258C17.0995 28.7496 16.6308 28.8669 16.1548 28.8674Z" fill="#0154A4"/>
</svg>
