<svg width="20" height="20" viewBox="0 0 20 20" fill="none" xmlns="http://www.w3.org/2000/svg">
<path d="M9.7275 6.01825C8.9975 6.01825 7.8675 5.18825 6.6775 5.21825C5.1075 5.23825 3.6675 6.12825 2.8575 7.53825C1.2275 10.3683 2.4375 14.5483 4.0275 16.8483C4.8075 17.9683 5.7275 19.2283 6.9475 19.1883C8.1175 19.1383 8.5575 18.4283 9.9775 18.4283C11.3875 18.4283 11.7875 19.1883 13.0275 19.1583C14.2875 19.1383 15.0875 18.0183 15.8575 16.8883C16.7475 15.5883 17.1175 14.3283 17.1375 14.2583C17.1075 14.2483 14.6875 13.3183 14.6575 10.5183C14.6375 8.17825 16.5675 7.05825 16.6575 7.00825C15.5575 5.39825 13.8675 5.21825 13.2775 5.17825C11.7375 5.05825 10.4475 6.01825 9.7275 6.01825ZM12.3275 3.65825C12.9775 2.87825 13.4075 1.78825 13.2875 0.708252C12.3575 0.748252 11.2375 1.32825 10.5675 2.10825C9.9675 2.79825 9.4475 3.90825 9.5875 4.96825C10.6175 5.04825 11.6775 4.43825 12.3275 3.65825Z" fill="black"/>
</svg>
