<svg width="32" height="32" viewBox="0 0 32 32" fill="none" xmlns="http://www.w3.org/2000/svg">
<g clip-path="url(#clip0_1602_11137)">
<path d="M2.13331 29.3333H14.9333C15.3089 29.3311 15.6771 29.2288 16 29.0368V29.8666C16 31.0449 16.9551 32 18.1333 32H29.8666C31.0449 32 32 31.0449 32 29.8667V16.5333C32 15.3551 31.0449 14.4 29.8667 14.4H18.1333C16.9551 14.4 16 15.3551 16 16.5333V20.8874C15.8497 20.7203 15.6882 20.5634 15.5168 20.4181C14.6554 19.6927 13.5807 19.2682 12.456 19.2091L10.6667 17.8667V17.1963C12.7567 16.378 14.1981 14.4407 14.3814 12.2037C15.3317 11.9661 15.9988 11.1128 16.0001 10.1333V5.33331C16.0004 4.91563 15.9611 4.49881 15.8827 4.0885C15.6042 2.74844 14.4853 1.74606 13.1228 1.61594C12.9181 1.32712 12.6594 1.08063 12.3611 0.890063C11.4784 0.29975 10.1904 0 8.53331 0C5.45494 0 4.328 1.04375 3.94131 1.61706C3.33481 1.68044 2.75881 1.915 2.2805 2.29331C1.71256 2.7435 1.32344 3.38125 1.18294 4.09225C1.10525 4.50137 1.06631 4.91688 1.06669 5.33331V10.1333C1.068 11.1129 1.73506 11.9661 2.68537 12.2037C2.86862 14.4407 4.31006 16.3779 6.40006 17.1963V17.8666L4.61075 19.209C3.48656 19.2681 2.41231 19.6921 1.551 20.417C0.602813 21.1496 0.0335625 22.269 0 23.4667V27.2C0 28.3782 0.955125 29.3333 2.13331 29.3333ZM5.20481 21.2859L5.73387 22.0693C5.75094 22.0944 5.77006 22.1182 5.79094 22.1402C5.97925 22.3441 6.25888 22.4371 6.53175 22.3866L6.92 23.0538L6.62081 26.3242C5.68781 24.8099 5.19731 23.0646 5.20481 21.2859ZM8.53331 20.5131L9.67944 21.736L9.29331 22.4H7.77331L7.38719 21.736L8.53331 20.5131ZM11.8709 21.272V21.3173C11.8826 23.0937 11.3884 24.8368 10.4464 26.3429L10.1456 23.0539L10.5338 22.3867C10.8067 22.4371 11.0863 22.3441 11.2746 22.1403C11.2955 22.1182 11.3146 22.0945 11.3317 22.0694L11.8709 21.272ZM8.48375 28.2554C8.26794 28.2481 8.06588 28.1478 7.92963 27.9802C7.80219 27.8522 7.69281 27.7211 7.57656 27.5914L7.95363 23.4666H9.11306L9.49175 27.6042C9.37762 27.7306 9.26031 27.8571 9.136 27.9819C8.96225 28.1541 8.72838 28.2523 8.48375 28.2554ZM17.0667 16.5333C17.0667 15.9442 17.5443 15.4666 18.1334 15.4666H29.8667C30.4558 15.4666 30.9334 15.9442 30.9334 16.5333V29.8666C30.9334 30.4557 30.4558 30.9333 29.8667 30.9333H18.1333C17.5442 30.9333 17.0666 30.4557 17.0666 29.8666L17.0667 16.5333ZM16 23.4667V27.2C16 27.7891 15.5224 28.2667 14.9333 28.2667H10.3317C12.0194 26.3459 12.9466 23.8743 12.9386 21.3174C12.9386 20.9291 12.9173 20.5947 12.8906 20.3259C13.605 20.4574 14.2734 20.7708 14.8314 21.2358C15.5349 21.7673 15.9635 22.5858 16 23.4667ZM10.6347 21.1963L9.27575 19.7451L10.1824 18.8384L11.5398 19.8565L10.6347 21.1963ZM2.23094 4.29281C2.32244 3.83175 2.5755 3.41856 2.94456 3.1275C3.32006 2.82806 3.78644 2.6655 4.26669 2.66669C4.4875 2.65969 4.68338 2.52313 4.76644 2.31844C4.77175 2.30563 5.31844 1.06669 8.53337 1.06669C10.3302 1.06669 11.2837 1.45281 11.7691 1.77762C11.9866 1.90406 12.1676 2.08469 12.2944 2.30188C12.3669 2.51956 12.5706 2.6665 12.8001 2.66669C13.7786 2.65587 14.6296 3.33519 14.8358 4.29175C14.9009 4.63512 14.9335 4.98387 14.9334 5.33337V7.0315C14.4956 6.86825 14.0075 6.91013 13.6038 7.14563C13.1117 6.03319 12.1609 5.18919 10.9979 4.83256C10.6846 4.74025 10.3472 4.85625 10.1569 5.12162C9.77606 5.62794 9.16563 5.90812 8.53344 5.86669C7.89544 5.90775 7.28031 5.62187 6.90037 5.10775C6.70925 4.85087 6.37794 4.74069 6.07106 4.832C4.90713 5.18869 3.95544 6.03331 3.46306 7.14669C3.05956 6.91088 2.5715 6.86856 2.13344 7.0315V5.33337C2.13319 4.98419 2.16581 4.63581 2.23094 4.29281ZM3.73331 11.7333C3.73331 11.4388 3.4945 11.2 3.2 11.2C2.61088 11.2 2.13331 10.7224 2.13331 10.1333V8.53331C2.13331 8.23875 2.37213 8 2.66663 8C2.96113 8 3.19994 8.23881 3.19994 8.53331C3.19994 8.82788 3.43875 9.06662 3.73325 9.06662C4.02775 9.06662 4.26656 8.82781 4.26656 8.53331C4.26656 6.88 5.67138 6.14025 6.18656 5.92531C6.77744 6.59706 7.63925 6.96725 8.53325 6.93331C9.42812 6.96794 10.291 6.59769 10.8826 5.92531C11.3946 6.13969 12.7999 6.88 12.7999 8.53331C12.7999 8.82788 13.0386 9.06662 13.3332 9.06662C13.6277 9.06662 13.8665 8.82781 13.8665 8.53331C13.8665 8.23881 14.1054 8 14.4 8C14.6946 8 14.9333 8.23881 14.9333 8.53331V10.1333C14.9333 10.7224 14.4557 11.2 13.8666 11.2C13.5721 11.2 13.3333 11.4388 13.3333 11.7333C13.3333 14.3843 11.1843 16.5333 8.53331 16.5333C5.88238 16.5333 3.73331 14.3843 3.73331 11.7333ZM8.53331 17.6C8.89119 17.5994 9.24819 17.566 9.6 17.5002V17.9125L8.53331 18.9792L7.46663 17.9125V17.5002C7.81844 17.566 8.1755 17.5994 8.53331 17.6ZM6.88319 18.8373L7.78988 19.744L6.432 21.1963L5.52531 19.8554L6.88319 18.8373ZM1.06669 23.4667C1.10331 22.5853 1.53237 21.7664 2.23631 21.2347C2.79344 20.77 3.46069 20.4564 4.17394 20.3237C3.877 23.2129 4.80525 26.0942 6.73287 28.2667H2.13331C1.54419 28.2667 1.06662 27.7891 1.06662 27.2L1.06669 23.4667Z" fill="#0154A4"/>
<path d="M11.0933 13.6532C11.2701 13.4176 11.2223 13.0833 10.9866 12.9065C10.751 12.7298 10.4167 12.7775 10.2399 13.0132C9.533 13.9558 8.19581 14.1468 7.25325 13.4399C7.09156 13.3186 6.94787 13.175 6.82656 13.0132C6.64981 12.7776 6.31556 12.7298 6.07987 12.9065C5.84425 13.0833 5.7965 13.4175 5.97319 13.6532C7.03356 15.0671 9.03931 15.3536 10.4532 14.2932C10.6959 14.1113 10.9114 13.8958 11.0933 13.6532Z" fill="#0154A4"/>
<path d="M19.3563 19.5771C19.5645 19.7853 19.9021 19.7853 20.1104 19.5771L21.7104 17.9771C21.915 17.7652 21.9092 17.4276 21.6973 17.223C21.4906 17.0233 21.1629 17.0233 20.9562 17.223L19.7333 18.4459L19.5771 18.2896C19.3652 18.085 19.0276 18.0908 18.8229 18.3027C18.6233 18.5094 18.6233 18.8371 18.8229 19.0438L19.3563 19.5771Z" fill="#0154A4"/>
<path d="M23.4669 19.2004H28.8002C29.0948 19.2004 29.3335 18.9617 29.3335 18.6671C29.3335 18.3725 29.0948 18.1338 28.8002 18.1338H23.4669C23.1723 18.1338 22.9336 18.3725 22.9336 18.6671C22.9336 18.9617 23.1723 19.2004 23.4669 19.2004Z" fill="#0154A4"/>
<path d="M19.3563 22.7773C19.5645 22.9855 19.9021 22.9855 20.1104 22.7773L21.7104 21.1773C21.915 20.9654 21.9092 20.6278 21.6973 20.4232C21.4906 20.2235 21.1629 20.2235 20.9562 20.4232L19.7333 21.6461L19.5771 21.4898C19.3652 21.2852 19.0276 21.291 18.8229 21.5029C18.6233 21.7096 18.6233 22.0373 18.8229 22.244L19.3563 22.7773Z" fill="#0154A4"/>
<path d="M23.4669 22.3996H28.8002C29.0948 22.3996 29.3335 22.1608 29.3335 21.8663C29.3335 21.5718 29.0948 21.333 28.8002 21.333H23.4669C23.1723 21.333 22.9336 21.5718 22.9336 21.8663C22.9335 22.1608 23.1723 22.3996 23.4669 22.3996Z" fill="#0154A4"/>
<path d="M19.3564 25.9775C19.5646 26.1857 19.9022 26.1857 20.1105 25.9775L21.7105 24.3775C21.9151 24.1656 21.9093 23.828 21.6974 23.6234C21.4907 23.4237 21.1631 23.4237 20.9564 23.6234L19.7334 24.8463L19.5772 24.69C19.3653 24.4854 19.0277 24.4912 18.8231 24.7031C18.6234 24.9098 18.6234 25.2375 18.8231 25.4442L19.3564 25.9775Z" fill="#0154A4"/>
<path d="M23.4667 25.5998H28.8C29.0946 25.5998 29.3333 25.361 29.3333 25.0665C29.3333 24.772 29.0946 24.5332 28.8 24.5332H23.4667C23.1721 24.5332 22.9334 24.772 22.9334 25.0665C22.9334 25.3611 23.1721 25.5998 23.4667 25.5998Z" fill="#0154A4"/>
<path d="M19.3564 29.1767C19.5646 29.3849 19.9022 29.3849 20.1105 29.1767L21.7105 27.5767C21.9151 27.3648 21.9093 27.0272 21.6974 26.8226C21.4907 26.6229 21.1631 26.6229 20.9564 26.8226L19.7334 28.0455L19.5772 27.8893C19.3653 27.6846 19.0277 27.6904 18.8231 27.9023C18.6234 28.109 18.6234 28.4367 18.8231 28.6434L19.3564 29.1767Z" fill="#0154A4"/>
<path d="M23.4667 28.8H28.8C29.0946 28.8 29.3333 28.5613 29.3333 28.2667C29.3333 27.9721 29.0946 27.7334 28.8 27.7334H23.4667C23.1721 27.7334 22.9334 27.9721 22.9334 28.2667C22.9334 28.5613 23.1721 28.8 23.4667 28.8Z" fill="#0154A4"/>
</g>
<defs>
<clipPath id="clip0_1602_11137">
<rect width="32" height="32" fill="white"/>
</clipPath>
</defs>
</svg>
