<svg width="20" height="20" viewBox="0 0 20 20" fill="none" xmlns="http://www.w3.org/2000/svg">
<path d="M5.625 2.5V4.375M14.375 2.5V4.375M2.5 15.625V6.25C2.5 5.75272 2.69754 5.27581 3.04917 4.92417C3.40081 4.57254 3.87772 4.375 4.375 4.375H15.625C16.1223 4.375 16.5992 4.57254 16.9508 4.92417C17.3025 5.27581 17.5 5.75272 17.5 6.25V15.625M2.5 15.625C2.5 16.1223 2.69754 16.5992 3.04917 16.9508C3.40081 17.3025 3.87772 17.5 4.375 17.5H15.625C16.1223 17.5 16.5992 17.3025 16.9508 16.9508C17.3025 16.5992 17.5 16.1223 17.5 15.625M2.5 15.625V9.375C2.5 8.87772 2.69754 8.40081 3.04917 8.04917C3.40081 7.69754 3.87772 7.5 4.375 7.5H15.625C16.1223 7.5 16.5992 7.69754 16.9508 8.04917C17.3025 8.40081 17.5 8.87772 17.5 9.375V15.625M10 10.625H10.0067V10.6317H10V10.625ZM10 12.5H10.0067V12.5067H10V12.5ZM10 14.375H10.0067V14.3817H10V14.375ZM8.125 12.5H8.13167V12.5067H8.125V12.5ZM8.125 14.375H8.13167V14.3817H8.125V14.375ZM6.25 12.5H6.25667V12.5067H6.25V12.5ZM6.25 14.375H6.25667V14.3817H6.25V14.375ZM11.875 10.625H11.8817V10.6317H11.875V10.625ZM11.875 12.5H11.8817V12.5067H11.875V12.5ZM11.875 14.375H11.8817V14.3817H11.875V14.375ZM13.75 10.625H13.7567V10.6317H13.75V10.625ZM13.75 12.5H13.7567V12.5067H13.75V12.5Z" stroke="#4E4E4E" stroke-width="1.5" stroke-linecap="round" stroke-linejoin="round"/>
</svg>
