<svg width="32" height="32" viewBox="0 0 32 32" fill="none" xmlns="http://www.w3.org/2000/svg">
<path d="M14.6202 25.9997H4.66683C4.1364 25.9997 3.62769 25.789 3.25262 25.4139C2.87754 25.0388 2.66683 24.5301 2.66683 23.9997V9.99967H24.6668V14.213C24.6668 14.3898 24.7371 14.5594 24.8621 14.6844C24.9871 14.8094 25.1567 14.8797 25.3335 14.8797C25.5103 14.8797 25.6799 14.8094 25.8049 14.6844C25.9299 14.5594 26.0002 14.3898 26.0002 14.213V6.66634C25.9991 5.78261 25.6476 4.93538 25.0227 4.31049C24.3978 3.6856 23.5506 3.33407 22.6668 3.33301H21.3335C21.3335 2.80257 21.1228 2.29387 20.7477 1.91879C20.3726 1.54372 19.8639 1.33301 19.3335 1.33301C18.8031 1.33301 18.2944 1.54372 17.9193 1.91879C17.5442 2.29387 17.3335 2.80257 17.3335 3.33301H10.0002C10.0002 2.80257 9.78945 2.29387 9.41438 1.91879C9.0393 1.54372 8.5306 1.33301 8.00016 1.33301C7.46973 1.33301 6.96102 1.54372 6.58595 1.91879C6.21088 2.29387 6.00016 2.80257 6.00016 3.33301H4.66683C3.7831 3.33407 2.93587 3.6856 2.31098 4.31049C1.68608 4.93538 1.33455 5.78261 1.3335 6.66634V23.9997C1.33455 24.8834 1.68608 25.7306 2.31098 26.3555C2.93587 26.9804 3.7831 27.332 4.66683 27.333H14.6202C14.797 27.333 14.9665 27.2628 15.0916 27.1377C15.2166 27.0127 15.2868 26.8432 15.2868 26.6663C15.2868 26.4895 15.2166 26.32 15.0916 26.1949C14.9665 26.0699 14.797 25.9997 14.6202 25.9997ZM18.6668 3.33301C18.6668 3.1562 18.7371 2.98663 18.8621 2.8616C18.9871 2.73658 19.1567 2.66634 19.3335 2.66634C19.5103 2.66634 19.6799 2.73658 19.8049 2.8616C19.9299 2.98663 20.0002 3.1562 20.0002 3.33301V4.66634C20.0002 4.84315 19.9299 5.01272 19.8049 5.13775C19.6799 5.26277 19.5103 5.33301 19.3335 5.33301C19.1567 5.33301 18.9871 5.26277 18.8621 5.13775C18.7371 5.01272 18.6668 4.84315 18.6668 4.66634V3.33301ZM7.3335 3.33301C7.3335 3.1562 7.40373 2.98663 7.52876 2.8616C7.65378 2.73658 7.82335 2.66634 8.00016 2.66634C8.17697 2.66634 8.34654 2.73658 8.47157 2.8616C8.59659 2.98663 8.66683 3.1562 8.66683 3.33301V4.66634C8.66683 4.84315 8.59659 5.01272 8.47157 5.13775C8.34654 5.26277 8.17697 5.33301 8.00016 5.33301C7.82335 5.33301 7.65378 5.26277 7.52876 5.13775C7.40373 5.01272 7.3335 4.84315 7.3335 4.66634V3.33301ZM2.66683 6.66634C2.66683 6.13591 2.87754 5.6272 3.25262 5.25213C3.62769 4.87705 4.1364 4.66634 4.66683 4.66634H6.00016C6.00016 5.19677 6.21088 5.70548 6.58595 6.08056C6.96102 6.45563 7.46973 6.66634 8.00016 6.66634C8.5306 6.66634 9.0393 6.45563 9.41438 6.08056C9.78945 5.70548 10.0002 5.19677 10.0002 4.66634H17.3335C17.3335 5.19677 17.5442 5.70548 17.9193 6.08056C18.2944 6.45563 18.8031 6.66634 19.3335 6.66634C19.8639 6.66634 20.3726 6.45563 20.7477 6.08056C21.1228 5.70548 21.3335 5.19677 21.3335 4.66634H22.6668C23.1973 4.66634 23.706 4.87705 24.081 5.25213C24.4561 5.6272 24.6668 6.13591 24.6668 6.66634V8.66634H2.66683V6.66634Z" fill="#0154A4"/>
<path d="M9.33333 13.3333C9.33333 12.9797 9.19286 12.6406 8.94281 12.3905C8.69276 12.1405 8.35362 12 8 12H6C5.64638 12 5.30724 12.1405 5.05719 12.3905C4.80714 12.6406 4.66667 12.9797 4.66667 13.3333V15.3333C4.66667 15.687 4.80714 16.0261 5.05719 16.2761C5.30724 16.5262 5.64638 16.6667 6 16.6667H8C8.35362 16.6667 8.69276 16.5262 8.94281 16.2761C9.19286 16.0261 9.33333 15.687 9.33333 15.3333V13.3333ZM6 15.3333V13.3333H8V15.3333H6Z" fill="#0154A4"/>
<path d="M16 13.3333C16 12.9797 15.8595 12.6406 15.6095 12.3905C15.3594 12.1405 15.0203 12 14.6667 12H12.6667C12.313 12 11.9739 12.1405 11.7239 12.3905C11.4738 12.6406 11.3333 12.9797 11.3333 13.3333V15.3333C11.3333 15.687 11.4738 16.0261 11.7239 16.2761C11.9739 16.5262 12.313 16.6667 12.6667 16.6667H14.6667C15.0203 16.6667 15.3594 16.5262 15.6095 16.2761C15.8595 16.0261 16 15.687 16 15.3333V13.3333ZM12.6667 15.3333V13.3333H14.6667V15.3333H12.6667Z" fill="#0154A4"/>
<path d="M22 14.76C22.1768 14.76 22.3464 14.6898 22.4714 14.5647C22.5964 14.4397 22.6667 14.2701 22.6667 14.0933V13.3333C22.6667 12.9797 22.5262 12.6406 22.2761 12.3905C22.0261 12.1405 21.687 12 21.3333 12H19.3333C18.9797 12 18.6406 12.1405 18.3905 12.3905C18.1405 12.6406 18 12.9797 18 13.3333V15.2533C18 15.4301 18.0702 15.5997 18.1953 15.7247C18.3203 15.8498 18.4899 15.92 18.6667 15.92C18.8435 15.92 19.013 15.8498 19.1381 15.7247C19.2631 15.5997 19.3333 15.4301 19.3333 15.2533V13.3333H21.3333V14.0933C21.3333 14.2701 21.4036 14.4397 21.5286 14.5647C21.6536 14.6898 21.8232 14.76 22 14.76Z" fill="#0154A4"/>
<path d="M7.99984 18.667H5.99984C5.64622 18.667 5.30708 18.8075 5.05703 19.0575C4.80698 19.3076 4.6665 19.6467 4.6665 20.0003V22.0003C4.6665 22.3539 4.80698 22.6931 5.05703 22.9431C5.30708 23.1932 5.64622 23.3337 5.99984 23.3337H7.99984C8.35346 23.3337 8.6926 23.1932 8.94265 22.9431C9.19269 22.6931 9.33317 22.3539 9.33317 22.0003V20.0003C9.33317 19.6467 9.19269 19.3076 8.94265 19.0575C8.6926 18.8075 8.35346 18.667 7.99984 18.667ZM5.99984 22.0003V20.0003H7.99984V22.0003H5.99984Z" fill="#0154A4"/>
<path d="M15.1268 18.7543C14.9805 18.6962 14.8243 18.6666 14.6668 18.667H12.6668C12.3132 18.667 11.9741 18.8075 11.724 19.0575C11.474 19.3076 11.3335 19.6467 11.3335 20.0003V22.0003C11.3335 22.354 11.474 22.6931 11.724 22.9431C11.9741 23.1932 12.3132 23.3337 12.6668 23.3337H14.0268C14.2036 23.3337 14.3732 23.2634 14.4982 23.1384C14.6233 23.0134 14.6935 22.8438 14.6935 22.667C14.6935 22.4902 14.6233 22.3206 14.4982 22.1956C14.3732 22.0706 14.2036 22.0003 14.0268 22.0003H12.6668V20.0003L14.6335 19.993C14.7974 20.0568 14.98 20.0533 15.1413 19.9831C15.3026 19.913 15.4297 19.7819 15.4948 19.6184C15.5599 19.455 15.5577 19.2725 15.4888 19.1106C15.4199 18.9487 15.2898 18.8207 15.1268 18.7543Z" fill="#0154A4"/>
<path d="M23.3333 16C21.8829 16 20.4651 16.4301 19.2591 17.2359C18.0532 18.0417 17.1133 19.187 16.5582 20.527C16.0032 21.867 15.8579 23.3415 16.1409 24.764C16.4239 26.1865 17.1223 27.4932 18.1479 28.5188C19.1735 29.5444 20.4801 30.2428 21.9027 30.5258C23.3252 30.8087 24.7997 30.6635 26.1397 30.1084C27.4797 29.5534 28.625 28.6135 29.4308 27.4075C30.2366 26.2016 30.6667 24.7837 30.6667 23.3333C30.6644 21.3891 29.891 19.5252 28.5162 18.1504C27.1415 16.7756 25.2775 16.0023 23.3333 16ZM23.3333 29.3333C22.1466 29.3333 20.9866 28.9814 19.9999 28.3222C19.0132 27.6629 18.2442 26.7258 17.7901 25.6294C17.3359 24.5331 17.2171 23.3267 17.4486 22.1628C17.6801 20.9989 18.2516 19.9298 19.0907 19.0907C19.9298 18.2516 20.9989 17.6801 22.1628 17.4486C23.3267 17.2171 24.5331 17.3359 25.6294 17.7901C26.7258 18.2442 27.6629 19.0132 28.3221 19.9999C28.9814 20.9866 29.3333 22.1466 29.3333 23.3333C29.3316 24.9241 28.6989 26.4492 27.574 27.574C26.4492 28.6989 24.9241 29.3316 23.3333 29.3333Z" fill="#0154A4"/>
<path d="M23.9998 23.057V19.9997C23.9998 19.8229 23.9296 19.6533 23.8046 19.5283C23.6796 19.4032 23.51 19.333 23.3332 19.333C23.1564 19.333 22.9868 19.4032 22.8618 19.5283C22.7367 19.6533 22.6665 19.8229 22.6665 19.9997V23.333C22.6665 23.5098 22.7368 23.6793 22.8618 23.8043L24.1952 25.1377C24.3209 25.2591 24.4893 25.3263 24.6641 25.3248C24.8389 25.3233 25.0061 25.2532 25.1297 25.1296C25.2533 25.0059 25.3234 24.8387 25.325 24.6639C25.3265 24.4891 25.2593 24.3207 25.1378 24.195L23.9998 23.057Z" fill="#0154A4"/>
</svg>
