<svg width="19" height="17" viewBox="0 0 19 17" fill="none" xmlns="http://www.w3.org/2000/svg">
<path d="M11.615 0C12.488 0.00899001 13.199 0.458491 13.613 1.26759C13.7199 1.4811 13.8689 1.79295 14.025 2.12191L14.2135 2.51968L14.306 2.71498L14.396 2.91276C14.432 2.97569 14.495 3.02064 14.576 3.02064C16.736 3.02064 18.5 4.78269 18.5 6.94029V12.2804C18.5 14.438 16.736 16.2 14.576 16.2H4.424C2.255 16.2 0.5 14.438 0.5 12.2804V6.94029C0.5 4.78269 2.255 3.02064 4.424 3.02064C4.496 3.02064 4.568 2.98468 4.595 2.91276L4.649 2.80488C4.901 2.27447 5.207 1.62719 5.387 1.26759C5.801 0.458491 6.503 0.00899001 7.376 0H11.615ZM9.5 5.7626C8.555 5.7626 7.664 6.13119 6.989 6.80544C6.323 7.47969 5.954 8.36071 5.963 9.29567C5.963 10.2396 6.332 11.1206 6.998 11.7949C7.673 12.4602 8.555 12.8287 9.5 12.8287C10.472 12.8287 11.354 12.4332 11.993 11.7949C12.632 11.1566 13.028 10.2756 13.037 9.29567C13.037 8.36071 12.668 7.4707 12.002 6.79645C11.336 6.13119 10.445 5.7626 9.5 5.7626ZM9.5 7.1111C10.085 7.1111 10.634 7.33585 11.048 7.74939C11.462 8.16293 11.687 8.71132 11.687 9.29567C11.678 10.5003 10.706 11.4802 9.5 11.4802C8.915 11.4802 8.366 11.2555 7.952 10.842C7.538 10.4284 7.313 9.88002 7.313 9.29567V9.28668C7.304 8.72031 7.529 8.17192 7.943 7.75838C8.366 7.33585 8.915 7.1111 9.5 7.1111ZM14.549 5.54684C14.099 5.54684 13.739 5.91543 13.739 6.36493C13.739 6.81443 14.099 7.17403 14.549 7.17403C14.999 7.17403 15.368 6.81443 15.368 6.36493C15.368 5.91543 14.999 5.54684 14.549 5.54684Z" fill="#0154A4"/>
</svg>
