<svg width="16" height="16" viewBox="0 0 16 16" fill="none" xmlns="http://www.w3.org/2000/svg">
<path d="M10.8935 1.33203C13.1535 1.33203 14.6668 2.9187 14.6668 5.2787V10.726C14.6668 13.0787 13.1535 14.6654 10.8935 14.6654H5.1135C2.8535 14.6654 1.3335 13.0787 1.3335 10.726V5.2787C1.3335 2.9187 2.8535 1.33203 5.1135 1.33203H10.8935ZM10.7868 5.9987C10.5602 5.77203 10.1868 5.77203 9.96016 5.9987L7.20683 8.75203L6.04016 7.58536C5.8135 7.3587 5.44016 7.3587 5.2135 7.58536C4.98683 7.81203 4.98683 8.1787 5.2135 8.41203L6.80016 9.99203C6.9135 10.1054 7.06016 10.1587 7.20683 10.1587C7.36016 10.1587 7.50683 10.1054 7.62016 9.99203L10.7868 6.82536C11.0135 6.5987 11.0135 6.23203 10.7868 5.9987Z" fill="#4CAF50"/>
</svg>
