<svg width="21" height="17" viewBox="0 0 21 17" fill="none" xmlns="http://www.w3.org/2000/svg">
<path fill-rule="evenodd" clip-rule="evenodd" d="M16.9134 0.666016C18.9594 0.666016 20.6241 2.31418 20.6241 4.3391L20.625 6.71693C20.625 6.89843 20.5526 7.07443 20.4234 7.20277C20.295 7.33202 20.1199 7.40443 19.9375 7.40443C19.2161 7.40443 18.6294 7.9801 18.6294 8.68777C18.6294 9.39543 19.2161 9.9711 19.9375 9.9711C20.317 9.9711 20.625 10.2791 20.625 10.6586V13.0346C20.625 15.0595 18.9604 16.7077 16.9144 16.7077H4.62735C2.58135 16.7077 0.916687 15.0595 0.916687 13.0346V10.6586C0.916687 10.2791 1.22469 9.9711 1.60419 9.9711C2.3256 9.9711 2.91227 9.39543 2.91227 8.68777C2.91227 8.00027 2.34944 7.48143 1.60419 7.48143C1.42177 7.48143 1.24669 7.40902 1.11835 7.27977C0.989104 7.15143 0.916687 6.97543 0.916687 6.79393L0.917604 4.3391C0.917604 2.31418 2.58227 0.666016 4.62827 0.666016H16.9134ZM16.9134 2.04102H13.1533L13.1538 3.80212C13.1538 4.18162 12.8458 4.48962 12.4663 4.48962C12.0868 4.48962 11.7788 4.18162 11.7788 3.80212L11.7783 2.04102H4.62827C3.34035 2.04102 2.2926 3.07227 2.2926 4.3391L2.29169 6.18893C3.4531 6.47402 4.28727 7.46952 4.28727 8.68777C4.28727 9.91793 3.43844 10.9556 2.29169 11.2572V13.0346C2.29169 14.3014 3.33944 15.3327 4.62735 15.3327H11.7783L11.7788 13.9682C11.7788 13.5878 12.0868 13.2807 12.4663 13.2807C12.8458 13.2807 13.1538 13.5878 13.1538 13.9682L13.1533 15.3327H16.9144C18.2023 15.3327 19.25 14.3014 19.25 13.0346V11.2572C18.1033 10.9556 17.2544 9.91793 17.2544 8.68777C17.2544 7.45668 18.1024 6.41993 19.25 6.11835L19.2491 4.3391C19.2491 3.07227 18.2014 2.04102 16.9134 2.04102ZM12.4663 5.71181C12.8458 5.71181 13.1538 6.01981 13.1538 6.39931V10.8186C13.1538 11.1981 12.8458 11.5061 12.4663 11.5061C12.0868 11.5061 11.7788 11.1981 11.7788 10.8186V6.39931C11.7788 6.01981 12.0868 5.71181 12.4663 5.71181Z" fill="#0154A4"/>
</svg>
