<svg width="20" height="20" viewBox="0 0 20 20" fill="none" xmlns="http://www.w3.org/2000/svg">
<path d="M13.0414 1.66699C13.3952 1.66616 13.6749 1.94103 13.6757 2.30751L13.6766 2.9322C15.9721 3.11211 17.4885 4.67632 17.4909 7.07512L17.5 14.0966C17.5033 16.712 15.8602 18.3212 13.2265 18.3253L6.79324 18.3337C4.176 18.337 2.51235 16.6895 2.50906 14.0666L2.50001 7.12759C2.49672 4.71297 3.95961 3.15292 6.25515 2.94219L6.25433 2.3175C6.2535 1.95102 6.52502 1.67533 6.88704 1.67533C7.24906 1.67449 7.52057 1.94935 7.5214 2.31584L7.52222 2.89888L12.4095 2.89222L12.4087 2.30917C12.4078 1.94269 12.6794 1.66783 13.0414 1.66699ZM13.3771 13.4936H13.3688C12.9904 13.5027 12.6868 13.8201 12.695 14.2032C12.6958 14.5864 13.0011 14.902 13.3795 14.9104C13.7654 14.9095 14.0781 14.5922 14.0773 14.2007C14.0773 13.8092 13.7638 13.4936 13.3771 13.4936ZM6.59742 13.4944C6.21895 13.5111 5.92275 13.8284 5.92357 14.2115C5.94085 14.5947 6.2535 14.8945 6.63198 14.877C7.00305 14.8604 7.29842 14.543 7.28115 14.1599C7.27292 13.7851 6.96767 13.4936 6.59742 13.4944ZM9.98725 13.4902C9.60877 13.5077 9.3134 13.8242 9.3134 14.2074C9.33067 14.5905 9.64333 14.8895 10.0218 14.8729C10.3921 14.8554 10.6882 14.5389 10.671 14.1549C10.6627 13.7809 10.3575 13.4894 9.98725 13.4902ZM6.59331 10.4959C6.21483 10.5126 5.91946 10.8299 5.92028 11.213C5.93673 11.5962 6.25021 11.896 6.62869 11.8785C6.99894 11.8619 7.29431 11.5445 7.27703 11.1614C7.2688 10.7866 6.96438 10.4951 6.59331 10.4959ZM9.98396 10.4668C9.60548 10.4834 9.30928 10.8008 9.3101 11.1839C9.32656 11.567 9.64004 11.8661 10.0185 11.8494C10.3888 11.8319 10.6841 11.5154 10.6677 11.1323C10.6586 10.7574 10.3542 10.4659 9.98396 10.4668ZM13.3738 10.4709C12.9953 10.4792 12.6991 10.7874 12.6999 11.1706V11.1797C12.7082 11.5629 13.0208 11.8536 13.4001 11.8452C13.7704 11.8361 14.0657 11.5187 14.0575 11.1356C14.0402 10.7691 13.7432 10.4701 13.3738 10.4709ZM12.4111 4.17491L7.52386 4.18157L7.52469 4.8554C7.52469 5.21439 7.25399 5.49758 6.89197 5.49758C6.52995 5.49841 6.25762 5.21605 6.25762 4.85707L6.25679 4.21572C4.65239 4.37647 3.76461 5.31933 3.76708 7.12593L3.7679 7.38497L16.2247 7.36831V7.07679C16.1893 5.28602 15.2908 4.34649 13.6782 4.20656L13.679 4.8479C13.679 5.20606 13.4001 5.49008 13.0463 5.49008C12.6843 5.49091 12.412 5.20772 12.412 4.84957L12.4111 4.17491Z" fill="#0154A4"/>
</svg>
