<svg width="22" height="22" viewBox="0 0 22 22" fill="none" xmlns="http://www.w3.org/2000/svg">
<path fill-rule="evenodd" clip-rule="evenodd" d="M12.9467 2.63545L13.6168 3.30553C13.8762 3.56311 14.2227 3.70611 14.5912 3.70611H15.5336C17.0561 3.70611 18.2946 4.94453 18.2946 6.46711V7.40853C18.2946 7.77611 18.4376 8.12353 18.697 8.38478L19.3551 9.04386C19.8767 9.56178 20.1664 10.2539 20.1692 10.9918C20.1719 11.7297 19.8868 12.4236 19.3671 12.947L18.6951 13.6171C18.4376 13.8765 18.2946 14.2221 18.2946 14.5906V15.5339C18.2946 17.0555 17.0561 18.2939 15.5345 18.2939H14.5894C14.2264 18.2939 13.8716 18.4406 13.6141 18.6964L12.9559 19.3545C12.4178 19.8963 11.7083 20.1676 10.9988 20.1676C10.2957 20.1676 9.59264 19.9018 9.05456 19.3683C9.04722 19.3609 9.03989 19.3536 9.03256 19.3454L8.38172 18.6954C8.12231 18.4379 7.77581 18.2949 7.40731 18.2939H6.46681C4.94423 18.2939 3.70673 17.0555 3.70673 15.5339V14.5888C3.70673 14.2203 3.56281 13.8747 3.30431 13.6144L2.64523 12.9562C1.57456 11.891 1.56173 10.1567 2.61314 9.07503L2.63789 9.05028L3.30523 8.38111C3.56281 8.1217 3.70673 7.77428 3.70673 7.4067V6.46711C3.70673 4.94545 4.94422 3.70703 6.46589 3.70611H7.41006C7.77764 3.70611 8.12414 3.5622 8.38723 3.30278L9.04264 2.64553C10.1142 1.56661 11.866 1.56111 12.9467 2.63545ZM10.0171 3.61628L9.35798 4.2772C8.83181 4.79695 8.14156 5.08111 7.41006 5.08111H6.46681C5.70323 5.08203 5.08173 5.70353 5.08173 6.46711V7.4067C5.08173 8.14095 4.79664 8.8312 4.27964 9.35186L3.62881 10.0036C3.62239 10.0109 3.61598 10.0164 3.60956 10.0229C3.07148 10.5646 3.07423 11.4437 3.61598 11.9818L4.27781 12.6436C4.79664 13.1643 5.08173 13.8545 5.08173 14.5888V15.5339C5.08173 16.2974 5.70231 16.9189 6.46681 16.9189H7.40823C8.14339 16.9199 8.83364 17.2049 9.35339 17.7229L10.0143 18.3819L10.0326 18.4021C10.5735 18.9301 11.4443 18.9237 11.9815 18.3838L12.6433 17.7238C13.1566 17.2114 13.8661 16.9189 14.5894 16.9189H15.5336C16.2981 16.9189 16.9196 16.2974 16.9196 15.5339V14.5906C16.9196 13.8564 17.2037 13.1661 17.7226 12.6464L18.3826 11.9854C18.6511 11.7159 18.7951 11.3667 18.7941 10.9964C18.7932 10.6269 18.6475 10.2795 18.3844 10.0174L17.7235 9.35553C17.2037 8.83211 16.9196 8.14278 16.9196 7.40853V6.46711C16.9196 5.70261 16.2981 5.08111 15.5336 5.08111H14.5912C13.857 5.08111 13.1667 4.79603 12.647 4.27995L11.9851 3.6172C11.4342 3.07178 10.5551 3.07453 10.0171 3.61628ZM13.2947 12.3738C13.8016 12.3738 14.2114 12.7836 14.2114 13.2905C14.2114 13.7974 13.8016 14.2072 13.2947 14.2072C12.7878 14.2072 12.3734 13.7974 12.3734 13.2905C12.3734 12.7836 12.7795 12.3738 13.2864 12.3738H13.2947ZM13.8427 8.15836C14.1113 8.42695 14.1113 8.86236 13.8427 9.13095L9.13009 13.8426C8.99626 13.9774 8.82026 14.0443 8.64426 14.0443C8.46826 14.0443 8.29226 13.9774 8.15843 13.8426C7.88984 13.574 7.88984 13.1395 8.15843 12.8709L12.8701 8.15836C13.1387 7.88978 13.5741 7.88978 13.8427 8.15836ZM8.71136 7.7905C9.21828 7.7905 9.62803 8.20025 9.62803 8.70717C9.62803 9.21409 9.21828 9.62384 8.71136 9.62384C8.20444 9.62384 7.79011 9.21409 7.79011 8.70717C7.79011 8.20025 8.19619 7.7905 8.70311 7.7905H8.71136Z" fill="#0154A4"/>
</svg>
