<svg width="22" height="22" viewBox="0 0 22 22" fill="none" xmlns="http://www.w3.org/2000/svg">
<path fill-rule="evenodd" clip-rule="evenodd" d="M8.83903 1.83301C9.71078 1.83392 10.5413 2.25009 11.0619 2.94584L11.897 4.05684C12.1619 4.40884 12.5827 4.61876 13.0227 4.61967H15.6159C19.1561 4.61967 20.8052 6.43376 20.8052 10.3287L20.7795 14.8818C20.7786 18.5191 18.5181 20.7796 14.8789 20.7796H7.74545C4.09895 20.7796 1.83295 18.5182 1.83295 14.879V7.72992C1.83295 3.81667 3.5737 1.83301 7.0057 1.83301H8.83903ZM8.83811 3.20801H7.0057C4.3437 3.20801 3.20795 4.56101 3.20795 7.72992V14.879C3.20795 17.7977 4.81945 19.4046 7.74545 19.4046H14.8789C17.7976 19.4046 19.4045 17.7977 19.4045 14.879V14.8763L19.4302 10.325C19.4302 7.20926 18.3614 5.99467 15.6159 5.99467H13.0218C12.1519 5.99376 11.3214 5.57851 10.7989 4.88367L9.96195 3.77084C9.69886 3.41792 9.27811 3.20892 8.83811 3.20801ZM15.3228 13.0281C15.7023 13.0281 16.0103 13.3361 16.0103 13.7156C16.0103 14.0951 15.7023 14.4031 15.3228 14.4031H7.31571C6.93621 14.4031 6.62821 14.0951 6.62821 13.7156C6.62821 13.3361 6.93621 13.0281 7.31571 13.0281H15.3228Z" fill="#0154A4"/>
</svg>
