<svg width="34" height="34" viewBox="0 0 34 34" fill="none" xmlns="http://www.w3.org/2000/svg">
<path d="M8.50001 11.6709C8.31214 11.6709 8.13198 11.7455 7.99914 11.8784C7.8663 12.0112 7.79167 12.1914 7.79167 12.3792V13.9176C7.79167 14.1055 7.8663 14.2857 7.99914 14.4185C8.13198 14.5513 8.31214 14.626 8.50001 14.626C8.68787 14.626 8.86803 14.5513 9.00087 14.4185C9.13371 14.2857 9.20834 14.1055 9.20834 13.9176V12.3792C9.20834 12.1914 9.13371 12.0112 9.00087 11.8784C8.86803 11.7455 8.68787 11.6709 8.50001 11.6709Z" fill="#0154A4"/>
<path d="M8.50001 15.5186C8.31214 15.5186 8.13198 15.5932 7.99914 15.726C7.8663 15.8589 7.79167 16.039 7.79167 16.2269V17.7653C7.79167 17.9532 7.8663 18.1333 7.99914 18.2662C8.13198 18.399 8.31214 18.4736 8.50001 18.4736C8.68787 18.4736 8.86803 18.399 9.00087 18.2662C9.13371 18.1333 9.20834 17.9532 9.20834 17.7653V16.2269C9.20834 16.039 9.13371 15.8589 9.00087 15.726C8.86803 15.5932 8.68787 15.5186 8.50001 15.5186Z" fill="#0154A4"/>
<path d="M8.50001 19.3652C8.31214 19.3652 8.13198 19.4399 7.99914 19.5727C7.8663 19.7055 7.79167 19.8857 7.79167 20.0736V21.612C7.79167 21.7998 7.8663 21.98 7.99914 22.1128C8.13198 22.2457 8.31214 22.3203 8.50001 22.3203C8.68787 22.3203 8.86803 22.2457 9.00087 22.1128C9.13371 21.98 9.20834 21.7998 9.20834 21.612V20.0736C9.20834 19.8857 9.13371 19.7055 9.00087 19.5727C8.86803 19.4399 8.68787 19.3652 8.50001 19.3652Z" fill="#0154A4"/>
<path d="M6.28093 3.54297C5.4559 3.61205 4.70426 4.16191 4.42986 4.99146L3.48634 7.84001C2.33596 7.93621 1.41667 8.90224 1.41667 10.0757V12.8938C1.4169 13.2011 1.61527 13.4733 1.9078 13.5675C2.79145 13.8527 3.54137 14.9629 3.54167 16.322C3.54179 17.6816 2.79174 18.7926 1.9078 19.0779C1.61527 19.1721 1.4169 19.4443 1.41667 19.7516V23.985C1.41667 25.2213 2.43406 26.2387 3.67033 26.2387H14.8529L26.8793 30.3448C27.9895 30.7239 29.2043 30.1034 29.5702 28.9973L30.4888 26.2221C31.6508 26.138 32.5833 25.1669 32.5833 23.985V19.7502C32.5831 19.4429 32.3847 19.1708 32.0922 19.0765C31.2086 18.7913 30.4586 17.6811 30.4583 16.322C30.4582 14.9625 31.2083 13.8515 32.0922 13.5662C32.3847 13.4719 32.5831 13.1998 32.5833 12.8924V10.0757C32.5833 8.83941 31.566 7.82202 30.3297 7.82202H19.1499L7.12484 3.64396C6.84645 3.54647 6.54301 3.55879 6.28093 3.54297ZM6.38469 4.94857C6.47654 4.94231 6.57238 4.95439 6.6683 4.98592C9.38918 5.93074 12.1099 6.87652 14.8307 7.82202H4.98462L5.77458 5.43555C5.86978 5.14777 6.10912 4.96736 6.38469 4.94857ZM3.67033 9.23869H7.79167V9.91244C7.79167 10.3036 8.1088 10.6208 8.50001 10.6208C8.89121 10.6208 9.20834 10.3036 9.20834 9.91244V9.23869H30.3297C30.8058 9.23869 31.1667 9.5996 31.1667 10.0757V12.4871C29.8585 13.1763 29.0415 14.6616 29.0417 16.322C29.042 17.9819 29.8588 19.4667 31.1667 20.1556V23.985C31.1667 24.4611 30.8058 24.822 30.3297 24.822H9.20696C9.21048 24.5776 9.20834 24.326 9.20834 24.0791C9.20834 23.6879 8.8912 23.3708 8.50001 23.3708C8.10881 23.3708 7.79167 23.6879 7.79167 24.0791C7.79026 24.3249 7.79227 24.5791 7.79309 24.822H3.67037C3.19414 24.822 2.83334 24.4611 2.83334 23.985V20.157C4.14155 19.4678 4.95849 17.9824 4.95834 16.322C4.95797 14.6622 4.14118 13.1774 2.83334 12.4884V10.0757C2.83334 9.5996 3.19425 9.23869 3.67033 9.23869ZM19.2371 26.2387H28.9905L28.2254 28.5518C28.0984 28.936 27.7125 29.1324 27.3372 29.0042L19.2371 26.2387Z" fill="#0154A4"/>
<path d="M23.2066 18.1045C24.4675 18.1045 25.5045 19.1415 25.5045 20.4024C25.5045 21.6633 24.4675 22.7017 23.2066 22.7017C21.9456 22.7017 20.9072 21.6633 20.9072 20.4024C20.9072 19.1415 21.9456 18.1045 23.2066 18.1045ZM23.2066 19.5212C22.7113 19.5212 22.3239 19.9071 22.3239 20.4024C22.3239 20.8977 22.7113 21.2851 23.2066 21.2851C23.7019 21.2851 24.0878 20.8977 24.0878 20.4024C24.0878 19.9071 23.7019 19.5212 23.2066 19.5212Z" fill="#0154A4"/>
<path d="M16.4612 11.3594C17.7222 11.3594 18.7592 12.3964 18.7592 13.6573C18.7592 14.9182 17.7222 15.9552 16.4612 15.9552C15.2003 15.9552 14.1619 14.9182 14.1619 13.6573C14.1619 12.3964 15.2003 11.3594 16.4612 11.3594ZM16.4612 12.776C15.9659 12.776 15.5786 13.162 15.5786 13.6573C15.5786 14.1526 15.9659 14.5386 16.4612 14.5386C16.9565 14.5386 17.3425 14.1526 17.3425 13.6573C17.3425 13.162 16.9565 12.776 16.4612 12.776Z" fill="#0154A4"/>
<path d="M22.7053 13.1563L15.9595 19.9021C15.683 20.1787 15.683 20.6271 15.9595 20.9037C16.2361 21.1803 16.6846 21.1803 16.9612 20.9037L23.7069 14.1579C23.9835 13.8813 23.9835 13.4329 23.7069 13.1563C23.4176 12.899 22.9781 12.8721 22.7053 13.1563Z" fill="#0154A4"/>
</svg>
