<svg width="22" height="22" viewBox="0 0 22 22" fill="none" xmlns="http://www.w3.org/2000/svg">
<path fill-rule="evenodd" clip-rule="evenodd" d="M9.0539 13.251L9.16308 13.251L9.40505 13.2517C11.4602 13.2627 16.2745 13.4495 16.2745 16.6253C16.2745 19.5697 12.3205 19.9631 9.24493 19.978L8.70275 19.9777C6.64763 19.9668 1.83331 19.78 1.83331 16.6051C1.83331 13.5984 5.95373 13.251 9.0539 13.251ZM9.0539 14.626C5.17548 14.626 3.20831 15.2924 3.20831 16.6051C3.20831 17.9306 5.17548 18.6034 9.0539 18.6034C12.9323 18.6034 14.8995 17.937 14.8995 16.6253C14.8995 15.2979 12.9323 14.626 9.0539 14.626ZM17.6037 7.25848C17.9832 7.25848 18.2912 7.56648 18.2912 7.94598L18.2911 9.09576L19.4791 9.09649C19.8586 9.09649 20.1666 9.40449 20.1666 9.78399C20.1666 10.1635 19.8586 10.4715 19.4791 10.4715L18.2911 10.4708L18.2912 11.6227C18.2912 12.0022 17.9832 12.3102 17.6037 12.3102C17.2242 12.3102 16.9162 12.0022 16.9162 11.6227L16.9161 10.4708L15.73 10.4715C15.3505 10.4715 15.0425 10.1635 15.0425 9.78399C15.0425 9.40449 15.3505 9.09649 15.73 9.09649L16.9161 9.09576L16.9162 7.94598C16.9162 7.56648 17.2242 7.25848 17.6037 7.25848ZM9.0539 1.83301C11.7425 1.83301 13.9287 4.02017 13.9287 6.70784C13.9287 9.39551 11.7425 11.5827 9.0539 11.5827H9.02548C7.72473 11.5781 6.50556 11.0675 5.59165 10.1472C4.67681 9.22592 4.1754 8.00309 4.17995 6.70509C4.17995 4.02017 6.36623 1.83301 9.0539 1.83301ZM9.0539 3.20801C7.12523 3.20801 5.55495 4.77826 5.55495 6.70784C5.55131 7.64192 5.91065 8.51734 6.56606 9.17826C7.2224 9.83826 8.0969 10.204 9.02823 10.2077L9.0539 10.8869V10.2077C10.9835 10.2077 12.5537 8.63742 12.5537 6.70784C12.5537 4.77826 10.9835 3.20801 9.0539 3.20801Z" fill="#0154A4"/>
</svg>
