<svg width="32" height="32" viewBox="0 0 32 32" fill="none" xmlns="http://www.w3.org/2000/svg">
<g clip-path="url(#clip0_3246_15836)">
<path d="M12.8862 16.8838H9.81273" stroke="#0154A4" stroke-width="1.3" stroke-miterlimit="10" stroke-linecap="round" stroke-linejoin="round"/>
<path d="M22.1873 16.8838H19.1138" stroke="#0154A4" stroke-width="1.3" stroke-miterlimit="10" stroke-linecap="round" stroke-linejoin="round"/>
<path d="M9.69122 13.1924C9.75247 12.1649 10.435 11.2705 11.4225 10.9461L14.6743 9.87551" stroke="#0154A4" stroke-width="1.3" stroke-miterlimit="10" stroke-linecap="round" stroke-linejoin="round"/>
<path d="M17.3256 9.87551L20.5775 10.9461C21.565 11.2705 22.2475 12.1649 22.3087 13.1924" stroke="#0154A4" stroke-width="1.3" stroke-miterlimit="10" stroke-linecap="round" stroke-linejoin="round"/>
<path d="M17.3259 8.29796V9.87634C17.3259 10.6086 16.7322 11.2021 16 11.2021C15.2677 11.2021 14.6741 10.6086 14.6741 9.87634V8.29796" stroke="#0154A4" stroke-width="1.3" stroke-miterlimit="10" stroke-linecap="round" stroke-linejoin="round"/>
<path d="M19.0305 3.49899C19.0305 1.82531 17.6737 0.468493 16 0.468493C14.3263 0.468493 12.9695 1.82531 12.9695 3.49899V5.5193C12.9695 7.19299 14.3263 8.5498 16 8.5498C17.6737 8.5498 19.0305 7.19299 19.0305 5.5193V3.49899Z" stroke="#0154A4" stroke-width="1.3" stroke-miterlimit="10" stroke-linecap="round" stroke-linejoin="round"/>
<path d="M18.9381 23.4756C19.09 22.5593 19.7375 21.7868 20.64 21.4893L23.8919 20.4193" stroke="#0154A4" stroke-width="1.3" stroke-miterlimit="10" stroke-linecap="round" stroke-linejoin="round"/>
<path d="M31.5312 26.7971V27.4277H25.2175H22.3137" stroke="#0154A4" stroke-width="1.3" stroke-miterlimit="10" stroke-linecap="round" stroke-linejoin="round"/>
<path d="M26.5438 20.4197L29.7956 21.4897C30.8313 21.8309 31.5313 22.7984 31.5313 23.889V24.6074" stroke="#0154A4" stroke-width="1.3" stroke-miterlimit="10" stroke-linecap="round" stroke-linejoin="round"/>
<path d="M8.10816 20.4193L11.36 21.4893C12.2625 21.7868 12.91 22.5593 13.0619 23.4756" stroke="#0154A4" stroke-width="1.3" stroke-miterlimit="10" stroke-linecap="round" stroke-linejoin="round"/>
<path d="M9.68628 27.4277H6.78247H0.468781V26.7971" stroke="#0154A4" stroke-width="1.3" stroke-miterlimit="10" stroke-linecap="round" stroke-linejoin="round"/>
<path d="M0.46875 24.6074V23.889C0.46875 22.7984 1.16875 21.8309 2.20437 21.4897L5.45625 20.4197" stroke="#0154A4" stroke-width="1.3" stroke-miterlimit="10" stroke-linecap="round" stroke-linejoin="round"/>
<path d="M26.5436 18.8409V20.4193C26.5436 21.1516 25.95 21.7451 25.2177 21.7451C24.4855 21.7451 23.8919 21.1516 23.8919 20.4193V18.8409" stroke="#0154A4" stroke-width="1.3" stroke-miterlimit="10" stroke-linecap="round" stroke-linejoin="round"/>
<path d="M28.2482 14.0429C28.2482 12.3693 26.8914 11.0124 25.2177 11.0124C23.544 11.0124 22.1872 12.3693 22.1872 14.0429V16.0633C22.1872 17.7369 23.544 19.0938 25.2177 19.0938C26.8914 19.0938 28.2482 17.7369 28.2482 16.0633V14.0429Z" stroke="#0154A4" stroke-width="1.3" stroke-miterlimit="10" stroke-linecap="round" stroke-linejoin="round"/>
<path d="M28.8796 25.7862V27.4277" stroke="#0154A4" stroke-width="1.3" stroke-miterlimit="10" stroke-linecap="round" stroke-linejoin="round"/>
<path d="M8.10809 18.8409V20.4193C8.10809 21.1516 7.51453 21.7451 6.78228 21.7451C6.05003 21.7451 5.45641 21.1516 5.45641 20.4193V18.8409" stroke="#0154A4" stroke-width="1.3" stroke-miterlimit="10" stroke-linecap="round" stroke-linejoin="round"/>
<path d="M9.81275 14.0429C9.81275 12.3693 8.45593 11.0124 6.78231 11.0124C5.10856 11.0124 3.75175 12.3693 3.75175 14.0429V16.0633C3.75175 17.7369 5.10856 19.0938 6.78231 19.0938C8.45593 19.0938 9.81275 17.7369 9.81275 16.0633V14.0429Z" stroke="#0154A4" stroke-width="1.3" stroke-miterlimit="10" stroke-linecap="round" stroke-linejoin="round"/>
<path d="M3.12042 25.7862V27.4277" stroke="#0154A4" stroke-width="1.3" stroke-miterlimit="10" stroke-linecap="round" stroke-linejoin="round"/>
<path d="M22.3135 30.9051V31.5312H16H9.68647V26.4139C9.68647 25.3234 10.3865 24.356 11.4224 24.0151L14.6742 22.9449" stroke="#0154A4" stroke-width="1.3" stroke-miterlimit="10" stroke-linecap="round" stroke-linejoin="round"/>
<path d="M17.3259 22.9451L20.5776 24.0154C21.6135 24.3562 22.3136 25.3236 22.3136 26.4142V28.7168" stroke="#0154A4" stroke-width="1.3" stroke-miterlimit="10" stroke-linecap="round" stroke-linejoin="round"/>
<path d="M17.3259 21.3663V22.9446C17.3259 23.6769 16.7322 24.2705 16 24.2705C15.2677 24.2705 14.6741 23.6769 14.6741 22.9446V21.3663" stroke="#0154A4" stroke-width="1.3" stroke-miterlimit="10" stroke-linecap="round" stroke-linejoin="round"/>
<path d="M19.0305 16.5683C19.0305 14.8946 17.6737 13.5378 16 13.5378C14.3263 13.5378 12.9695 14.8946 12.9695 16.5683V18.5886C12.9695 20.2623 14.3263 21.6191 16 21.6191C17.6737 21.6191 19.0305 20.2623 19.0305 18.5886V16.5683Z" stroke="#0154A4" stroke-width="1.3" stroke-miterlimit="10" stroke-linecap="round" stroke-linejoin="round"/>
<path d="M19.6619 28.3114V31.5312" stroke="#0154A4" stroke-width="1.3" stroke-miterlimit="10" stroke-linecap="round" stroke-linejoin="round"/>
<path d="M12.3381 28.3114V31.5312" stroke="#0154A4" stroke-width="1.3" stroke-miterlimit="10" stroke-linecap="round" stroke-linejoin="round"/>
</g>
<defs>
<clipPath id="clip0_3246_15836">
<rect width="32" height="32" fill="white"/>
</clipPath>
</defs>
</svg>
