<svg width="32" height="32" viewBox="0 0 32 32" fill="none" xmlns="http://www.w3.org/2000/svg">
<path d="M22.875 24.75C22.53 24.75 22.25 25.03 22.25 25.375C22.25 25.72 22.53 26 22.875 26C23.22 26 23.5 25.72 23.5 25.375C23.5 25.03 23.22 24.75 22.875 24.75Z" fill="#0154A4"/>
<path d="M24.4139 22.7289L21.4433 21.7389L20.3768 19.606C21.3376 18.6281 22.0046 17.3343 22.2296 15.9847L22.3626 15.1875H23.5C24.5339 15.1875 25.375 14.3464 25.375 13.3125V9.375C25.375 4.20563 21.1694 0 16 0C10.8174 0 6.625 4.19356 6.625 9.375V13.3125C6.625 14.1273 7.14756 14.822 7.875 15.08V15.8125C7.875 16.8464 8.71613 17.6875 9.75 17.6875H10.2989C10.5698 18.2761 10.9205 18.8212 11.3472 19.3109C11.4357 19.4126 11.5281 19.5112 11.6226 19.6072L10.5568 21.7389L7.58606 22.729C4.132 23.8808 1.625 27.5169 1.625 31.375C1.625 31.7202 1.90481 32 2.25 32H29.75C30.0951 32 30.375 31.7202 30.375 31.375C30.375 27.5169 27.8681 23.8807 24.4139 22.7289ZM24.125 13.3125C24.125 13.6571 23.8446 13.9375 23.5 13.9375H22.5461C22.705 12.7069 22.8109 11.3973 22.8534 10.1075C22.8547 10.0711 22.8557 10.0358 22.8568 10H24.125V13.3125ZM8.5 13.9375C8.15538 13.9375 7.875 13.6571 7.875 13.3125V10H9.14363C9.14569 10.0652 9.14787 10.1307 9.15031 10.1966C9.15037 10.1989 9.1505 10.2011 9.15056 10.2033C9.15056 10.2035 9.15056 10.2037 9.15056 10.2039C9.19431 11.4584 9.29881 12.7339 9.45406 13.9374H8.5V13.9375ZM9.75 16.4375C9.40538 16.4375 9.125 16.1571 9.125 15.8125V15.1875H9.63737L9.77038 15.9849C9.79575 16.1365 9.82694 16.2875 9.863 16.4375H9.75ZM9.12606 8.75H7.89875C8.21531 4.56119 11.7111 1.25 16 1.25C20.2699 1.25 23.781 4.56075 24.1012 8.75H22.874C22.829 5.29831 20.0182 2.5 16.5594 2.5H15.4407C11.982 2.5 9.171 5.29831 9.12606 8.75ZM15.4406 3.75H16.5594C19.3599 3.75 21.6266 6.04069 21.625 8.83813C21.625 9.03481 21.6234 9.20606 21.6201 9.36187C21.6201 9.36387 21.6201 9.36594 21.6201 9.368L20.8383 9.25631C18.7146 8.95306 16.7093 7.95044 15.1919 6.43306C15.0747 6.31588 14.9157 6.25 14.75 6.25C13.0715 6.25 11.4648 7.01475 10.4026 8.30675C10.6644 5.76181 12.8158 3.75 15.4406 3.75ZM11.1587 16.4375C10.8459 15.3967 10.4879 12.3342 10.4087 10.3717L11.2499 9.25006C12.0225 8.22031 13.2244 7.5805 14.503 7.50706C16.1853 9.10806 18.3617 10.1653 20.6616 10.4937L21.5817 10.6252C21.5202 11.9305 21.3945 13.2404 21.2144 14.4451C21.2144 14.4454 21.2143 14.4459 21.2143 14.4463C21.157 14.8336 21.1119 15.0829 20.9966 15.7791C20.6656 17.7644 19.1842 19.5597 17.2287 20.0486C16.4239 20.2496 15.576 20.2495 14.7716 20.0486C13.5506 19.7434 12.4309 18.8985 11.7084 17.6875H12.9825C13.2405 18.4149 13.9352 18.9375 14.75 18.9375H16C17.0359 18.9375 17.875 18.0985 17.875 17.0625C17.875 16.0286 17.0339 15.1875 16 15.1875H14.75C13.9171 15.1875 13.2326 15.7255 12.9814 16.4375H11.1587ZM14.6974 21.3135C15.1261 21.4038 15.5632 21.45 16 21.45C16.3419 21.45 16.6839 21.4214 17.0221 21.3659L15.9177 22.5338L14.6974 21.3135ZM15.0584 23.4424L13.0761 25.5388C12.5303 24.4942 12.0614 23.407 11.6768 22.294L12.4212 20.8051L15.0584 23.4424ZM19.4729 20.5934L20.3231 22.2939C19.9379 23.4088 19.4688 24.4964 18.9236 25.5397L16.8019 23.418L19.4729 20.5934ZM14.125 17.0625C14.125 16.7174 14.4049 16.4375 14.75 16.4375H16C16.3446 16.4375 16.625 16.7179 16.625 17.0625C16.625 17.4076 16.3451 17.6875 16 17.6875H14.75C14.4054 17.6875 14.125 17.4071 14.125 17.0625ZM2.9 30.75C3.14769 27.6538 5.20825 24.8396 7.98138 23.9148L10.6123 23.0381C11.0943 24.3709 11.6914 25.6663 12.3912 26.8968C12.3924 26.8989 12.3935 26.9011 12.3947 26.9031L12.3947 26.9032C12.9061 27.8026 13.4816 28.6814 14.1055 29.5157L14.8744 30.75H2.9ZM16 30.1929L15.1524 28.8321C15.1429 28.8168 15.1327 28.802 15.122 28.7876C14.6159 28.1125 14.1437 27.4064 13.7137 26.6838L15.9427 24.3266L18.2913 26.6752C17.8584 27.4032 17.3847 28.1122 16.8781 28.7875C16.8475 28.8283 16.8909 28.764 16 30.1929ZM17.1256 30.75L17.8944 29.5158C18.5211 28.6783 19.1008 27.7924 19.6172 26.8825C19.6203 26.877 19.6233 26.8714 19.6264 26.8659C19.6268 26.8652 19.6271 26.8646 19.6275 26.8639C20.3184 25.6451 20.9093 24.3609 21.3878 23.0381L24.0186 23.9148C26.7917 24.8396 28.8523 27.6538 29.1 30.75H17.1256Z" fill="#0154A4"/>
<path d="M27.2217 28.221C26.804 27.385 26.1922 26.6422 25.4524 26.0731C25.1788 25.8625 24.7864 25.9137 24.576 26.1873C24.3655 26.461 24.4167 26.8533 24.6902 27.0638C25.2811 27.5184 25.7697 28.1117 26.1034 28.7796C26.258 29.089 26.6336 29.2135 26.9418 29.0595C27.2506 28.9052 27.3759 28.5298 27.2217 28.221Z" fill="#0154A4"/>
</svg>
