<svg width="16" height="16" viewBox="0 0 16 16" fill="none" xmlns="http://www.w3.org/2000/svg">
<path fill-rule="evenodd" clip-rule="evenodd" d="M12.9231 5.81183C13.1984 5.8345 13.4037 6.07516 13.3817 6.3505C13.3777 6.39583 13.0164 10.8698 12.8084 12.7465C12.6791 13.9112 11.9097 14.6198 10.7484 14.6412C9.85973 14.6565 9.0024 14.6652 8.1644 14.6652C7.26107 14.6652 6.3804 14.6552 5.50907 14.6372C4.3944 14.6152 3.62307 13.8925 3.49707 12.7512C3.28707 10.8578 2.92773 6.39516 2.9244 6.3505C2.90173 6.07516 3.10707 5.83383 3.3824 5.81183C3.65373 5.8045 3.89907 5.99516 3.92107 6.26983C3.92319 6.29877 4.07009 8.12118 4.23017 9.92431L4.26233 10.2841C4.34295 11.1804 4.42468 12.0416 4.49107 12.6412C4.5624 13.2898 4.9124 13.6245 5.52973 13.6372C7.1964 13.6725 8.89707 13.6745 10.7304 13.6412C11.3864 13.6285 11.7411 13.3005 11.8144 12.6365C12.0211 10.7738 12.3811 6.31517 12.3851 6.26983C12.4071 5.99516 12.6504 5.80316 12.9231 5.81183ZM9.5636 1.33203C10.1756 1.33203 10.7136 1.7447 10.8716 2.33603L11.0409 3.1767C11.0957 3.45228 11.3375 3.65354 11.6175 3.65796L13.8053 3.65803C14.0813 3.65803 14.3053 3.88203 14.3053 4.15803C14.3053 4.43403 14.0813 4.65803 13.8053 4.65803L11.6371 4.65793C11.6337 4.658 11.6303 4.65803 11.6269 4.65803L11.6107 4.65736L4.69441 4.65795C4.68904 4.658 4.68365 4.65803 4.67827 4.65803L4.668 4.65736L2.5 4.65803C2.224 4.65803 2 4.43403 2 4.15803C2 3.88203 2.224 3.65803 2.5 3.65803L4.68733 3.65736L4.75468 3.6531C5.00554 3.62055 5.21402 3.43003 5.26493 3.1767L5.42693 2.36603C5.5916 1.7447 6.1296 1.33203 6.7416 1.33203H9.5636ZM9.5636 2.33203H6.7416C6.5816 2.33203 6.44093 2.43936 6.40027 2.59336L6.24493 3.37336C6.22519 3.47216 6.19644 3.56737 6.15966 3.65821H10.1457C10.1089 3.56737 10.0801 3.47216 10.0603 3.37336L9.89827 2.5627C9.86427 2.43936 9.7236 2.33203 9.5636 2.33203Z" fill="black"/>
</svg>
