<svg width="16" height="16" viewBox="0 0 16 16" fill="none" xmlns="http://www.w3.org/2000/svg">
<path d="M12.626 5.79679C12.759 5.79679 12.8796 5.85479 12.9749 5.95279C13.0637 6.05745 13.1084 6.18745 13.0955 6.32478C13.0955 6.37011 12.7402 10.8634 12.5372 12.7547C12.4101 13.9154 11.6619 14.62 10.5396 14.6394C9.67662 14.6587 8.83309 14.6654 8.00253 14.6654C7.12075 14.6654 6.25842 14.6587 5.42137 14.6394C4.33665 14.6134 3.58779 13.896 3.46719 12.7547C3.25842 10.8567 2.9096 6.37011 2.90311 6.32478C2.89663 6.18745 2.94072 6.05745 3.03019 5.95279C3.11837 5.85479 3.24545 5.79679 3.37901 5.79679H12.626ZM9.37649 1.33203C9.96585 1.33203 10.4923 1.74336 10.6447 2.33002L10.7536 2.81668C10.8418 3.21335 11.1854 3.49401 11.5809 3.49401H13.5247C13.7841 3.49401 14 3.70934 14 3.98334V4.23667C14 4.504 13.7841 4.726 13.5247 4.726H2.4759C2.21591 4.726 2 4.504 2 4.23667V3.98334C2 3.70934 2.21591 3.49401 2.4759 3.49401H4.41971C4.81457 3.49401 5.1582 3.21335 5.24703 2.81735L5.34882 2.36269C5.50702 1.74336 6.02766 1.33203 6.62351 1.33203H9.37649Z" fill="#FF0000"/>
</svg>
