<svg width="34" height="34" viewBox="0 0 34 34" fill="none" xmlns="http://www.w3.org/2000/svg">
<g clip-path="url(#clip0_1902_11095)">
<path d="M13.5175 22.911L18.2131 8.82405C18.387 8.30217 18.105 7.73805 17.5831 7.56406C17.0613 7.39014 16.4971 7.67217 16.3231 8.19406L11.6275 22.281C11.4536 22.8029 11.7356 23.367 12.2575 23.541C12.362 23.5758 12.4682 23.5923 12.5726 23.5923C12.9897 23.5924 13.3783 23.3284 13.5175 22.911Z" fill="#0154A4"/>
<path d="M20.5552 18.541C22.2029 18.541 23.5435 17.2005 23.5435 15.5527C23.5435 13.905 22.2029 12.5645 20.5552 12.5645C18.9074 12.5645 17.5669 13.905 17.5669 15.5527C17.5669 17.2005 18.9074 18.541 20.5552 18.541ZM20.5552 14.5566C21.1044 14.5566 21.5513 15.0035 21.5513 15.5527C21.5513 16.102 21.1044 16.5488 20.5552 16.5488C20.0059 16.5488 19.5591 16.102 19.5591 15.5527C19.5591 15.0035 20.0059 14.5566 20.5552 14.5566Z" fill="#0154A4"/>
<path d="M9.28564 12.5645C7.63791 12.5645 6.29736 13.905 6.29736 15.5527C6.29736 17.2005 7.63791 18.541 9.28564 18.541C10.9334 18.541 12.2739 17.2005 12.2739 15.5527C12.2739 13.905 10.9334 12.5645 9.28564 12.5645ZM9.28564 16.5488C8.7364 16.5488 8.28955 16.102 8.28955 15.5527C8.28955 15.0035 8.7364 14.5566 9.28564 14.5566C9.83489 14.5566 10.2817 15.0035 10.2817 15.5527C10.2817 16.102 9.83496 16.5488 9.28564 16.5488Z" fill="#0154A4"/>
<path d="M33.8013 12.3515L30.3277 7.72017L30.4633 6.77169C30.5076 6.46131 30.4032 6.14814 30.1815 5.92648L28.0685 3.81343L30.1814 1.70038C30.5705 1.31144 30.5705 0.680714 30.1814 0.291706C29.7925 -0.0972354 29.1618 -0.0972354 28.7728 0.291706L26.6598 2.40475L24.5467 0.291706C24.3251 0.0699756 24.0119 -0.0340166 23.7015 0.00994432L13.8407 1.41862C13.6273 1.4491 13.4296 1.54798 13.2772 1.70038L1.06855 13.909C-0.355532 15.3331 -0.355532 17.6502 1.06855 19.0742L11.3989 29.4047C11.6102 29.616 11.8416 29.7952 12.0864 29.9438V30.3476C12.0864 32.3615 13.7249 34 15.7388 34H30.3481C32.362 34 34.0005 32.3615 34.0005 30.3476V12.9492C34.0005 12.7337 33.9305 12.5239 33.8013 12.3515ZM2.47723 17.6656C1.8299 17.0182 1.8299 15.965 2.47723 15.3177L14.4511 3.34387L23.4902 2.0526L25.251 3.81349L23.8424 5.22217L23.138 4.5178C22.7491 4.12886 22.1183 4.12886 21.7293 4.5178C21.3403 4.90674 21.3403 5.53747 21.7293 5.92648L24.5467 8.74389C24.7412 8.9384 24.9962 9.03568 25.251 9.03568C25.5059 9.03568 25.7609 8.9384 25.9554 8.74389C26.3444 8.35495 26.3444 7.72423 25.9554 7.33522L25.251 6.63085L26.6597 5.22217L28.4206 6.98307L27.1292 16.0222L15.1554 27.996C14.8419 28.3096 14.425 28.4822 13.9815 28.4822C13.538 28.4822 13.1212 28.3095 12.8076 27.996L2.47723 17.6656ZM32.0083 30.3476C32.0083 31.2631 31.2635 32.0078 30.3481 32.0078H15.7388C14.8646 32.0078 14.1466 31.3286 14.0836 30.4702C14.9845 30.4453 15.878 30.0908 16.5641 29.4047L28.7727 17.196C28.9251 17.0436 29.024 16.8459 29.0545 16.6326L29.9292 10.5092L32.0083 13.2812V30.3476Z" fill="#0154A4"/>
</g>
<defs>
<clipPath id="clip0_1902_11095">
<rect width="34" height="34" fill="white"/>
</clipPath>
</defs>
</svg>
