<svg width="18" height="20" viewBox="0 0 18 20" fill="none" xmlns="http://www.w3.org/2000/svg">
<path fill-rule="evenodd" clip-rule="evenodd" d="M12.5829 0.833984C15.4649 0.833984 17.4009 2.80757 17.4009 5.74457V14.1742C17.4009 17.1369 15.5245 19.0637 12.6205 19.0821L5.56861 19.0848C2.68661 19.0848 0.749695 17.1112 0.749695 14.1742V5.74457C0.749695 2.78098 2.62611 0.855068 5.53011 0.837651L12.582 0.833984H12.5829ZM12.5829 2.20898L5.53469 2.21265C3.40069 2.22548 2.12469 3.54548 2.12469 5.74457V14.1742C2.12469 16.388 3.41261 17.7098 5.5677 17.7098L12.6159 17.7071C14.7499 17.6942 16.0259 16.3724 16.0259 14.1742V5.74457C16.0259 3.53082 14.7389 2.20898 12.5829 2.20898ZM12.4061 13.1849C12.7856 13.1849 13.0936 13.4929 13.0936 13.8724C13.0936 14.2519 12.7856 14.5599 12.4061 14.5599H5.78779C5.40829 14.5599 5.10029 14.2519 5.10029 13.8724C5.10029 13.4929 5.40829 13.1849 5.78779 13.1849H12.4061ZM12.4061 9.34725C12.7856 9.34725 13.0936 9.65525 13.0936 10.0348C13.0936 10.4143 12.7856 10.7223 12.4061 10.7223H5.78779C5.40829 10.7223 5.10029 10.4143 5.10029 10.0348C5.10029 9.65525 5.40829 9.34725 5.78779 9.34725H12.4061ZM8.31293 5.51852C8.69243 5.51852 9.00043 5.82652 9.00043 6.20602C9.00043 6.58552 8.69243 6.89352 8.31293 6.89352H5.78751C5.40801 6.89352 5.10001 6.58552 5.10001 6.20602C5.10001 5.82652 5.40801 5.51852 5.78751 5.51852H8.31293Z" fill="#0154A4"/>
</svg>
