<svg width="38" height="38" viewBox="0 0 38 38" fill="none" xmlns="http://www.w3.org/2000/svg">
<path d="M25.6357 3.1665C30.5267 3.1665 33.25 5.98484 33.25 10.814V27.1698C33.25 32.0782 30.5267 34.8332 25.6357 34.8332H12.3658C7.5525 34.8332 4.75 32.0782 4.75 27.1698V10.814C4.75 5.98484 7.5525 3.1665 12.3658 3.1665H25.6357ZM12.7933 24.9215C12.3183 24.874 11.8592 25.0957 11.6058 25.5073C11.3525 25.9032 11.3525 26.4257 11.6058 26.8373C11.8592 27.2332 12.3183 27.4707 12.7933 27.4073H25.2067C25.8384 27.344 26.315 26.8041 26.315 26.1723C26.315 25.5232 25.8384 24.9848 25.2067 24.9215H12.7933ZM25.2067 17.6999H12.7933C12.1109 17.6999 11.5583 18.2557 11.5583 18.9365C11.5583 19.6173 12.1109 20.1715 12.7933 20.1715H25.2067C25.8875 20.1715 26.4417 19.6173 26.4417 18.9365C26.4417 18.2557 25.8875 17.6999 25.2067 17.6999ZM17.5259 10.529H12.7933V10.5448C12.1109 10.5448 11.5583 11.099 11.5583 11.7798C11.5583 12.4607 12.1109 13.0148 12.7933 13.0148H17.5259C18.2083 13.0148 18.7625 12.4607 18.7625 11.7624C18.7625 11.0832 18.2083 10.529 17.5259 10.529Z" fill="#0154A4"/>
</svg>
