<svg width="26" height="26" viewBox="0 0 26 26" fill="none" xmlns="http://www.w3.org/2000/svg">
<path d="M25.5 13C25.5 19.9036 19.9036 25.5 13 25.5C6.09644 25.5 0.5 19.9036 0.5 13C0.5 6.09644 6.09644 0.5 13 0.5C19.9036 0.5 25.5 6.09644 25.5 13Z" fill="white" stroke="#E0EBF6"/>
<g clip-path="url(#clip0_5373_20706)">
<path d="M12.9588 9.16602H9.16717C8.87985 9.16602 8.6043 9.28015 8.40113 9.48332C8.19797 9.68648 8.08383 9.96203 8.08383 10.2493V17.8327C8.08383 18.12 8.19797 18.3956 8.40113 18.5987C8.6043 18.8019 8.87985 18.916 9.16717 18.916H16.7505C17.0378 18.916 17.3134 18.8019 17.5165 18.5987C17.7197 18.3956 17.8338 18.12 17.8338 17.8327V14.041" stroke="#0154A4" stroke-width="1.5" stroke-linecap="round" stroke-linejoin="round"/>
<path d="M17.0212 8.35413C17.2367 8.13864 17.5289 8.01758 17.8337 8.01758C18.1384 8.01758 18.4307 8.13864 18.6462 8.35413C18.8617 8.56962 18.9827 8.86188 18.9827 9.16663C18.9827 9.47137 18.8617 9.76364 18.6462 9.97913L13.5003 15.125L11.3337 15.6666L11.8753 13.5L17.0212 8.35413Z" stroke="#0154A4" stroke-width="1.5" stroke-linecap="round" stroke-linejoin="round"/>
</g>
<defs>
<clipPath id="clip0_5373_20706">
<rect width="13" height="13" fill="white" transform="translate(7.00034 7)"/>
</clipPath>
</defs>
</svg>
