<svg width="16" height="16" viewBox="0 0 16 16" fill="none" xmlns="http://www.w3.org/2000/svg">
<path fill-rule="evenodd" clip-rule="evenodd" d="M13.8333 13.6264C14.1093 13.6264 14.3333 13.8504 14.3333 14.1264C14.3333 14.4024 14.1093 14.6264 13.8333 14.6264H8.99799C8.72199 14.6264 8.49799 14.4024 8.49799 14.1264C8.49799 13.8504 8.72199 13.6264 8.99799 13.6264H13.8333ZM10.7439 2.43576C10.7772 2.46176 11.8925 3.32843 11.8925 3.32843C12.2979 3.56976 12.6145 4.0011 12.7345 4.51176C12.8539 5.0171 12.7672 5.53843 12.4892 5.97909C12.4873 5.98203 12.4855 5.98494 12.4791 5.99358L12.474 6.00025C12.4289 6.05972 12.2327 6.30776 11.2427 7.54815C11.2335 7.56441 11.2231 7.57963 11.2117 7.59443C11.195 7.61624 11.1769 7.63628 11.1575 7.65453C11.0899 7.73956 11.0186 7.8289 10.9436 7.92283L10.7917 8.11313C10.4781 8.50579 10.1062 8.97139 9.66505 9.52364L9.43862 9.80705C8.58684 10.8732 7.49596 12.2382 6.09852 13.9864C5.79252 14.3678 5.33386 14.5898 4.84119 14.5958L2.41519 14.6264H2.40852C2.17719 14.6264 1.97586 14.4678 1.92186 14.2418L1.37586 11.9278C1.26319 11.4484 1.37519 10.9538 1.68252 10.5698L7.96252 2.7151C7.96519 2.71243 7.96719 2.7091 7.96986 2.70643C8.65852 1.8831 9.90386 1.76176 10.7439 2.43576ZM7.26234 5.19133L2.46319 11.1944C2.34919 11.3371 2.30719 11.5211 2.34919 11.6978L2.80319 13.6211L4.82919 13.5958C5.02186 13.5938 5.19986 13.5078 5.31786 13.3611C5.92551 12.6008 6.68923 11.6452 7.47443 10.6627L7.75223 10.315L8.0305 9.96681C8.76689 9.04526 9.49438 8.13471 10.1031 7.37258L7.26234 5.19133ZM8.73986 3.34443L7.88701 4.41L10.7275 6.59062C11.2743 5.9058 11.6339 5.45476 11.6672 5.41176C11.7765 5.23443 11.8192 4.98376 11.7619 4.74243C11.7032 4.4951 11.5492 4.28509 11.3272 4.15109C11.2799 4.11843 10.1565 3.24643 10.1219 3.21909C9.69919 2.88043 9.08252 2.9391 8.73986 3.34443Z" fill="black"/>
</svg>
