<svg width="14" height="14" viewBox="0 0 14 14" fill="none" xmlns="http://www.w3.org/2000/svg">
<path d="M6.3675 2.26562H2.19278C1.87643 2.26563 1.57305 2.39129 1.34936 2.61498C1.12567 2.83867 1 3.14206 1 3.4584V11.8078C1 12.1242 1.12567 12.4276 1.34936 12.6513C1.57305 12.875 1.87643 13.0006 2.19278 13.0006H10.5422C10.8586 13.0006 11.162 12.875 11.3856 12.6513C11.6093 12.4276 11.735 12.1242 11.735 11.8078V7.63313" stroke="#0154A4" stroke-width="1.3" stroke-linecap="round" stroke-linejoin="round"/>
<path d="M10.8403 1.37055C11.0776 1.13329 11.3994 1 11.7349 1C12.0704 1 12.3922 1.13329 12.6295 1.37055C12.8668 1.60781 13 1.9296 13 2.26513C13 2.60067 12.8668 2.92246 12.6295 3.15972L6.9638 8.82541L4.57825 9.4218L5.17464 7.03624L10.8403 1.37055Z" stroke="#0154A4" stroke-width="1.3" stroke-linecap="round" stroke-linejoin="round"/>
</svg>
