<svg width="287" height="240" viewBox="0 0 287 240" fill="none" xmlns="http://www.w3.org/2000/svg">
<path d="M143 240C209.274 240 263 186.274 263 120C263 53.726 209.274 0 143 0C76.7255 0 22.9995 53.726 22.9995 120C22.9995 186.274 76.7255 240 143 240Z" fill="url(#paint0_linear_2262_15306)"/>
<path d="M97.9995 34.5566H190.536C199.373 34.5566 206.536 41.7196 206.536 50.5566V173.586C206.536 182.423 199.373 189.586 190.536 189.586H97.9995C89.1625 189.586 81.9995 182.423 81.9995 173.586V50.5566C81.9995 41.7196 89.1625 34.5566 97.9995 34.5566Z" fill="url(#paint1_linear_2262_15306)"/>
<path d="M97.8995 54.5566H138.1C140.806 54.5566 143 56.7506 143 59.4566C143 62.1626 140.806 64.3566 138.1 64.3566H97.8995C95.1935 64.3566 92.9995 62.1626 92.9995 59.4566C92.9995 56.7506 95.1935 54.5566 97.8995 54.5566Z" fill="#0154A4"/>
<path d="M97.8995 82.3555H188.1C190.806 82.3555 193 84.5495 193 87.2555C193 89.9615 190.806 92.1555 188.1 92.1555H97.8995C95.1935 92.1555 92.9995 89.9615 92.9995 87.2555C92.9995 84.5495 95.1935 82.3555 97.8995 82.3555Z" fill="#D5D5D5"/>
<path d="M97.8995 110.156H188.1C190.806 110.156 193 112.35 193 115.056C193 117.762 190.806 119.956 188.1 119.956H97.8995C95.1935 119.956 92.9995 117.762 92.9995 115.056C92.9995 112.35 95.1935 110.156 97.8995 110.156Z" fill="#D5D5D5"/>
<path d="M97.8995 137.955H188.1C190.806 137.955 193 140.149 193 142.855C193 145.561 190.806 147.755 188.1 147.755H97.8995C95.1935 147.755 92.9995 145.561 92.9995 142.855C92.9995 140.149 95.1935 137.955 97.8995 137.955Z" fill="#D5D5D5"/>
<path d="M97.8995 165.756H188.1C190.806 165.756 193 167.95 193 170.656C193 173.362 190.806 175.556 188.1 175.556H97.8995C95.1935 175.556 92.9995 173.362 92.9995 170.656C92.9995 167.95 95.1935 165.756 97.8995 165.756Z" fill="#D5D5D5"/>
<path d="M281.15 17.4238H221.069C218.27 17.4238 216 19.8118 216 22.7588V52.4778C216 55.4238 218.27 57.8128 221.069 57.8128H281.15C283.95 57.8128 286.219 55.4238 286.219 52.4778V22.7588C286.219 19.8118 283.95 17.4238 281.15 17.4238Z" fill="white"/>
<path d="M231 44C234.314 44 237 41.314 237 38C237 34.686 234.314 32 231 32C227.686 32 225 34.686 225 38C225 41.314 227.686 44 231 44Z" fill="#DBDBF9"/>
<path d="M251 32H271C274.314 32 277 34.686 277 38C277 41.314 274.314 44 271 44H251C247.686 44 245 41.314 245 38C245 34.686 247.686 32 251 32Z" fill="#DBDBF9"/>
<path fill-rule="evenodd" clip-rule="evenodd" d="M178.109 196.562C190.988 196.562 202.958 192.667 212.904 185.989L253.603 224.84L268.364 207.715L229.091 170.226C236.344 160.018 240.609 147.538 240.609 134.062C240.609 99.5455 212.626 71.5625 178.109 71.5625C143.591 71.5625 115.609 99.5455 115.609 134.062C115.609 168.581 143.591 196.562 178.109 196.562ZM231.418 134.062C231.418 163.286 207.727 186.976 178.504 186.976C149.281 186.976 125.591 163.286 125.591 134.062C125.591 104.84 149.281 81.1495 178.504 81.1495C207.727 81.1495 231.418 104.84 231.418 134.062Z" fill="#C7C7C7"/>
<path d="M178.5 188C208.6 188 233 163.823 233 134C233 104.177 208.6 80 178.5 80C148.4 80 124 104.177 124 134C124 163.823 148.4 188 178.5 188Z" fill="white" fill-opacity="0.3"/>
<path d="M187.922 134L201.111 120.862C202.347 119.562 203.024 117.835 202.998 116.047C202.973 114.259 202.247 112.552 200.975 111.287C199.703 110.023 197.985 109.301 196.186 109.276C194.387 109.251 192.649 109.923 191.341 111.151L178.123 124.289L164.934 111.151C164.299 110.484 163.536 109.95 162.69 109.58C161.844 109.211 160.932 109.014 160.008 109.001C159.084 108.988 158.167 109.159 157.311 109.504C156.455 109.85 155.677 110.362 155.023 111.012C154.37 111.661 153.854 112.434 153.507 113.285C153.159 114.136 152.987 115.048 153 115.967C153.013 116.885 153.211 117.791 153.583 118.632C153.954 119.473 154.492 120.231 155.164 120.862L168.375 134L155.164 147.138C154.492 147.769 153.954 148.527 153.583 149.368C153.211 150.209 153.013 151.115 153 152.033C152.987 152.952 153.159 153.863 153.507 154.715C153.854 155.566 154.37 156.339 155.023 156.988C155.677 157.637 156.455 158.15 157.311 158.496C158.167 158.841 159.084 159.012 160.008 158.999C160.932 158.986 161.844 158.789 162.69 158.42C163.536 158.05 164.299 157.516 164.934 156.849L178.152 143.711L191.371 156.849C192.691 158.004 194.404 158.616 196.163 158.559C197.921 158.503 199.591 157.782 200.833 156.544C202.075 155.305 202.795 153.643 202.847 151.896C202.899 150.148 202.278 148.446 201.111 147.138L187.922 134Z" fill="#0154A4"/>
<path d="M253.6 224.843L268.361 207.717L270.584 209.84C272.741 211.899 274.032 214.775 274.174 217.837C274.316 220.898 273.296 223.893 271.34 226.163C269.383 228.433 266.65 229.792 263.741 229.941C260.832 230.09 257.986 229.017 255.829 226.958L253.606 224.836L253.6 224.843Z" fill="#DBDBF9"/>
<path fill-rule="evenodd" clip-rule="evenodd" d="M49.3135 62.1723C49.2955 60.7463 49.1165 59.3073 48.7585 57.8593C47.5035 52.7773 41.9055 49.5143 35.9475 48.7473C29.9925 47.9803 23.7985 49.7263 21.4115 54.1473C20.0465 56.6743 19.8585 58.8523 20.4165 60.6893C20.9715 62.5163 22.2895 64.0303 24.0785 65.2113C29.0665 68.4983 37.8025 69.1693 41.7885 67.7953C43.6315 67.1583 45.4325 66.3913 47.1855 65.5133C46.1835 71.2593 42.4475 76.7023 37.4615 81.6073C26.6255 92.2683 9.8115 100.36 0.654497 103.335C0.162497 103.495 -0.110502 104.04 0.0424979 104.554C0.195498 105.068 0.718497 105.356 1.2105 105.196C10.5485 102.162 27.6905 93.8983 38.7405 83.0263C44.4495 77.4113 48.5165 71.0893 49.2115 64.4433C62.1165 57.2423 72.7135 44.1773 81.7745 33.1813C82.1115 32.7763 82.0665 32.1593 81.6755 31.8073C81.2845 31.4583 80.6965 31.5023 80.3595 31.9103C71.6675 42.4563 61.5805 55.0003 49.3135 62.1723ZM47.4375 63.2173C47.5085 61.6143 47.3575 59.9863 46.9505 58.3443C45.8655 53.9453 40.8775 51.3443 35.7195 50.6803C32.5585 50.2743 29.3075 50.6093 26.7575 51.7993C25.1545 52.5463 23.8345 53.6303 23.0385 55.1053C21.9935 57.0403 21.7675 58.6953 22.1955 60.0993C22.6245 61.5133 23.6885 62.6493 25.0745 63.5613C29.6205 66.5583 37.5745 67.1953 41.2025 65.9433C43.3415 65.2063 45.4185 64.2863 47.4375 63.2173Z" fill="#0154A4"/>
<path d="M278 161C281.313 161 284 158.314 284 155C284 151.686 281.313 149 278 149C274.686 149 272 151.686 272 155C272 158.314 274.686 161 278 161Z" fill="#DBDBF9"/>
<path fill-rule="evenodd" clip-rule="evenodd" d="M51.3835 196.394C52.4545 195.993 53.5815 195.459 54.4505 194.686C55.4825 193.769 55.9025 192.587 56.1835 191.343C56.5455 189.744 56.6905 188.042 57.1295 186.441C57.2915 185.846 57.6045 185.621 57.7385 185.522C58.0775 185.27 58.4205 185.202 58.7425 185.228C59.1245 185.257 59.6495 185.409 59.9955 186.083C60.0445 186.18 60.1084 186.327 60.1515 186.528C60.1825 186.676 60.2035 187.137 60.2365 187.328C60.3195 187.797 60.3885 188.266 60.4545 188.737C60.6715 190.306 60.7965 191.639 61.4825 193.081C62.4135 195.038 63.3465 196.235 64.6115 196.766C65.8355 197.279 67.2975 197.182 69.1665 196.78C69.3445 196.735 69.5205 196.696 69.6945 196.664C70.5185 196.513 71.3064 197.082 71.4685 197.946C71.6305 198.809 71.1064 199.65 70.2894 199.84C70.1194 199.88 69.9515 199.917 69.7855 199.952C67.2595 200.61 64.3355 202.958 62.6365 205.014C62.1135 205.648 61.3465 207.421 60.5645 208.551C59.9875 209.386 59.3385 209.935 58.7935 210.13C58.4285 210.261 58.1215 210.24 57.8675 210.174C57.4975 210.079 57.1915 209.868 56.9565 209.533C56.8285 209.35 56.7095 209.105 56.6525 208.791C56.6255 208.64 56.6224 208.257 56.6235 208.083C56.4635 207.506 56.2685 206.943 56.1265 206.361C55.7875 204.971 55.1224 204.092 54.3324 202.93C53.5934 201.843 52.7995 201.159 51.6355 200.614C51.4845 200.575 50.2625 200.26 49.8315 200.08C49.2015 199.815 48.9005 199.371 48.7915 199.132C48.6065 198.727 48.5875 198.373 48.6245 198.077C48.6795 197.641 48.8655 197.268 49.1955 196.967C49.3995 196.78 49.7045 196.598 50.1135 196.509C50.4285 196.44 51.2665 196.4 51.3835 196.394ZM58.5505 194.13C58.6065 194.263 58.6675 194.396 58.7315 194.531C60.0945 197.397 61.6195 198.998 63.4735 199.774L63.5355 199.799C62.2955 200.768 61.1725 201.851 60.3155 202.889C59.9615 203.317 59.4945 204.205 58.9885 205.115C58.5295 203.545 57.7795 202.435 56.8355 201.045C56.1135 199.985 55.3584 199.187 54.4294 198.537C55.1504 198.148 55.8375 197.692 56.4365 197.16C57.4335 196.273 58.0925 195.246 58.5505 194.13Z" fill="#DBDBF9"/>
<defs>
<linearGradient id="paint0_linear_2262_15306" x1="142.072" y1="-39.0749" x2="144.53" y2="382.347" gradientUnits="userSpaceOnUse">
<stop stop-color="#F2F2F2"/>
<stop offset="1" stop-color="#EFEFEF"/>
</linearGradient>
<linearGradient id="paint1_linear_2262_15306" x1="144.268" y1="34.5566" x2="144.268" y2="189.586" gradientUnits="userSpaceOnUse">
<stop stop-color="white"/>
<stop offset="0.7188" stop-color="#FAFAFA"/>
</linearGradient>
</defs>
</svg>
