<svg width="16" height="16" viewBox="0 0 16 16" fill="none" xmlns="http://www.w3.org/2000/svg">
<path fill-rule="evenodd" clip-rule="evenodd" d="M11.5919 9.13997C12.7359 9.13997 13.6666 10.066 13.6666 11.204C13.6666 12.342 12.7359 13.268 11.5919 13.268C10.4473 13.268 9.51593 12.342 9.51593 11.204C9.51593 10.066 10.4473 9.13997 11.5919 9.13997ZM11.5919 10.14C10.9986 10.14 10.5159 10.6173 10.5159 11.204C10.5159 11.7913 10.9986 12.268 11.5919 12.268C12.1846 12.268 12.6666 11.7913 12.6666 11.204C12.6666 10.6173 12.1846 10.14 11.5919 10.14ZM6.7202 10.7298C6.9962 10.7298 7.2202 10.9538 7.2202 11.2298C7.2202 11.5058 6.9962 11.7298 6.7202 11.7298H2.51953C2.24353 11.7298 2.01953 11.5058 2.01953 11.2298C2.01953 10.9538 2.24353 10.7298 2.51953 10.7298H6.7202ZM4.07533 2.66797C5.22 2.66797 6.15067 3.59464 6.15067 4.73264C6.15067 5.87064 5.22 6.79597 4.07533 6.79597C2.93133 6.79597 2 5.87064 2 4.73264C2 3.59464 2.93133 2.66797 4.07533 2.66797ZM4.07533 3.66797C3.48267 3.66797 3 4.1453 3 4.73264C3 5.3193 3.48267 5.79597 4.07533 5.79597C4.66867 5.79597 5.15067 5.3193 5.15067 4.73264C5.15067 4.1453 4.66867 3.66797 4.07533 3.66797ZM12.7941 4.26824C13.0701 4.26824 13.2941 4.49224 13.2941 4.76824C13.2941 5.04424 13.0701 5.26824 12.7941 5.26824H8.59407C8.31807 5.26824 8.09407 5.04424 8.09407 4.76824C8.09407 4.49224 8.31807 4.26824 8.59407 4.26824H12.7941Z" fill="#4E4E4E"/>
</svg>
