<svg width="34" height="34" viewBox="0 0 34 34" fill="none" xmlns="http://www.w3.org/2000/svg">
<g clip-path="url(#clip0_1279_19795)">
<path d="M25.8085 23.2629L20.1592 26.0608C19.96 25.2259 19.3312 24.5155 18.4507 24.2546L15.835 23.4793C13.9491 22.9186 11.4671 22.458 8.99426 23.8842C8.83734 23.9741 8.69683 24.0642 8.57278 24.1437C8.10269 24.445 7.81509 24.6282 6.99391 24.6334C6.73027 23.9842 6.09304 23.5252 5.35022 23.5252H2.67C1.6921 23.5252 0.896484 24.3204 0.896484 25.2979V31.5151C0.896484 32.4926 1.69203 33.2878 2.67 33.2878H5.35029C6.2892 33.2878 7.05958 32.5546 7.11955 31.631C8.22953 31.6463 8.95681 31.7301 10.463 32.1728C11.2913 32.4167 14.832 33.4466 15.1014 33.5248C15.9912 33.7828 16.739 33.9998 17.5184 33.9997C18.3985 33.9997 19.3189 33.723 20.5289 32.9165C20.5345 32.9128 20.5401 32.9089 20.5456 32.905L28.3243 27.3694C29.4281 26.5854 29.7491 25.1696 29.0716 24.0772C28.4058 23 27.0338 22.6574 25.8085 23.2629ZM5.79561 31.5151C5.79561 31.7603 5.59586 31.9598 5.35022 31.9598H2.67C2.42443 31.9598 2.22461 31.7603 2.22461 31.5151V25.2979C2.22461 25.0527 2.42436 24.8532 2.67 24.8532H5.35029C5.59586 24.8532 5.79567 25.0527 5.79567 25.2979L5.79561 31.5151ZM27.5547 26.2872L19.7839 31.8171C18.0221 32.9891 17.2742 32.7722 15.4714 32.2493C15.1984 32.1701 11.6655 31.1425 10.8378 30.8988C9.2231 30.4242 8.42529 30.3226 7.12373 30.3037V25.9596C8.24726 25.9293 8.77691 25.5903 9.28944 25.2619C9.40591 25.1872 9.52631 25.11 9.65633 25.0355C11.2664 24.107 13.0009 24.0223 15.4571 24.7525L18.0733 25.528C18.6787 25.7073 19.0282 26.3431 18.853 26.9456C18.8527 26.9466 18.8524 26.9476 18.8521 26.9485C18.6752 27.5512 18.0381 27.8982 17.4316 27.7226L13.6908 26.6384C13.3384 26.5362 12.9701 26.739 12.8681 27.0913C12.766 27.4435 12.9688 27.8119 13.3211 27.914L17.0619 28.9982C18.27 29.3483 19.535 28.7335 20.0222 27.6105L26.3973 24.4532C26.9093 24.2001 27.6043 24.2295 27.9423 24.7763C28.2456 25.2653 28.0791 25.9147 27.5547 26.2872Z" fill="#0154A4"/>
<path d="M14.3334 15.2091L17.0833 17.8613C17.212 17.9853 17.3781 18.0474 17.5443 18.0474C17.7105 18.0474 17.8767 17.9853 18.0053 17.8613L20.7553 15.2091C20.761 15.2036 20.7667 15.1979 20.7722 15.1922C21.7743 14.1533 21.7743 12.4629 20.7715 11.4234C19.9392 10.5631 18.5289 10.5327 17.5435 11.3249C16.5586 10.532 15.148 10.5622 14.3169 11.4235C13.312 12.4627 13.312 14.1536 14.3169 15.1928C14.3224 15.1983 14.3278 15.2037 14.3334 15.2091ZM15.2723 12.3461C15.6908 11.9124 16.3829 12.0484 16.7841 12.423L16.8103 12.4476C17.0078 12.6324 17.212 12.8235 17.5441 12.8235C17.8774 12.8235 18.0811 12.6317 18.2782 12.4463L18.3027 12.4231C18.7041 12.0484 19.3971 11.9128 19.8164 12.3461C20.3169 12.865 20.3194 13.74 19.8238 14.2624L17.5444 16.4608L15.2646 14.2621C14.7591 13.7313 14.7616 12.8743 15.2723 12.3461Z" fill="#0154A4"/>
<path d="M2.64746 15.0615H6.23938C6.60614 15.0615 6.90344 14.7642 6.90344 14.3975C6.90344 14.0307 6.60614 13.7334 6.23938 13.7334H2.64746C2.2807 13.7334 1.9834 14.0307 1.9834 14.3975C1.9834 14.7642 2.2807 15.0615 2.64746 15.0615Z" fill="#0154A4"/>
<path d="M2.83442 10.5822L5.94987 12.1031C6.0437 12.1489 6.14298 12.1706 6.24073 12.1706C6.48657 12.1706 6.72284 12.0335 6.83799 11.7977C6.99889 11.4681 6.86216 11.0706 6.53259 10.9097L3.41714 9.38876C3.08743 9.22786 2.68992 9.36459 2.52902 9.69416C2.36812 10.0237 2.50485 10.4213 2.83442 10.5822Z" fill="#0154A4"/>
<path d="M5.94975 16.6925L2.8343 18.2134C2.50473 18.3743 2.368 18.7719 2.5289 19.1015C2.64398 19.3373 2.88025 19.4743 3.12616 19.4743C3.22391 19.4743 3.32325 19.4526 3.41701 19.4069L6.53246 17.886C6.86204 17.7251 6.99877 17.3275 6.83787 16.9979C6.6769 16.6683 6.27932 16.5315 5.94975 16.6925Z" fill="#0154A4"/>
<path d="M32.4396 13.7334H28.8477C28.481 13.7334 28.1836 14.0307 28.1836 14.3975C28.1836 14.7642 28.481 15.0615 28.8477 15.0615H32.4396C32.8063 15.0615 33.1036 14.7642 33.1036 14.3975C33.1036 14.0307 32.8063 13.7334 32.4396 13.7334Z" fill="#0154A4"/>
<path d="M28.8483 12.1706C28.9461 12.1706 29.0455 12.1489 29.1393 12.103L32.2528 10.5821C32.5823 10.4212 32.719 10.0235 32.558 9.69402C32.397 9.36451 31.9996 9.22785 31.6699 9.38882L28.5563 10.9097C28.2268 11.0707 28.0902 11.4683 28.2511 11.7978C28.3663 12.0335 28.6025 12.1706 28.8483 12.1706Z" fill="#0154A4"/>
<path d="M32.2528 18.2134L29.1393 16.6925C28.8096 16.5315 28.4121 16.6683 28.2511 16.9977C28.0902 17.3272 28.2268 17.7249 28.5563 17.8858L31.6699 19.4067C31.7637 19.4526 31.863 19.4743 31.9608 19.4743C32.2066 19.4743 32.4429 19.3372 32.558 19.1015C32.7189 18.772 32.5823 18.3744 32.2528 18.2134Z" fill="#0154A4"/>
<path d="M9.14638 9.13397V18.8455C9.14638 20.1022 10.1692 21.1246 11.4265 21.1246H23.662C24.9183 21.1246 25.9403 20.1022 25.9403 18.8455V9.1343C26.9439 8.95062 27.7071 8.07067 27.7071 7.01534V6.07231C27.7071 4.8841 26.74 3.91749 25.5512 3.91749H24.1756C24.3332 3.33013 24.2929 2.69595 24.0426 2.07379C23.5945 0.959423 22.5646 0.132001 21.4798 0.0149271C20.4977 -0.0909244 19.6032 0.369868 18.9613 1.31343L17.5439 3.40012L16.1251 1.3133C15.4842 0.370267 14.5906 -0.0906588 13.6084 0.0147943C12.5231 0.131603 11.4927 0.959025 11.0442 2.07385C10.7939 2.69601 10.7535 3.33013 10.911 3.91742H9.53725C8.34851 3.91742 7.38144 4.88403 7.38144 6.07224V7.01528C7.38151 8.07001 8.14378 8.94956 9.14638 9.13397ZM20.0599 2.06004C20.4226 1.52686 20.8529 1.28282 21.3373 1.33535C21.9387 1.40023 22.5444 1.90764 22.8105 2.56924C22.9269 2.85851 23.0542 3.38677 22.7507 3.91749H18.7982L20.0599 2.06004ZM12.2765 2.56958C12.5429 1.90757 13.149 1.40003 13.7507 1.33528C14.2352 1.28295 14.6647 1.52693 15.0269 2.05991L16.2899 3.91749H12.3362C12.0328 3.3869 12.1602 2.85877 12.2765 2.56958ZM8.70963 6.07231C8.70963 5.61643 9.08091 5.24561 9.53732 5.24561H25.5513C26.0077 5.24561 26.379 5.61649 26.379 6.07231V7.01534C26.379 7.47122 26.0077 7.84203 25.5513 7.84203H17.5443C17.1776 7.84203 16.8803 8.13933 16.8803 8.50609C16.8803 8.87286 17.1776 9.17016 17.5443 9.17016H24.6123V18.8456C24.6123 19.37 24.186 19.7966 23.6621 19.7966H11.4266C10.9016 19.7966 10.4746 19.37 10.4746 18.8456V9.17016H11.4794C11.8461 9.17016 12.1434 8.87286 12.1434 8.50609C12.1434 8.13933 11.8461 7.84203 11.4794 7.84203H9.53738C9.08097 7.84203 8.7097 7.47115 8.7097 7.01534V6.07231H8.70963Z" fill="#0154A4"/>
<path d="M14.4629 9.16992C14.8296 9.16992 15.1269 8.87262 15.1269 8.50586C15.1269 8.1391 14.8296 7.8418 14.4629 7.8418H14.461C14.0943 7.8418 13.7979 8.1391 13.7979 8.50586C13.7978 8.87262 14.0961 9.16992 14.4629 9.16992Z" fill="#0154A4"/>
</g>
<defs>
<clipPath id="clip0_1279_19795">
<rect width="34" height="34" fill="white"/>
</clipPath>
</defs>
</svg>
