<svg width="20" height="20" viewBox="0 0 20 20" fill="none" xmlns="http://www.w3.org/2000/svg">
<path d="M7.61199 17.3114V14.7633C7.61199 14.1129 8.14315 13.5856 8.79837 13.5856H11.1935C11.5082 13.5856 11.8099 13.7097 12.0324 13.9305C12.2549 14.1514 12.3799 14.451 12.3799 14.7633V17.3114C12.3779 17.5819 12.4847 17.8419 12.6767 18.0338C12.8686 18.2257 13.1297 18.3337 13.4021 18.3337H15.0362C15.7994 18.3356 16.532 18.036 17.0723 17.501C17.6127 16.966 17.9163 16.2395 17.9163 15.4818V8.22271C17.9163 7.61071 17.6431 7.03019 17.1702 6.63755L11.6114 2.23022C10.6444 1.45746 9.25894 1.48241 8.32083 2.28947L2.88885 6.63755C2.39363 7.01862 2.09763 7.60086 2.08301 8.22271V15.4744C2.08301 17.0535 3.37249 18.3337 4.96315 18.3337H6.55992C7.1257 18.3337 7.58551 17.8805 7.58961 17.3189L7.61199 17.3114Z" fill="#0154A4"/>
</svg>
