<svg width="20" height="20" viewBox="0 0 20 20" fill="none" xmlns="http://www.w3.org/2000/svg">
<path fill-rule="evenodd" clip-rule="evenodd" d="M11.4302 12.7434C12.4335 12.7434 13.2502 13.5542 13.2502 14.5509V17.1142C13.2502 17.3284 13.4219 17.5 13.6418 17.505H15.2302C16.4818 17.505 17.4993 16.5 17.4993 15.265V7.99503C17.4935 7.57003 17.291 7.17003 16.9435 6.90419L11.4494 2.52253C10.7119 1.93836 9.68018 1.93836 8.94018 2.52419L3.48352 6.90253C3.12268 7.17669 2.92018 7.57669 2.91602 8.00919V15.265C2.91602 16.5 3.93352 17.505 5.18518 17.505H6.78852C7.01435 17.505 7.19768 17.3259 7.19768 17.1059C7.19768 17.0575 7.20352 17.0092 7.21352 16.9634V14.5509C7.21352 13.56 8.02518 12.75 9.02102 12.7434H11.4302ZM15.2302 18.755H13.6269C12.7085 18.7334 12.0002 18.0125 12.0002 17.1142V14.5509C12.0002 14.2434 11.7443 13.9934 11.4302 13.9934H9.02518C8.71768 13.995 8.46352 14.2459 8.46352 14.5509V17.1059C8.46352 17.1684 8.45518 17.2284 8.43768 17.285C8.34768 18.11 7.64268 18.755 6.78852 18.755H5.18518C3.24435 18.755 1.66602 17.1892 1.66602 15.265V8.00336C1.67435 7.17503 2.05602 6.41669 2.71518 5.91753L8.16102 1.54669C9.36018 0.596693 11.031 0.596693 12.2277 1.54503L17.7127 5.92003C18.3568 6.41086 18.7385 7.16753 18.7493 7.98586V15.265C18.7493 17.1892 17.171 18.755 15.2302 18.755Z" fill="#4E4E4E"/>
</svg>
