<svg width="32" height="32" viewBox="0 0 32 32" fill="none" xmlns="http://www.w3.org/2000/svg">
<mask id="path-1-outside-1_1602_11142" maskUnits="userSpaceOnUse" x="0.67041" y="2.73242" width="30" height="26" fill="black">
<rect fill="white" x="0.67041" y="2.73242" width="30" height="26"/>
<path fill-rule="evenodd" clip-rule="evenodd" d="M22.1081 22.0526C22.1048 22.0509 22.1023 22.0493 22.0982 22.0476L16.1881 19.3392C15.937 19.1616 15.7874 18.8741 15.7874 18.5634V17.624C17.1581 16.7176 18.0497 15.1618 18.1281 13.5176C18.129 13.5102 18.129 13.5019 18.129 13.4945L18.1091 12.6137C18.9362 11.7387 19.5774 9.81196 19.2617 7.94302C19.0709 6.80943 18.4471 5.28255 16.5641 4.4497C15.0942 3.79946 13.4682 3.58546 11.8612 3.83168C10.6169 4.02337 9.58655 4.40013 8.8008 4.95205C7.73579 5.69979 7.14833 6.74498 7.0558 8.06034C6.78231 8.60979 6.21221 10.7316 8.29845 12.5592L8.3158 13.5069V13.5168C8.37694 14.7867 8.91317 15.9996 9.82698 16.9357C10.0765 17.1853 10.3376 17.4026 10.6045 17.5852V18.5568C10.6045 18.8675 10.4549 19.1558 10.2037 19.3335L4.2937 22.041C4.29039 22.0427 4.28709 22.0443 4.28378 22.046C2.69577 22.8433 1.67041 24.5412 1.67041 26.3697V28.0263C1.67041 28.208 1.81748 28.3551 1.99925 28.3551H5.4843C5.50496 28.3592 5.52561 28.3617 5.54709 28.3617C5.56858 28.3617 5.58923 28.3592 5.60989 28.3551H11.7645C11.767 28.3551 11.7686 28.3568 11.7703 28.3568C11.7893 28.3601 11.8083 28.3617 11.8273 28.3617C11.8488 28.3617 11.8703 28.3592 11.8917 28.3551H14.482C14.5026 28.3592 14.5241 28.3617 14.5464 28.3617C14.5629 28.3617 14.5803 28.3601 14.5977 28.3568C14.601 28.3559 14.6034 28.3551 14.6067 28.3543H20.7845C20.8051 28.3584 20.8258 28.3609 20.8473 28.3609C20.8688 28.3609 20.8894 28.3584 20.9101 28.3543H24.3951C24.5761 28.3543 24.724 28.2072 24.724 28.0254V26.3688C24.7223 24.5412 23.6961 22.8466 22.1081 22.0526ZM11.8141 22.1823L10.887 22.8342C10.8804 22.8392 10.8746 22.8433 10.8689 22.8483C10.8589 22.8565 10.8499 22.8565 10.8449 22.8549C10.8399 22.854 10.8391 22.8516 10.8366 22.8483C10.8317 22.8383 10.8267 22.8284 10.8201 22.8177L9.34859 20.4464L10.3285 19.9978L12.6271 21.6097L11.8546 22.1534C11.8405 22.1625 11.8265 22.1716 11.8141 22.1823ZM11.2613 17.9636C11.8785 18.2561 12.5469 18.4097 13.222 18.4097C13.8747 18.4097 14.5249 18.2651 15.1306 17.9892V18.5642C15.1306 18.9451 15.2644 19.3062 15.5007 19.5904L13.1997 21.209L10.8887 19.5879C11.1266 19.3029 11.2621 18.9402 11.2621 18.5576V17.9636H11.2613ZM12.8064 24.3644H13.6326L14.1597 27.6982H12.2189L12.8064 24.3644ZM13.6681 23.7075H12.7725L12.4147 22.564L13.2005 22.0121L14.0028 22.5748L13.6681 23.7075ZM13.7714 21.6097L16.0568 20.0027L17.045 20.4555L15.5833 22.8193C15.5776 22.8293 15.5718 22.8383 15.5676 22.8491C15.566 22.8516 15.5652 22.854 15.5594 22.8557C15.5536 22.8565 15.5453 22.8565 15.5354 22.8491C15.5296 22.8441 15.5239 22.8392 15.5164 22.835L13.7714 21.6097ZM7.64986 8.34043C7.68373 8.29169 7.70356 8.23385 7.70687 8.17354C7.84898 5.64278 10.0988 4.76946 11.9611 4.48193C13.4434 4.25471 14.943 4.45136 16.298 5.0512C17.9141 5.76672 18.4495 7.07878 18.614 8.05291C18.8214 9.28069 18.5429 10.6159 18.0844 11.5024L18.0571 10.3093C18.0563 10.1705 17.9959 10.04 17.8918 9.94994C17.791 9.86236 17.658 9.82187 17.5258 9.83674C16.5781 9.90945 15.737 8.80065 15.5767 8.57756C15.5734 8.57261 15.5701 8.56765 15.566 8.56269C15.4024 8.35779 15.1107 8.3173 14.9009 8.46933C12.7204 10.054 9.67991 9.91771 8.79089 9.83674C8.65869 9.82104 8.52732 9.86153 8.42569 9.94994C8.31828 10.0433 8.25714 10.178 8.25714 10.3201V10.3267L8.2811 11.6164C6.88807 10.0144 7.61185 8.41975 7.64986 8.34043ZM8.97266 13.492L8.9173 10.5068C10.0269 10.5861 12.9336 10.62 15.1471 9.10057C15.5015 9.55995 16.3451 10.482 17.4044 10.4977L17.4721 13.4986C17.3969 14.9817 16.5657 16.3805 15.2999 17.1563C15.2892 17.1621 15.2785 17.1687 15.2677 17.1753C14.6373 17.5529 13.9301 17.7521 13.2211 17.7521C12.5056 17.7521 11.7975 17.5505 11.168 17.1679C11.1324 17.1316 11.0886 17.1043 11.0391 17.0869C10.7829 16.9192 10.5318 16.7135 10.293 16.4747C9.49566 15.6584 9.02719 14.5991 8.97266 13.492ZM2.32644 26.3705C2.32644 24.7891 3.20803 23.3242 4.57297 22.6359L8.74709 20.7232L10.255 23.1531C10.3467 23.3291 10.5086 23.4539 10.7036 23.4969C10.7524 23.5076 10.8019 23.5125 10.8523 23.5125C11.0035 23.5125 11.1514 23.4622 11.2745 23.3663L11.8513 22.9606L12.195 24.057L11.553 27.6974H5.87511V26.1738C5.87511 25.9921 5.72804 25.845 5.54627 25.845C5.36532 25.845 5.21825 25.9921 5.21825 26.1738V27.6974H2.32644V26.3705ZM24.0655 27.6982H21.1736V26.1747C21.1736 25.9929 21.0274 25.8458 20.8456 25.8458C20.6639 25.8458 20.5168 25.9929 20.5168 26.1747V27.6982H14.8249L14.249 24.0579L14.5687 22.973L15.1306 23.3671C15.2529 23.4638 15.4016 23.5134 15.5528 23.5134C15.6023 23.5134 15.6519 23.5084 15.7007 23.4977C15.8948 23.4539 16.0576 23.3291 16.1493 23.154L17.6456 20.7323L21.8181 22.6442C23.1822 23.3283 24.0646 24.7907 24.0646 26.3713L24.0655 27.6982ZM29.9838 10.6448C29.7342 10.392 29.3996 10.2523 29.0435 10.2523H21.7066C20.9753 10.2523 20.3796 10.8481 20.3796 11.5793V17.3249C20.3796 18.0561 20.9753 18.651 21.7066 18.651H21.8602V20.0705C21.8602 20.2605 21.9743 20.4307 22.1494 20.5034C22.2073 20.5282 22.2684 20.5389 22.3295 20.5389C22.4518 20.5389 22.5724 20.491 22.6625 20.4001L24.4116 18.6502H29.0361C29.7681 18.6502 30.363 18.0553 30.363 17.3241V11.5834V11.5553C30.3605 11.2116 30.2267 10.8894 29.9838 10.6448ZM29.7061 17.3249C29.7061 17.6942 29.4062 17.9941 29.0369 17.9941H24.3802C24.2249 17.9941 24.0778 18.0561 23.9655 18.1676L22.5179 19.616V18.5832C22.5179 18.2577 22.2535 17.9941 21.9288 17.9941H21.7066C21.3372 17.9941 21.0373 17.6934 21.0373 17.3249V11.5793C21.0373 11.2099 21.3381 10.91 21.7074 10.91H29.0443C29.2245 10.91 29.3922 10.9802 29.5178 11.1075C29.6425 11.2331 29.7094 11.3991 29.707 11.5801L29.7061 17.3249ZM25.1065 12.3683V16.5424C25.1065 16.7242 24.9594 16.8713 24.7777 16.8713C24.5967 16.8713 24.4488 16.7242 24.4488 16.5424V14.7842H22.6997V16.5424C22.6997 16.7242 22.5526 16.8713 22.3708 16.8713C22.1891 16.8713 22.042 16.7242 22.042 16.5424V14.4562C22.042 14.4562 22.042 14.4562 22.042 14.4554C22.042 14.4554 22.042 14.4554 22.042 14.4546V12.3683C22.042 12.1865 22.1891 12.0395 22.37 12.0395C22.5518 12.0395 22.6989 12.1865 22.6989 12.3683V14.1265H24.448V12.3683C24.448 12.1865 24.5951 12.0395 24.7768 12.0395C24.9594 12.0395 25.1065 12.1865 25.1065 12.3683ZM28.6998 13.4119C28.6998 12.655 28.0843 12.0395 27.3282 12.0395H26.1872C26.0054 12.0395 25.8584 12.1865 25.8584 12.3683V16.5424C25.8584 16.7242 26.0054 16.8713 26.1872 16.8713C26.369 16.8713 26.5161 16.7242 26.5161 16.5424V14.7842H27.1258L28.0785 16.6895C28.1363 16.8044 28.252 16.8713 28.3726 16.8713C28.4214 16.8713 28.4718 16.8605 28.5188 16.8366C28.6808 16.7556 28.7469 16.5581 28.6659 16.3954L27.8149 14.6933C28.3313 14.4959 28.6998 13.9968 28.6998 13.4119ZM27.3282 14.1265H26.5152V12.6963H27.3282C27.7224 12.6963 28.0429 13.0177 28.0429 13.4119C28.0429 13.806 27.7232 14.1265 27.3282 14.1265Z"/>
</mask>
<path fill-rule="evenodd" clip-rule="evenodd" d="M22.1081 22.0526C22.1048 22.0509 22.1023 22.0493 22.0982 22.0476L16.1881 19.3392C15.937 19.1616 15.7874 18.8741 15.7874 18.5634V17.624C17.1581 16.7176 18.0497 15.1618 18.1281 13.5176C18.129 13.5102 18.129 13.5019 18.129 13.4945L18.1091 12.6137C18.9362 11.7387 19.5774 9.81196 19.2617 7.94302C19.0709 6.80943 18.4471 5.28255 16.5641 4.4497C15.0942 3.79946 13.4682 3.58546 11.8612 3.83168C10.6169 4.02337 9.58655 4.40013 8.8008 4.95205C7.73579 5.69979 7.14833 6.74498 7.0558 8.06034C6.78231 8.60979 6.21221 10.7316 8.29845 12.5592L8.3158 13.5069V13.5168C8.37694 14.7867 8.91317 15.9996 9.82698 16.9357C10.0765 17.1853 10.3376 17.4026 10.6045 17.5852V18.5568C10.6045 18.8675 10.4549 19.1558 10.2037 19.3335L4.2937 22.041C4.29039 22.0427 4.28709 22.0443 4.28378 22.046C2.69577 22.8433 1.67041 24.5412 1.67041 26.3697V28.0263C1.67041 28.208 1.81748 28.3551 1.99925 28.3551H5.4843C5.50496 28.3592 5.52561 28.3617 5.54709 28.3617C5.56858 28.3617 5.58923 28.3592 5.60989 28.3551H11.7645C11.767 28.3551 11.7686 28.3568 11.7703 28.3568C11.7893 28.3601 11.8083 28.3617 11.8273 28.3617C11.8488 28.3617 11.8703 28.3592 11.8917 28.3551H14.482C14.5026 28.3592 14.5241 28.3617 14.5464 28.3617C14.5629 28.3617 14.5803 28.3601 14.5977 28.3568C14.601 28.3559 14.6034 28.3551 14.6067 28.3543H20.7845C20.8051 28.3584 20.8258 28.3609 20.8473 28.3609C20.8688 28.3609 20.8894 28.3584 20.9101 28.3543H24.3951C24.5761 28.3543 24.724 28.2072 24.724 28.0254V26.3688C24.7223 24.5412 23.6961 22.8466 22.1081 22.0526ZM11.8141 22.1823L10.887 22.8342C10.8804 22.8392 10.8746 22.8433 10.8689 22.8483C10.8589 22.8565 10.8499 22.8565 10.8449 22.8549C10.8399 22.854 10.8391 22.8516 10.8366 22.8483C10.8317 22.8383 10.8267 22.8284 10.8201 22.8177L9.34859 20.4464L10.3285 19.9978L12.6271 21.6097L11.8546 22.1534C11.8405 22.1625 11.8265 22.1716 11.8141 22.1823ZM11.2613 17.9636C11.8785 18.2561 12.5469 18.4097 13.222 18.4097C13.8747 18.4097 14.5249 18.2651 15.1306 17.9892V18.5642C15.1306 18.9451 15.2644 19.3062 15.5007 19.5904L13.1997 21.209L10.8887 19.5879C11.1266 19.3029 11.2621 18.9402 11.2621 18.5576V17.9636H11.2613ZM12.8064 24.3644H13.6326L14.1597 27.6982H12.2189L12.8064 24.3644ZM13.6681 23.7075H12.7725L12.4147 22.564L13.2005 22.0121L14.0028 22.5748L13.6681 23.7075ZM13.7714 21.6097L16.0568 20.0027L17.045 20.4555L15.5833 22.8193C15.5776 22.8293 15.5718 22.8383 15.5676 22.8491C15.566 22.8516 15.5652 22.854 15.5594 22.8557C15.5536 22.8565 15.5453 22.8565 15.5354 22.8491C15.5296 22.8441 15.5239 22.8392 15.5164 22.835L13.7714 21.6097ZM7.64986 8.34043C7.68373 8.29169 7.70356 8.23385 7.70687 8.17354C7.84898 5.64278 10.0988 4.76946 11.9611 4.48193C13.4434 4.25471 14.943 4.45136 16.298 5.0512C17.9141 5.76672 18.4495 7.07878 18.614 8.05291C18.8214 9.28069 18.5429 10.6159 18.0844 11.5024L18.0571 10.3093C18.0563 10.1705 17.9959 10.04 17.8918 9.94994C17.791 9.86236 17.658 9.82187 17.5258 9.83674C16.5781 9.90945 15.737 8.80065 15.5767 8.57756C15.5734 8.57261 15.5701 8.56765 15.566 8.56269C15.4024 8.35779 15.1107 8.3173 14.9009 8.46933C12.7204 10.054 9.67991 9.91771 8.79089 9.83674C8.65869 9.82104 8.52732 9.86153 8.42569 9.94994C8.31828 10.0433 8.25714 10.178 8.25714 10.3201V10.3267L8.2811 11.6164C6.88807 10.0144 7.61185 8.41975 7.64986 8.34043ZM8.97266 13.492L8.9173 10.5068C10.0269 10.5861 12.9336 10.62 15.1471 9.10057C15.5015 9.55995 16.3451 10.482 17.4044 10.4977L17.4721 13.4986C17.3969 14.9817 16.5657 16.3805 15.2999 17.1563C15.2892 17.1621 15.2785 17.1687 15.2677 17.1753C14.6373 17.5529 13.9301 17.7521 13.2211 17.7521C12.5056 17.7521 11.7975 17.5505 11.168 17.1679C11.1324 17.1316 11.0886 17.1043 11.0391 17.0869C10.7829 16.9192 10.5318 16.7135 10.293 16.4747C9.49566 15.6584 9.02719 14.5991 8.97266 13.492ZM2.32644 26.3705C2.32644 24.7891 3.20803 23.3242 4.57297 22.6359L8.74709 20.7232L10.255 23.1531C10.3467 23.3291 10.5086 23.4539 10.7036 23.4969C10.7524 23.5076 10.8019 23.5125 10.8523 23.5125C11.0035 23.5125 11.1514 23.4622 11.2745 23.3663L11.8513 22.9606L12.195 24.057L11.553 27.6974H5.87511V26.1738C5.87511 25.9921 5.72804 25.845 5.54627 25.845C5.36532 25.845 5.21825 25.9921 5.21825 26.1738V27.6974H2.32644V26.3705ZM24.0655 27.6982H21.1736V26.1747C21.1736 25.9929 21.0274 25.8458 20.8456 25.8458C20.6639 25.8458 20.5168 25.9929 20.5168 26.1747V27.6982H14.8249L14.249 24.0579L14.5687 22.973L15.1306 23.3671C15.2529 23.4638 15.4016 23.5134 15.5528 23.5134C15.6023 23.5134 15.6519 23.5084 15.7007 23.4977C15.8948 23.4539 16.0576 23.3291 16.1493 23.154L17.6456 20.7323L21.8181 22.6442C23.1822 23.3283 24.0646 24.7907 24.0646 26.3713L24.0655 27.6982ZM29.9838 10.6448C29.7342 10.392 29.3996 10.2523 29.0435 10.2523H21.7066C20.9753 10.2523 20.3796 10.8481 20.3796 11.5793V17.3249C20.3796 18.0561 20.9753 18.651 21.7066 18.651H21.8602V20.0705C21.8602 20.2605 21.9743 20.4307 22.1494 20.5034C22.2073 20.5282 22.2684 20.5389 22.3295 20.5389C22.4518 20.5389 22.5724 20.491 22.6625 20.4001L24.4116 18.6502H29.0361C29.7681 18.6502 30.363 18.0553 30.363 17.3241V11.5834V11.5553C30.3605 11.2116 30.2267 10.8894 29.9838 10.6448ZM29.7061 17.3249C29.7061 17.6942 29.4062 17.9941 29.0369 17.9941H24.3802C24.2249 17.9941 24.0778 18.0561 23.9655 18.1676L22.5179 19.616V18.5832C22.5179 18.2577 22.2535 17.9941 21.9288 17.9941H21.7066C21.3372 17.9941 21.0373 17.6934 21.0373 17.3249V11.5793C21.0373 11.2099 21.3381 10.91 21.7074 10.91H29.0443C29.2245 10.91 29.3922 10.9802 29.5178 11.1075C29.6425 11.2331 29.7094 11.3991 29.707 11.5801L29.7061 17.3249ZM25.1065 12.3683V16.5424C25.1065 16.7242 24.9594 16.8713 24.7777 16.8713C24.5967 16.8713 24.4488 16.7242 24.4488 16.5424V14.7842H22.6997V16.5424C22.6997 16.7242 22.5526 16.8713 22.3708 16.8713C22.1891 16.8713 22.042 16.7242 22.042 16.5424V14.4562C22.042 14.4562 22.042 14.4562 22.042 14.4554C22.042 14.4554 22.042 14.4554 22.042 14.4546V12.3683C22.042 12.1865 22.1891 12.0395 22.37 12.0395C22.5518 12.0395 22.6989 12.1865 22.6989 12.3683V14.1265H24.448V12.3683C24.448 12.1865 24.5951 12.0395 24.7768 12.0395C24.9594 12.0395 25.1065 12.1865 25.1065 12.3683ZM28.6998 13.4119C28.6998 12.655 28.0843 12.0395 27.3282 12.0395H26.1872C26.0054 12.0395 25.8584 12.1865 25.8584 12.3683V16.5424C25.8584 16.7242 26.0054 16.8713 26.1872 16.8713C26.369 16.8713 26.5161 16.7242 26.5161 16.5424V14.7842H27.1258L28.0785 16.6895C28.1363 16.8044 28.252 16.8713 28.3726 16.8713C28.4214 16.8713 28.4718 16.8605 28.5188 16.8366C28.6808 16.7556 28.7469 16.5581 28.6659 16.3954L27.8149 14.6933C28.3313 14.4959 28.6998 13.9968 28.6998 13.4119ZM27.3282 14.1265H26.5152V12.6963H27.3282C27.7224 12.6963 28.0429 13.0177 28.0429 13.4119C28.0429 13.806 27.7232 14.1265 27.3282 14.1265Z" fill="#0154A4"/>
<path fill-rule="evenodd" clip-rule="evenodd" d="M22.1081 22.0526C22.1048 22.0509 22.1023 22.0493 22.0982 22.0476L16.1881 19.3392C15.937 19.1616 15.7874 18.8741 15.7874 18.5634V17.624C17.1581 16.7176 18.0497 15.1618 18.1281 13.5176C18.129 13.5102 18.129 13.5019 18.129 13.4945L18.1091 12.6137C18.9362 11.7387 19.5774 9.81196 19.2617 7.94302C19.0709 6.80943 18.4471 5.28255 16.5641 4.4497C15.0942 3.79946 13.4682 3.58546 11.8612 3.83168C10.6169 4.02337 9.58655 4.40013 8.8008 4.95205C7.73579 5.69979 7.14833 6.74498 7.0558 8.06034C6.78231 8.60979 6.21221 10.7316 8.29845 12.5592L8.3158 13.5069V13.5168C8.37694 14.7867 8.91317 15.9996 9.82698 16.9357C10.0765 17.1853 10.3376 17.4026 10.6045 17.5852V18.5568C10.6045 18.8675 10.4549 19.1558 10.2037 19.3335L4.2937 22.041C4.29039 22.0427 4.28709 22.0443 4.28378 22.046C2.69577 22.8433 1.67041 24.5412 1.67041 26.3697V28.0263C1.67041 28.208 1.81748 28.3551 1.99925 28.3551H5.4843C5.50496 28.3592 5.52561 28.3617 5.54709 28.3617C5.56858 28.3617 5.58923 28.3592 5.60989 28.3551H11.7645C11.767 28.3551 11.7686 28.3568 11.7703 28.3568C11.7893 28.3601 11.8083 28.3617 11.8273 28.3617C11.8488 28.3617 11.8703 28.3592 11.8917 28.3551H14.482C14.5026 28.3592 14.5241 28.3617 14.5464 28.3617C14.5629 28.3617 14.5803 28.3601 14.5977 28.3568C14.601 28.3559 14.6034 28.3551 14.6067 28.3543H20.7845C20.8051 28.3584 20.8258 28.3609 20.8473 28.3609C20.8688 28.3609 20.8894 28.3584 20.9101 28.3543H24.3951C24.5761 28.3543 24.724 28.2072 24.724 28.0254V26.3688C24.7223 24.5412 23.6961 22.8466 22.1081 22.0526ZM11.8141 22.1823L10.887 22.8342C10.8804 22.8392 10.8746 22.8433 10.8689 22.8483C10.8589 22.8565 10.8499 22.8565 10.8449 22.8549C10.8399 22.854 10.8391 22.8516 10.8366 22.8483C10.8317 22.8383 10.8267 22.8284 10.8201 22.8177L9.34859 20.4464L10.3285 19.9978L12.6271 21.6097L11.8546 22.1534C11.8405 22.1625 11.8265 22.1716 11.8141 22.1823ZM11.2613 17.9636C11.8785 18.2561 12.5469 18.4097 13.222 18.4097C13.8747 18.4097 14.5249 18.2651 15.1306 17.9892V18.5642C15.1306 18.9451 15.2644 19.3062 15.5007 19.5904L13.1997 21.209L10.8887 19.5879C11.1266 19.3029 11.2621 18.9402 11.2621 18.5576V17.9636H11.2613ZM12.8064 24.3644H13.6326L14.1597 27.6982H12.2189L12.8064 24.3644ZM13.6681 23.7075H12.7725L12.4147 22.564L13.2005 22.0121L14.0028 22.5748L13.6681 23.7075ZM13.7714 21.6097L16.0568 20.0027L17.045 20.4555L15.5833 22.8193C15.5776 22.8293 15.5718 22.8383 15.5676 22.8491C15.566 22.8516 15.5652 22.854 15.5594 22.8557C15.5536 22.8565 15.5453 22.8565 15.5354 22.8491C15.5296 22.8441 15.5239 22.8392 15.5164 22.835L13.7714 21.6097ZM7.64986 8.34043C7.68373 8.29169 7.70356 8.23385 7.70687 8.17354C7.84898 5.64278 10.0988 4.76946 11.9611 4.48193C13.4434 4.25471 14.943 4.45136 16.298 5.0512C17.9141 5.76672 18.4495 7.07878 18.614 8.05291C18.8214 9.28069 18.5429 10.6159 18.0844 11.5024L18.0571 10.3093C18.0563 10.1705 17.9959 10.04 17.8918 9.94994C17.791 9.86236 17.658 9.82187 17.5258 9.83674C16.5781 9.90945 15.737 8.80065 15.5767 8.57756C15.5734 8.57261 15.5701 8.56765 15.566 8.56269C15.4024 8.35779 15.1107 8.3173 14.9009 8.46933C12.7204 10.054 9.67991 9.91771 8.79089 9.83674C8.65869 9.82104 8.52732 9.86153 8.42569 9.94994C8.31828 10.0433 8.25714 10.178 8.25714 10.3201V10.3267L8.2811 11.6164C6.88807 10.0144 7.61185 8.41975 7.64986 8.34043ZM8.97266 13.492L8.9173 10.5068C10.0269 10.5861 12.9336 10.62 15.1471 9.10057C15.5015 9.55995 16.3451 10.482 17.4044 10.4977L17.4721 13.4986C17.3969 14.9817 16.5657 16.3805 15.2999 17.1563C15.2892 17.1621 15.2785 17.1687 15.2677 17.1753C14.6373 17.5529 13.9301 17.7521 13.2211 17.7521C12.5056 17.7521 11.7975 17.5505 11.168 17.1679C11.1324 17.1316 11.0886 17.1043 11.0391 17.0869C10.7829 16.9192 10.5318 16.7135 10.293 16.4747C9.49566 15.6584 9.02719 14.5991 8.97266 13.492ZM2.32644 26.3705C2.32644 24.7891 3.20803 23.3242 4.57297 22.6359L8.74709 20.7232L10.255 23.1531C10.3467 23.3291 10.5086 23.4539 10.7036 23.4969C10.7524 23.5076 10.8019 23.5125 10.8523 23.5125C11.0035 23.5125 11.1514 23.4622 11.2745 23.3663L11.8513 22.9606L12.195 24.057L11.553 27.6974H5.87511V26.1738C5.87511 25.9921 5.72804 25.845 5.54627 25.845C5.36532 25.845 5.21825 25.9921 5.21825 26.1738V27.6974H2.32644V26.3705ZM24.0655 27.6982H21.1736V26.1747C21.1736 25.9929 21.0274 25.8458 20.8456 25.8458C20.6639 25.8458 20.5168 25.9929 20.5168 26.1747V27.6982H14.8249L14.249 24.0579L14.5687 22.973L15.1306 23.3671C15.2529 23.4638 15.4016 23.5134 15.5528 23.5134C15.6023 23.5134 15.6519 23.5084 15.7007 23.4977C15.8948 23.4539 16.0576 23.3291 16.1493 23.154L17.6456 20.7323L21.8181 22.6442C23.1822 23.3283 24.0646 24.7907 24.0646 26.3713L24.0655 27.6982ZM29.9838 10.6448C29.7342 10.392 29.3996 10.2523 29.0435 10.2523H21.7066C20.9753 10.2523 20.3796 10.8481 20.3796 11.5793V17.3249C20.3796 18.0561 20.9753 18.651 21.7066 18.651H21.8602V20.0705C21.8602 20.2605 21.9743 20.4307 22.1494 20.5034C22.2073 20.5282 22.2684 20.5389 22.3295 20.5389C22.4518 20.5389 22.5724 20.491 22.6625 20.4001L24.4116 18.6502H29.0361C29.7681 18.6502 30.363 18.0553 30.363 17.3241V11.5834V11.5553C30.3605 11.2116 30.2267 10.8894 29.9838 10.6448ZM29.7061 17.3249C29.7061 17.6942 29.4062 17.9941 29.0369 17.9941H24.3802C24.2249 17.9941 24.0778 18.0561 23.9655 18.1676L22.5179 19.616V18.5832C22.5179 18.2577 22.2535 17.9941 21.9288 17.9941H21.7066C21.3372 17.9941 21.0373 17.6934 21.0373 17.3249V11.5793C21.0373 11.2099 21.3381 10.91 21.7074 10.91H29.0443C29.2245 10.91 29.3922 10.9802 29.5178 11.1075C29.6425 11.2331 29.7094 11.3991 29.707 11.5801L29.7061 17.3249ZM25.1065 12.3683V16.5424C25.1065 16.7242 24.9594 16.8713 24.7777 16.8713C24.5967 16.8713 24.4488 16.7242 24.4488 16.5424V14.7842H22.6997V16.5424C22.6997 16.7242 22.5526 16.8713 22.3708 16.8713C22.1891 16.8713 22.042 16.7242 22.042 16.5424V14.4562C22.042 14.4562 22.042 14.4562 22.042 14.4554C22.042 14.4554 22.042 14.4554 22.042 14.4546V12.3683C22.042 12.1865 22.1891 12.0395 22.37 12.0395C22.5518 12.0395 22.6989 12.1865 22.6989 12.3683V14.1265H24.448V12.3683C24.448 12.1865 24.5951 12.0395 24.7768 12.0395C24.9594 12.0395 25.1065 12.1865 25.1065 12.3683ZM28.6998 13.4119C28.6998 12.655 28.0843 12.0395 27.3282 12.0395H26.1872C26.0054 12.0395 25.8584 12.1865 25.8584 12.3683V16.5424C25.8584 16.7242 26.0054 16.8713 26.1872 16.8713C26.369 16.8713 26.5161 16.7242 26.5161 16.5424V14.7842H27.1258L28.0785 16.6895C28.1363 16.8044 28.252 16.8713 28.3726 16.8713C28.4214 16.8713 28.4718 16.8605 28.5188 16.8366C28.6808 16.7556 28.7469 16.5581 28.6659 16.3954L27.8149 14.6933C28.3313 14.4959 28.6998 13.9968 28.6998 13.4119ZM27.3282 14.1265H26.5152V12.6963H27.3282C27.7224 12.6963 28.0429 13.0177 28.0429 13.4119C28.0429 13.806 27.7232 14.1265 27.3282 14.1265Z" stroke="#0154A4" stroke-width="0.4" mask="url(#path-1-outside-1_1602_11142)"/>
</svg>
