<svg width="22" height="22" viewBox="0 0 22 22" fill="none" xmlns="http://www.w3.org/2000/svg">
<path fill-rule="evenodd" clip-rule="evenodd" d="M10.8961 13.2132L10.9996 13.2132L11.2311 13.214C13.0008 13.2256 17.0451 13.4044 17.0451 16.1456C17.0451 18.8688 13.1418 19.0464 11.2587 19.0579L10.561 19.0579C8.79121 19.0463 4.74615 18.8677 4.74615 16.13C4.74615 13.4034 8.79121 13.2256 10.561 13.214L10.7926 13.2132C10.8285 13.2132 10.863 13.2132 10.8961 13.2132ZM10.8961 14.5882C8.71807 14.5882 6.12115 14.8558 6.12115 16.13C6.12115 17.3753 8.56307 17.6665 10.697 17.683L10.8961 17.6837C13.0741 17.6837 15.6701 17.417 15.6701 16.1456C15.6701 14.8586 13.0741 14.5882 10.8961 14.5882ZM18.1869 12.8412C20.408 13.1739 20.8745 14.2171 20.8745 15.0338C20.8745 15.5325 20.6784 16.4428 19.3675 16.9423C19.2869 16.9726 19.2044 16.9873 19.1228 16.9873C18.846 16.9873 18.5847 16.8186 18.4802 16.5445C18.3445 16.1898 18.5233 15.7919 18.878 15.6572C19.4995 15.4207 19.4995 15.1594 19.4995 15.0338C19.4995 14.6323 18.989 14.3518 17.9825 14.2015C17.6075 14.1447 17.3481 13.7954 17.404 13.4187C17.46 13.0428 17.8083 12.7926 18.1869 12.8412ZM4.38719 13.4187C4.4431 13.7954 4.18369 14.1447 3.80877 14.2015C2.80227 14.3518 2.29169 14.6323 2.29169 15.0338C2.29169 15.1594 2.29169 15.4198 2.9141 15.6572C3.26885 15.7919 3.4476 16.1898 3.31194 16.5445C3.20744 16.8186 2.94619 16.9873 2.66935 16.9873C2.58777 16.9873 2.50527 16.9726 2.4246 16.9423C1.11285 16.4418 0.916687 15.5316 0.916687 15.0338C0.916687 14.218 1.38327 13.1739 3.60527 12.8412C3.98385 12.7935 4.33035 13.0428 4.38719 13.4187ZM10.8961 3.66699C13.2061 3.66699 15.0843 5.54616 15.0843 7.85524C15.0843 10.1643 13.2061 12.0435 10.8961 12.0435H10.8713C9.75299 12.0398 8.70524 11.6017 7.92057 10.8097C7.13407 10.0186 6.70415 8.96808 6.7087 7.85249C6.7087 5.54616 8.58699 3.66699 10.8961 3.66699ZM10.8961 5.04199C9.34507 5.04199 8.08372 6.30424 8.08372 7.85524C8.08099 8.60691 8.36882 9.30999 8.8959 9.84074C9.42299 10.3715 10.1252 10.6657 10.8732 10.6685L10.8961 11.356V10.6685C12.4471 10.6685 13.7093 9.40716 13.7093 7.85524C13.7093 6.30424 12.4471 5.04199 10.8961 5.04199ZM16.5693 4.56487C18.1808 4.82978 19.3514 6.20845 19.3514 7.84287C19.3477 9.48828 18.1185 10.9 16.4914 11.1282C16.4593 11.1328 16.4272 11.1346 16.3961 11.1346C16.0587 11.1346 15.7645 10.8862 15.7159 10.5425C15.6637 10.1657 15.9249 9.81828 16.3017 9.76603C17.255 9.6322 17.9746 8.80537 17.9764 7.84103C17.9764 6.88495 17.2907 6.07645 16.3457 5.92153C15.9717 5.86012 15.7177 5.50628 15.7792 5.13137C15.8415 4.75645 16.1926 4.50528 16.5693 4.56487ZM6.01299 5.13137C6.0744 5.50628 5.82049 5.86012 5.44649 5.92153C4.5014 6.07645 3.81574 6.88495 3.81574 7.84287C3.81757 8.80537 4.53715 9.63312 5.48957 9.76603C5.86632 9.81828 6.12757 10.1657 6.07532 10.5425C6.02674 10.8862 5.73249 11.1346 5.39515 11.1346C5.36399 11.1346 5.3319 11.1328 5.29982 11.1282C3.67274 10.9 2.4444 9.48828 2.44074 7.8447C2.44074 6.20845 3.61132 4.82978 5.22282 4.56487C5.60874 4.50437 5.95065 4.75828 6.01299 5.13137Z" fill="#0154A4"/>
</svg>
