<svg width="34" height="34" viewBox="0 0 34 34" fill="none" xmlns="http://www.w3.org/2000/svg">
<path d="M9.17223 25.6541C8.23544 25.6541 7.47323 26.4163 7.47323 27.3531C7.47323 28.2899 8.23544 29.0521 9.17223 29.0521C10.109 29.0521 10.8712 28.2899 10.8712 27.3531C10.8712 26.4163 10.109 25.6541 9.17223 25.6541ZM9.17223 27.9896C8.82127 27.9896 8.53573 27.7041 8.53573 27.3531C8.53573 27.0022 8.82127 26.7166 9.17223 26.7166C9.52319 26.7166 9.80873 27.0022 9.80873 27.3531C9.80873 27.7041 9.52319 27.9896 9.17223 27.9896ZM22.6358 25.6541C21.699 25.6541 20.9368 26.4163 20.9368 27.3531C20.9368 28.2899 21.699 29.0521 22.6358 29.0521C23.5726 29.0521 24.3348 28.2899 24.3348 27.3531C24.3348 26.4163 23.5727 25.6541 22.6358 25.6541ZM22.6358 27.9896C22.2849 27.9896 21.9993 27.7041 21.9993 27.3531C21.9993 27.0022 22.2849 26.7166 22.6358 26.7166C22.9868 26.7166 23.2723 27.0022 23.2723 27.3531C23.2723 27.7041 22.9868 27.9896 22.6358 27.9896ZM30.6406 12.4699C30.8457 12.3911 30.981 12.194 30.981 11.9742V10.6262C30.981 10.4064 30.8457 10.2093 30.6406 10.1304L30.0671 9.90966C29.9754 9.60611 29.8538 9.3128 29.7036 9.03289L29.9533 8.47083C30.0425 8.27002 29.9988 8.03494 29.8434 7.87955L28.8903 6.92642C28.7348 6.77103 28.4999 6.72727 28.299 6.81659L27.7367 7.06634C27.4569 6.9162 27.1637 6.79467 26.8603 6.70296L26.6395 6.12915C26.5606 5.92409 26.3635 5.78875 26.1437 5.78875H24.7957C24.5759 5.78875 24.3789 5.92409 24.2999 6.12915L24.0791 6.7029C23.7756 6.79461 23.4824 6.91613 23.2027 7.06627L22.6403 6.81652C22.4395 6.7274 22.2045 6.77103 22.0491 6.92642L21.0959 7.87962C20.9405 8.03501 20.8969 8.27002 20.9861 8.4709L21.2358 9.03309C21.0857 9.31286 20.9641 9.60611 20.8724 9.90959L20.2987 10.1304C20.0936 10.2093 19.9583 10.4064 19.9583 10.6262V11.9742C19.9583 12.194 20.0936 12.391 20.2987 12.4699L20.8723 12.6908C20.964 12.9944 21.0856 13.2877 21.2357 13.5674L20.9861 14.1294C20.8969 14.3303 20.9405 14.5653 21.0959 14.7207L22.0491 15.6739C22.2046 15.8293 22.4395 15.873 22.6404 15.7838L23.2027 15.5341C23.4825 15.6842 23.7757 15.8057 24.0791 15.8974L24.2999 16.4712C24.3788 16.6763 24.5759 16.8116 24.7957 16.8116H26.1437C26.3635 16.8116 26.5606 16.6763 26.6395 16.4712L26.8603 15.8976C27.1639 15.8059 27.4572 15.6843 27.737 15.5342L28.299 15.7838C28.4998 15.8729 28.7348 15.8293 28.8903 15.6739L29.8435 14.7207C29.9989 14.5653 30.0425 14.3303 29.9533 14.1294L29.7036 13.5671C29.8537 13.2874 29.9752 12.9942 30.067 12.6908L30.6406 12.4699ZM29.9185 11.6094L29.4336 11.7961C29.2701 11.859 29.1482 11.9985 29.1077 12.1689C29.0161 12.5536 28.8643 12.92 28.6562 13.2577C28.5643 13.4069 28.552 13.5918 28.623 13.7519L28.8342 14.2273L28.3969 14.6646L27.9218 14.4536C27.7618 14.3825 27.5769 14.3948 27.4276 14.4868C27.0898 14.6948 26.7234 14.8467 26.3384 14.9383C26.168 14.9788 26.0285 15.1008 25.9656 15.2643L25.779 15.749H25.1605L24.9739 15.2641C24.911 15.1006 24.7715 14.9787 24.6011 14.9381C24.2164 14.8466 23.8499 14.6947 23.5121 14.4866C23.3628 14.3947 23.178 14.3824 23.018 14.4534L22.5426 14.6646L22.1053 14.2273L22.3164 13.7522C22.3874 13.5921 22.3751 13.4071 22.2831 13.258C22.0752 12.9202 21.9232 12.5538 21.8315 12.1687C21.791 11.9983 21.669 11.8588 21.5056 11.7959L21.0209 11.6093V10.9909L21.5057 10.8043C21.6692 10.7413 21.7911 10.6019 21.8317 10.4315C21.9233 10.0467 22.0752 9.68022 22.2832 9.34235C22.3751 9.19313 22.3875 9.00826 22.3164 8.84815L22.1053 8.37288L22.5426 7.9356L23.018 8.14677C23.178 8.21776 23.3629 8.20547 23.5122 8.11357C23.8499 7.90558 24.2163 7.75364 24.6011 7.66207C24.7715 7.6215 24.911 7.49957 24.9739 7.33608L25.1605 6.85118H25.779L25.9656 7.33608C26.0285 7.49951 26.168 7.6215 26.3384 7.66207C26.7231 7.75364 27.0896 7.90552 27.4274 8.11357C27.5765 8.20547 27.7615 8.21782 27.9215 8.1467L28.3969 7.9356L28.8342 8.37288L28.6232 8.84802C28.5521 9.00812 28.5644 9.193 28.6564 9.34221C28.8644 9.68016 29.0163 10.0466 29.1079 10.4315C29.1484 10.6019 29.2703 10.7414 29.4338 10.8043L29.9185 10.9909V11.6094ZM25.4697 8.41811C23.8805 8.41811 22.5876 9.71103 22.5876 11.3002C22.5876 12.8894 23.8806 14.1822 25.4697 14.1822C27.0589 14.1822 28.3517 12.8894 28.3517 11.3002C28.3517 9.71103 27.0589 8.41811 25.4697 8.41811ZM25.4697 13.1197C24.4664 13.1197 23.6501 12.3035 23.6501 11.3002C23.6501 10.2969 24.4664 9.48061 25.4697 9.48061C26.473 9.48061 27.2892 10.2969 27.2892 11.3002C27.2892 12.3035 26.473 13.1197 25.4697 13.1197ZM33.4686 11.3002C33.4686 9.88535 33.0941 8.49474 32.3855 7.27864C32.2377 7.0251 31.9125 6.9393 31.659 7.08706C31.4056 7.23475 31.3198 7.56 31.4675 7.81348C32.0815 8.86741 32.4061 10.073 32.4061 11.3001C32.4061 15.1249 29.2945 18.2366 25.4697 18.2366C24.2387 18.2366 23.0338 17.9068 21.9809 17.2944C22.2091 17.228 22.3723 17.0141 22.3634 16.7658C22.3529 16.4725 22.1067 16.2432 21.8135 16.2539L20.4367 16.3034C20.2734 16.3092 20.122 16.3898 20.0259 16.522C19.93 16.6541 19.9 16.823 19.9448 16.9801L20.3228 18.3049C20.3894 18.5384 20.6021 18.6905 20.8334 18.6905C20.8816 18.6905 20.9307 18.6838 20.9794 18.67C21.2109 18.6039 21.3623 18.394 21.3647 18.1649C22.5981 18.9019 24.0183 19.2991 25.4696 19.2991C26.2977 19.2991 27.0967 19.1726 27.8486 18.9379L26.2382 24.1589C26.0821 24.6653 25.8288 25.1256 25.4943 25.517C24.8888 24.5776 23.8341 23.9538 22.6358 23.9538C20.9421 23.9538 19.5341 25.199 19.2783 26.8219H12.5298C12.2739 25.199 10.8659 23.9538 9.17223 23.9538C7.97393 23.9538 6.91927 24.5776 6.31377 25.517C5.97929 25.1257 5.72601 24.6654 5.56976 24.1589L2.61176 14.5685H18.1689C18.2979 14.8566 18.4432 15.1379 18.6064 15.4099C18.706 15.5759 18.882 15.6679 19.0624 15.6679C19.1554 15.6679 19.2496 15.6434 19.3352 15.5921C19.5868 15.4412 19.6684 15.1148 19.5174 14.8632C18.8735 13.7901 18.5332 12.558 18.5332 11.3001C18.5332 7.47534 21.6449 4.36367 25.4697 4.36367C26.7036 4.36367 27.9064 4.69318 28.9588 5.30578C28.7304 5.37198 28.567 5.58608 28.5759 5.8345C28.5862 6.12125 28.8218 6.3467 29.1065 6.3467C29.1129 6.3467 29.1193 6.34663 29.1258 6.34636L30.5026 6.29689C30.6659 6.29105 30.8173 6.21043 30.9134 6.07828C31.0093 5.9462 31.0393 5.77726 30.9945 5.62021L30.6165 4.29541C30.5359 4.01325 30.2419 3.84955 29.9598 3.9303C29.7286 3.99631 29.5773 4.20589 29.5746 4.43473C28.3418 3.69762 26.9243 3.30117 25.4697 3.30117C22.2101 3.30117 19.4001 5.26115 18.1552 8.06429H16.4369V4.21366C16.4369 3.68121 16.0037 3.24805 15.4713 3.24805H11.1222C10.5897 3.24805 10.1565 3.68121 10.1565 4.21366V6.68676H8.89505C8.49954 6.68676 8.1592 6.92596 8.01012 7.26709L7.40443 6.21793C7.27573 5.99501 7.06748 5.83537 6.81793 5.7685C6.56857 5.70182 6.30833 5.73576 6.0854 5.86445L2.31884 8.03912C1.85778 8.30535 1.69927 8.89703 1.96549 9.35815L2.924 11.0184H1.0625C0.769117 11.0184 0.53125 11.2562 0.53125 11.5496V14.0373C0.53125 14.3307 0.769117 14.5685 1.0625 14.5685H1.49985L4.55447 24.4721C4.80589 25.287 5.25499 26.0098 5.86228 26.5816C5.8045 26.8296 5.77289 27.0877 5.77289 27.3531C5.77289 29.2274 7.29785 30.7524 9.17216 30.7524C10.8659 30.7524 12.2739 29.5072 12.5297 27.8843H19.2782C19.5341 29.5072 20.9421 30.7524 22.6358 30.7524C24.5101 30.7524 26.035 29.2274 26.035 27.3531C26.035 27.0876 26.0034 26.8296 25.9457 26.5815C26.553 26.0097 27.0021 25.287 27.2534 24.4721L29.1215 18.4156C31.7008 17.0864 33.4686 14.3959 33.4686 11.3002ZM17.4762 11.0184H14.2097V9.12679H17.7709C17.5999 9.73155 17.4989 10.3652 17.4762 11.0184ZM11.2189 4.31055H15.3743V8.06429H14.2097V7.65238C14.2097 7.11993 13.7765 6.68676 13.2441 6.68676H11.2189V4.31055ZM13.1472 7.74926V11.0184H8.9918V7.74926H13.1472ZM2.93403 8.91084L6.53265 6.83312L7.9293 9.25237V11.0184H4.15079L2.93403 8.91084ZM1.59375 12.0809H17.5092C17.5564 12.5644 17.6479 13.0413 17.7809 13.506H1.59375V12.0809ZM9.17223 29.69C7.88375 29.69 6.83546 28.6417 6.83546 27.3531C6.83546 26.0646 7.88375 25.0163 9.17223 25.0163C10.4608 25.0163 11.5091 26.0646 11.5091 27.3531C11.5091 28.6417 10.4608 29.69 9.17223 29.69ZM22.6358 29.69C21.3473 29.69 20.299 28.6417 20.299 27.3531C20.299 26.0646 21.3473 25.0163 22.6358 25.0163C23.9243 25.0163 24.9726 26.0646 24.9726 27.3531C24.9726 28.6417 23.9243 29.69 22.6358 29.69Z" fill="#0154A4"/>
</svg>
