<svg width="16" height="16" viewBox="0 0 16 16" fill="none" xmlns="http://www.w3.org/2000/svg">
<g clip-path="url(#clip0_6369_26048)">
<path d="M10.0336 3.33464C10.6848 3.46168 11.2832 3.78014 11.7523 4.24926C12.2214 4.71838 12.5399 5.31681 12.6669 5.96797M10.0336 0.667969C11.3865 0.81826 12.648 1.42409 13.6111 2.38597C14.5742 3.34786 15.1816 4.60864 15.3336 5.9613M14.6669 11.2813V13.2813C14.6677 13.467 14.6297 13.6507 14.5553 13.8209C14.4809 13.991 14.3718 14.1437 14.235 14.2692C14.0982 14.3947 13.9367 14.4903 13.7608 14.5498C13.5849 14.6093 13.3985 14.6313 13.2136 14.6146C11.1622 14.3917 9.19161 13.6907 7.46028 12.568C5.8495 11.5444 4.48384 10.1788 3.46028 8.56797C2.3336 6.82877 1.63244 4.84863 1.41361 2.78797C1.39695 2.60361 1.41886 2.41781 1.47795 2.24239C1.53703 2.06696 1.63199 1.90576 1.75679 1.76905C1.88159 1.63234 2.03348 1.52311 2.20281 1.44832C2.37213 1.37353 2.55517 1.33481 2.74028 1.33464H4.74028C5.06382 1.33145 5.37748 1.44602 5.62279 1.65699C5.8681 1.86796 6.02833 2.16093 6.07361 2.4813C6.15803 3.12135 6.31458 3.74979 6.54028 4.35464C6.62998 4.59325 6.64939 4.85258 6.59622 5.10189C6.54305 5.3512 6.41952 5.58004 6.24028 5.7613L5.39361 6.60797C6.34265 8.277 7.72458 9.65893 9.39361 10.608L10.2403 9.7613C10.4215 9.58206 10.6504 9.45854 10.8997 9.40536C11.149 9.35219 11.4083 9.37161 11.6469 9.4613C12.2518 9.687 12.8802 9.84355 13.5203 9.92797C13.8441 9.97366 14.1399 10.1368 14.3513 10.3863C14.5627 10.6358 14.6751 10.9544 14.6669 11.2813Z" stroke="#4E4E4E" stroke-width="1.5" stroke-linecap="round" stroke-linejoin="round"/>
</g>
<defs>
<clipPath id="clip0_6369_26048">
<rect width="16" height="16" fill="white"/>
</clipPath>
</defs>
</svg>
