<svg width="20" height="20" viewBox="0 0 20 20" fill="none" xmlns="http://www.w3.org/2000/svg">
<path d="M13.6167 1.6665C16.4417 1.6665 18.3334 3.64984 18.3334 6.59984V13.4082C18.3334 16.3498 16.4417 18.3332 13.6167 18.3332H6.39175C3.56675 18.3332 1.66675 16.3498 1.66675 13.4082V6.59984C1.66675 3.64984 3.56675 1.6665 6.39175 1.6665H13.6167ZM13.7334 9.00067C13.1834 9.00067 12.7334 9.44984 12.7334 9.99984C12.7334 10.5498 13.1834 10.9998 13.7334 10.9998C14.2834 10.9998 14.7251 10.5498 14.7251 9.99984C14.7251 9.44984 14.2834 9.00067 13.7334 9.00067ZM10.0001 9.00067C9.45008 9.00067 9.00008 9.44984 9.00008 9.99984C9.00008 10.5498 9.45008 10.9998 10.0001 10.9998C10.5501 10.9998 11.0001 10.5498 11.0001 9.99984C11.0001 9.44984 10.5501 9.00067 10.0001 9.00067ZM6.26675 9.00067C5.71675 9.00067 5.26675 9.44984 5.26675 9.99984C5.26675 10.5498 5.71675 10.9998 6.26675 10.9998C6.81675 10.9998 7.26675 10.5498 7.26675 9.99984C7.26675 9.44984 6.81675 9.00067 6.26675 9.00067Z" fill="#0154A4"/>
</svg>
