<svg width="20" height="20" viewBox="0 0 20 20" fill="none" xmlns="http://www.w3.org/2000/svg">
<path fill-rule="evenodd" clip-rule="evenodd" d="M13.6117 1.6665C16.4359 1.6665 18.3334 3.64817 18.3334 6.5965V13.4032C18.3334 16.3515 16.4359 18.3332 13.6109 18.3332H6.38758C3.56341 18.3332 1.66675 16.3515 1.66675 13.4032V6.5965C1.66675 3.64817 3.56341 1.6665 6.38758 1.6665H13.6117ZM13.6117 2.9165H6.38758C4.27925 2.9165 2.91675 4.36067 2.91675 6.5965V13.4032C2.91675 15.639 4.27925 17.0832 6.38758 17.0832H13.6109C15.7201 17.0832 17.0834 15.639 17.0834 13.4032V6.5965C17.0834 4.36067 15.7201 2.9165 13.6117 2.9165ZM13.2902 9.17792C13.7511 9.17792 14.1236 9.55042 14.1236 10.0113C14.1236 10.4721 13.7511 10.8446 13.2902 10.8446C12.8294 10.8446 12.4527 10.4721 12.4527 10.0113C12.4527 9.55042 12.8219 9.17792 13.2819 9.17792H13.2902ZM9.94883 9.17792C10.4097 9.17792 10.7822 9.55042 10.7822 10.0113C10.7822 10.4721 10.4097 10.8446 9.94883 10.8446C9.488 10.8446 9.11216 10.4721 9.11216 10.0113C9.11216 9.55042 9.4805 9.17792 9.94133 9.17792H9.94883ZM6.60816 9.17792C7.069 9.17792 7.4415 9.55042 7.4415 10.0113C7.4415 10.4721 7.069 10.8446 6.60816 10.8446C6.14733 10.8446 5.77066 10.4721 5.77066 10.0113C5.77066 9.55042 6.13983 9.17792 6.60066 9.17792H6.60816Z" fill="#4E4E4E"/>
</svg>
