<svg width="162" height="125" viewBox="0 0 162 125" fill="none" xmlns="http://www.w3.org/2000/svg">
<path d="M73.5331 0.749211C81.0073 -0.831994 88.7871 0.104693 95.687 3.41655C101.228 5.92544 106.063 9.79408 109.755 14.6723C110.077 15.0966 110.349 15.5571 110.566 16.0446C109.905 15.5606 109.437 14.8794 108.898 14.278C105.279 10.2574 100.709 7.23711 95.6181 5.50252C90.6534 3.72921 85.3062 3.35576 80.1482 4.42211C78.8326 4.70406 77.5539 5.13573 76.2604 5.49254C68.3025 7.84798 61.5125 13.8264 58.009 21.4242C55.1343 27.0225 54.0855 33.3993 55.0131 39.639C55.9986 45.827 58.5634 51.8404 62.7591 56.4939C66.1098 60.1518 70.3696 62.889 74.967 64.6431C80.0093 66.6499 85.5061 67.185 90.8335 66.1876C95.4347 65.3889 99.8139 63.6023 103.677 60.9478C110.676 55.9899 115.358 47.9355 116.572 39.4045C116.819 37.7252 116.819 36.0285 117.008 34.3467C117.994 46.5157 112.369 58.9117 102.832 66.3199C93.6076 73.2864 81.0869 75.9089 70.0272 72.3732C61.9264 69.8057 54.5524 64.4984 50.0388 57.1526C47.2769 52.846 45.5474 47.9205 44.6038 42.8927C43.6199 37.3859 43.9785 31.7192 45.6484 26.3846C46.5009 23.4079 47.9298 20.6457 49.3982 17.9435C51.7308 13.9635 54.7735 10.4573 58.3712 7.60346C62.8281 4.19255 68.0931 1.97434 73.5331 0.749211Z" fill="#DBDBF9"/>
<path d="M81.5824 10.1184H88.2025C88.2025 14.6097 88.2025 19.1185 88.2025 23.6198C85.9851 23.6198 83.7874 23.6198 81.5799 23.6198L81.5824 10.1184Z" fill="#FF0000"/>
<path d="M62.3997 20.9875C64.76 18.5671 67.1194 16.146 69.478 13.724C71.6683 15.9148 73.8857 18.0781 76.0464 20.2938C77.2339 19.7698 78.4214 19.2408 79.641 18.7967C79.641 21.0107 79.641 23.224 79.641 25.4363H89.7423C89.7423 23.2531 89.7423 21.0698 89.7423 18.8865C91.0326 19.3324 92.2884 19.8745 93.4995 20.5084C95.8352 18.37 98.156 16.2117 100.489 14.0733C102.756 16.591 105.037 19.0936 107.289 21.6262C105.018 23.7122 102.748 25.8023 100.482 27.8966C101.03 28.9652 101.481 30.0828 101.827 31.2351C99.516 31.2127 97.205 31.1578 94.894 31.1678C94.83 34.5662 94.8201 37.9646 94.756 41.363C97.0867 41.363 99.4199 41.4154 101.751 41.4504C101.375 42.6693 100.88 43.8471 100.272 44.9661C102.46 47.0745 104.665 49.163 106.86 51.2664C104.572 53.7441 102.261 56.2018 99.9792 58.687C97.6682 56.5387 95.4139 54.328 93.1078 52.1746C91.9349 52.8342 90.6907 53.3541 89.3999 53.7241C89.4615 51.209 89.5157 48.6914 89.5896 46.1787C86.2241 46.1163 82.8586 46.0016 79.4882 45.9442C79.402 48.4793 79.3576 51.0144 79.2887 53.552C77.9473 53.1229 76.6568 52.5456 75.4403 51.8303C73.4028 53.6917 71.385 55.5731 69.3474 57.437C67.0742 54.9301 64.8059 52.4158 62.5426 49.894C64.5555 48.0326 66.5782 46.1812 68.5886 44.3123C68.0093 43.1125 67.5449 41.8592 67.2015 40.5696C69.5174 40.5546 71.8334 40.5097 74.1517 40.5197C74.1173 37.1212 74.0951 33.7228 74.0532 30.3219C71.9196 30.3044 69.7885 30.3394 67.6475 30.3518C68.0146 29.3712 68.4383 28.4106 68.8596 27.4524C66.731 25.2891 64.5505 23.1558 62.3997 20.9875ZM82.7502 26.8386C81.5602 27.0751 80.4289 27.5501 79.4228 28.2357C78.4167 28.9213 77.556 29.8036 76.8914 30.8309C75.7877 32.7148 75.1668 34.9679 75.5733 37.1562C75.9996 39.4917 77.2635 41.7423 79.2443 43.0722C81.0798 44.3423 83.3957 44.991 85.6082 44.6043C86.9381 44.4014 88.2055 43.8964 89.3154 43.1271C90.4252 42.3578 91.3488 41.3441 92.017 40.162C92.6851 38.9798 93.0804 37.6599 93.1733 36.301C93.2662 34.9422 93.0543 33.5797 92.5535 32.3155C91.0703 28.4555 86.7513 26.0651 82.7502 26.8386V26.8386Z" fill="#00BFFE"/>
<path d="M96.4265 33.1962C100.861 33.1788 105.313 33.2511 109.755 33.2312C109.78 35.4768 109.708 37.7 109.728 39.9357C105.293 39.9482 100.839 39.8583 96.3944 39.8733C96.3747 37.6476 96.4437 35.4219 96.4265 33.1962Z" fill="#0154A4"/>
<path d="M59.0712 32.1384C63.5059 32.1109 67.9604 32.1908 72.405 32.1658C72.3852 34.4015 72.3639 36.6372 72.3409 38.8729C67.9062 38.8953 63.4517 38.8205 59.0071 38.8404C59.0301 36.6097 59.0515 34.3757 59.0712 32.1384Z" fill="#1FB61F"/>
<path d="M80.996 62.0455C80.996 57.5542 80.996 53.0429 80.996 48.5416C83.2011 48.5416 85.4061 48.5416 87.6087 48.5416C87.6087 53.0329 87.6087 57.5334 87.6087 62.043C85.4111 62.048 83.2035 62.053 80.996 62.0455Z" fill="#FFCC00"/>
<path d="M0.491821 118.949H3.04556C3.04556 119.141 3.06204 119.334 3.07119 119.528C2.4323 119.55 1.78974 119.542 1.15451 119.542V121.025H2.98515V121.617H1.15451C1.15451 122.48 1.15451 123.344 1.15451 124.208L0.484497 124.222C0.49182 122.466 0.494262 120.708 0.491821 118.949Z" fill="#05000C"/>
<path d="M6.716 118.949H7.37974C7.37974 120.702 7.36875 122.453 7.38892 124.206L6.716 124.226C6.71845 122.468 6.71845 120.709 6.716 118.949Z" fill="#05000C"/>
<path d="M66.0323 82.0603C67.3577 81.8777 68.6996 81.9343 70.0323 81.927C70.0323 83.4414 70.0323 84.9557 70.0323 86.4701C68.6611 86.5011 67.2625 86.3532 65.9243 86.7148C63.1674 87.4452 60.9816 90.0015 60.8443 92.861H69.8712C69.8712 94.4594 69.8712 96.0565 69.8712 97.6524C66.8433 97.6524 63.8172 97.6524 60.7894 97.6524C60.7894 103.115 60.7894 108.577 60.7894 114.039C59.2864 114.039 57.7835 114.039 56.2805 114.039C56.2805 108.599 56.2805 103.16 56.2805 97.7236C54.2137 97.7145 52.1469 97.7236 50.082 97.7236C50.082 96.1332 50.082 94.5428 50.082 92.9523H56.2897C56.3629 90.1531 57.4814 87.3447 59.5445 85.4165C61.2825 83.6222 63.5608 82.4437 66.0323 82.0603Z" fill="#666666"/>
<path d="M106.5 91.4697C108.203 91.0114 109.979 91.1173 111.725 91.1045C111.725 92.6188 111.725 94.132 111.725 95.6439C110.737 95.6548 109.746 95.6165 108.761 95.6841C105.331 95.9397 102.4 99.1114 102.537 102.563C102.537 106.387 102.537 110.213 102.537 114.041H97.9294C97.9294 110.267 97.9294 106.498 97.9294 102.734C97.9066 101.419 98.1002 100.11 98.5024 98.8576C99.6886 95.2568 102.87 92.4703 106.5 91.4697Z" fill="#666666"/>
<path d="M81.5323 91.2723C83.5995 91.0393 85.6914 91.3696 87.5854 92.2283C89.4793 93.0869 91.1044 94.4417 92.2876 96.1485C93.4709 97.8552 94.1682 99.85 94.3051 101.921C94.4421 103.991 94.0136 106.06 93.0653 107.907C91.836 110.262 89.8453 112.133 87.416 113.217C85.0779 114.176 82.4975 114.381 80.0367 113.803C77.1534 113.173 74.618 111.258 73.0803 108.765C71.6304 106.505 71.1526 103.716 71.4785 101.074C71.7975 98.5502 72.9801 96.2135 74.8267 94.4587C76.6445 92.6823 79.0041 91.5611 81.5323 91.2723V91.2723ZM81.223 95.9231C79.4687 96.3395 77.9394 97.4071 76.9466 98.9086C75.1288 101.666 75.6157 105.747 78.1804 107.885C79.731 109.346 81.9991 109.861 84.0696 109.499C85.9533 109.224 87.643 108.039 88.6828 106.465C89.1877 105.697 89.5347 104.836 89.7038 103.934C89.8728 103.031 89.8606 102.104 89.6677 101.206C89.4256 100.174 88.9546 99.209 88.2893 98.3826C87.624 97.5562 86.7813 96.8892 85.8233 96.4307C84.3923 95.7447 82.7697 95.5657 81.223 95.9231V95.9231Z" fill="#666666"/>
<path d="M118.504 94.561C121.706 91.1993 127.075 90.2316 131.296 92.1306C133.38 92.8865 134.923 94.5281 136.391 96.1112C135.353 97.1959 134.302 98.2659 133.266 99.3505C132.223 98.4375 131.344 97.2963 130.119 96.5988C127.862 95.2987 124.847 95.4101 122.725 96.9311C122.074 97.4297 121.485 98.004 120.97 98.6421C120.315 99.6077 119.91 100.721 119.793 101.881C119.675 103.041 119.848 104.212 120.296 105.289C120.845 106.645 121.894 107.756 123.13 108.519C124.117 109.099 125.23 109.432 126.375 109.489C127.519 109.545 128.66 109.324 129.7 108.844C131.121 108.192 132.106 106.93 133.264 105.922C134.3 106.992 135.353 108.046 136.389 109.118C135.214 110.383 134.009 111.665 132.468 112.499C129.895 113.965 126.86 114.4 123.977 113.716C121.358 113.104 119.042 111.583 117.444 109.425C114.182 105.091 114.572 98.3609 118.504 94.561Z" fill="#666666"/>
<path d="M149.963 91.4349C151.653 91.1624 153.383 91.2632 155.03 91.7302C156.676 92.1971 158.2 93.0189 159.494 94.1374C160.241 94.7673 160.881 95.5069 161.559 96.2099C157.307 100.443 153.058 104.678 148.812 108.917C150.566 109.751 152.686 109.885 154.476 109.081C156.054 108.471 157.154 107.142 158.361 106.023C159.424 107.093 160.51 108.143 161.557 109.231C160.394 110.445 159.221 111.698 157.742 112.534C154.481 114.49 150.236 114.636 146.82 112.991C144.115 111.691 141.901 109.293 141.01 106.417C140.169 103.848 140.227 101.07 141.173 98.538C142.502 94.7911 146.071 92.0448 149.963 91.4349ZM147.767 97.0955C147.007 97.7291 146.266 98.4212 145.782 99.2867C145.247 100.271 144.953 101.367 144.924 102.487C144.894 103.606 145.131 104.716 145.614 105.727C148.598 102.553 151.856 99.6537 154.857 96.4966C152.625 95.4393 149.738 95.5087 147.767 97.0827V97.0955Z" fill="#666666"/>
<path d="M4.74074 94.8368C7.36404 92.9651 10.8441 92.4977 13.925 93.3522C17.1506 94.3383 19.9204 96.8052 21.1249 99.9678C21.74 101.48 21.8956 103.129 21.8572 104.746C21.8572 108.071 21.8572 111.397 21.8572 114.724C20.4159 114.724 18.9739 114.724 17.5314 114.724C17.5314 111.011 17.5515 107.297 17.5186 103.585C17.4563 100.207 14.4065 97.2434 11.0198 97.2617C7.62582 97.0791 4.39475 100.001 4.31969 103.402C4.28857 107.175 4.31969 110.951 4.30688 114.724C2.88081 114.736 1.45474 114.709 0.0286755 114.74C-0.0280742 112.019 0.0195214 109.297 0.00487635 106.576C0.026844 105.055 -0.0701814 103.523 0.13485 102.011C0.363305 100.562 0.890607 99.177 1.68341 97.9421C2.4762 96.7072 3.51725 95.6498 4.74074 94.8368V94.8368Z" fill="#0154A4"/>
<path d="M25.297 92.8829C26.7377 92.8829 28.1802 92.8829 29.6228 92.8829C29.6228 96.2306 29.6228 99.5782 29.6228 102.926C29.5953 104.175 29.6575 105.468 30.1848 106.623C30.8573 107.963 31.9412 109.054 33.2785 109.737C34.913 110.478 36.772 110.559 38.4647 109.961C40.4327 109.222 42.04 107.522 42.5489 105.473C42.8125 104.525 42.7832 103.532 42.7814 102.552C42.7814 99.3268 42.7814 96.1009 42.7814 92.8738C44.2221 92.8738 45.6628 92.8738 47.1054 92.8738C47.1054 96.0388 47.1054 99.2039 47.1054 102.369C47.1584 104.206 47.0211 106.083 46.3035 107.796C45.4981 109.64 44.2898 111.349 42.6423 112.543C38.7979 115.5 32.8557 115.366 29.1761 112.187C26.8402 110.23 25.3464 107.264 25.3116 104.204C25.2787 100.426 25.3061 96.6536 25.297 92.8829Z" fill="#0154A4"/>
<path d="M36.5993 118.763C37.2095 120.137 37.81 121.516 38.4007 122.9C39.0323 121.524 39.6162 120.123 40.2313 118.743C40.5901 120.569 40.9471 122.395 41.3022 124.221H40.6176L40.0025 120.751C39.4661 121.956 38.9352 123.167 38.4007 124.374C37.868 123.163 37.3554 121.945 36.8208 120.737C36.603 121.9 36.3961 123.065 36.1801 124.23H35.5211C35.8836 122.4 36.2442 120.581 36.5993 118.763Z" fill="#05000C"/>
<path d="M44.2697 124.222C45.1118 122.396 45.9392 120.57 46.7868 118.744C47.6216 120.57 48.4576 122.396 49.2948 124.222C49.0568 124.222 48.8207 124.222 48.5863 124.222C48.3868 123.78 48.1891 123.339 47.9877 122.899C47.1877 122.899 46.3896 122.899 45.5914 122.899C45.3791 123.337 45.1795 123.78 44.9818 124.226L44.2697 124.222ZM45.8532 122.305H47.715C47.4092 121.604 47.0944 120.905 46.7905 120.202C46.4665 120.895 46.1662 121.602 45.8532 122.305Z" fill="#05000C"/>
<path d="M52.5936 118.708C53.9153 120.093 55.2358 121.479 56.5551 122.866C56.5551 121.561 56.5551 120.255 56.5551 118.949H57.2178C57.2178 120.788 57.2178 122.627 57.2178 124.465C55.8961 123.074 54.5616 121.693 53.238 120.304C53.238 121.609 53.238 122.915 53.238 124.221H52.6009C52.5918 122.384 52.5991 120.545 52.5936 118.708Z" fill="#05000C"/>
<path d="M60.4965 124.222C61.3349 122.396 62.1642 120.57 63.0081 118.744C63.8594 120.57 64.6978 122.396 65.5417 124.222H64.8351C64.6246 123.782 64.4214 123.342 64.2163 122.9H61.8017C61.6004 123.34 61.4027 123.78 61.2049 124.222H60.4965ZM62.0983 122.305H63.9619C63.6446 121.601 63.3267 120.899 63.0081 120.198C62.7042 120.897 62.3967 121.6 62.0928 122.305H62.0983Z" fill="#05000C"/>
<path d="M68.5604 121.198C68.7435 119.902 69.9206 118.825 71.246 118.852C72.0972 118.805 72.8643 119.27 73.4281 119.869L72.9466 120.32C72.5604 119.86 72.046 119.458 71.4181 119.453C70.4314 119.343 69.5124 120.077 69.236 120.994C68.9778 122.09 69.6021 123.346 70.7188 123.662C71.7403 123.989 72.8624 123.214 73.0052 122.172C72.5402 122.172 72.0753 122.172 71.6121 122.172V121.551C72.3114 121.551 73.0107 121.551 73.7119 121.551C73.6844 122.119 73.6185 122.71 73.2981 123.194C72.8039 124.093 71.678 124.472 70.7041 124.29C69.3128 124.058 68.317 122.57 68.5604 121.198Z" fill="#05000C"/>
<path d="M84.4925 118.761C85.1076 120.127 85.6458 121.525 86.2938 122.877C86.9016 121.503 87.4892 120.123 88.1098 118.757C88.4759 120.583 88.8274 122.4 89.1825 124.222H88.4979C88.291 123.065 88.0933 121.905 87.8791 120.753C87.3446 121.956 86.821 123.165 86.2792 124.365C85.7464 123.154 85.2302 121.938 84.703 120.727C84.4851 121.892 84.2764 123.059 84.0623 124.226H83.4234C83.7767 122.4 84.1391 120.581 84.4925 118.761Z" fill="#05000C"/>
<path d="M99.1852 118.701C100.494 120.097 101.83 121.472 103.145 122.867V118.949H103.831V124.462C102.506 123.076 101.178 121.692 99.8479 120.309C99.8479 121.613 99.8479 122.917 99.8479 124.221H99.1833C99.1846 122.38 99.1852 120.54 99.1852 118.701Z" fill="#05000C"/>
<path d="M118.762 120.729C118.33 119.834 119.172 118.77 120.126 118.852C120.73 118.79 121.259 119.148 121.578 119.639C121.403 119.741 121.233 119.844 121.067 119.946C120.812 119.692 120.518 119.398 120.128 119.467C119.494 119.394 119.029 120.249 119.525 120.695C120.146 121.129 121.028 121.182 121.479 121.858C122.116 122.802 121.429 124.177 120.314 124.314C119.384 124.522 118.557 123.766 118.383 122.891L119.027 122.738C119.115 123.198 119.412 123.696 119.943 123.709C120.752 123.881 121.369 122.833 120.929 122.183C120.296 121.567 119.196 121.551 118.762 120.729Z" fill="#05000C"/>
<path d="M150.362 122.27C149.779 120.57 151.373 118.81 153.075 118.856C153.542 118.83 153.991 119.007 154.403 119.192C154.403 119.374 154.403 119.752 154.403 119.94C154.037 119.721 153.681 119.464 153.249 119.453C152.052 119.27 150.851 120.353 150.917 121.556C150.859 122.714 151.902 123.835 153.086 123.748C153.575 123.748 154.002 123.479 154.401 123.233C154.401 123.424 154.401 123.808 154.401 124.001C152.892 124.882 150.762 123.978 150.362 122.27Z" fill="#05000C"/>
<path d="M11.2706 124.221C11.2706 122.464 11.2706 120.707 11.2706 118.949H14.1045V119.542H11.9333V121.025C12.6436 121.025 13.3539 121.025 14.0642 121.025C14.0642 121.221 14.0642 121.418 14.0642 121.617H11.9333V123.625H14.1063C14.1063 123.823 14.1063 124.022 14.1063 124.221H11.2706Z" fill="#05000C"/>
<path d="M17.8371 118.951C18.0568 118.951 18.2783 118.951 18.4998 118.951C18.4998 120.51 18.4998 122.069 18.4998 123.629H20.0998V124.22H17.8371C17.8353 122.464 17.839 120.707 17.8371 118.951Z" fill="#05000C"/>
<path d="M23.3986 118.947C24.497 118.938 25.7345 118.9 26.6242 119.659C27.8837 120.709 27.686 122.973 26.2581 123.788C25.4068 124.336 24.3487 124.208 23.3895 124.219C23.3986 122.464 23.3949 120.704 23.3986 118.947ZM24.0613 119.533V123.636C24.7405 123.636 25.4855 123.613 26.0402 123.163C27.0489 122.433 27.0416 120.643 25.9743 119.966C25.4178 119.575 24.713 119.563 24.0613 119.542V119.533Z" fill="#05000C"/>
<path d="M77.2651 118.949H80.0788V119.542H77.9058C77.9058 120.037 77.9058 120.53 77.9058 121.025H80.033V121.62H77.9058C77.9058 122.289 77.9058 122.958 77.9058 123.629H80.077C80.077 123.826 80.077 124.022 80.077 124.221H77.2651C77.2639 122.464 77.2639 120.707 77.2651 118.949Z" fill="#05000C"/>
<path d="M92.7102 118.949H95.5239V119.542H93.3509C93.3509 120.037 93.3509 120.53 93.3509 121.025H95.48C95.48 121.173 95.48 121.469 95.48 121.617H93.3509C93.3509 122.285 93.3509 122.955 93.3509 123.625H95.5239C95.5239 123.821 95.5239 124.02 95.5239 124.217H92.7102V118.949Z" fill="#05000C"/>
<path d="M107.163 119.542L107.185 118.945C108.24 118.96 109.294 118.945 110.348 118.945C110.348 119.143 110.348 119.34 110.348 119.539H109.087C109.087 121.1 109.087 122.659 109.087 124.221H108.424C108.424 122.661 108.424 121.102 108.424 119.544C108.007 119.542 107.584 119.542 107.163 119.542Z" fill="#05000C"/>
<path d="M125.365 118.949H128.179V119.542H126.004C126.004 120.037 126.004 120.53 126.004 121.027H128.128C128.128 121.175 128.128 121.472 128.128 121.62H126C126 122.29 126 122.959 126 123.629H128.179C128.179 123.777 128.179 124.075 128.179 124.222C127.24 124.222 126.302 124.222 125.365 124.222C125.366 122.463 125.366 120.706 125.365 118.949Z" fill="#05000C"/>
<path d="M131.933 118.945C132.849 118.991 134.072 118.781 134.626 119.716C135.181 120.651 134.516 121.752 133.544 121.984C134.108 122.714 134.643 123.474 135.192 124.219H134.394C133.845 123.446 133.321 122.641 132.728 121.896C132.387 122.605 132.653 123.454 132.569 124.221H131.928C131.933 122.464 131.93 120.702 131.933 118.945ZM132.572 119.531C132.572 120.178 132.572 120.824 132.572 121.471C133.074 121.421 133.711 121.489 134.048 121.027C134.251 120.662 134.277 120.114 133.914 119.84C133.552 119.566 133.026 119.575 132.572 119.531Z" fill="#05000C"/>
<path d="M138.064 118.947H138.797C139.314 120.244 139.833 121.539 140.354 122.835C140.889 121.542 141.411 120.244 141.94 118.949H142.672C141.899 120.798 141.129 122.648 140.36 124.498C139.578 122.647 138.826 120.797 138.064 118.947Z" fill="#05000C"/>
<path d="M146.006 124.221C146.006 122.462 146.006 120.706 146.006 118.947H146.669C146.669 120.706 146.669 122.464 146.669 124.221H146.006Z" fill="#05000C"/>
<path d="M158.088 124.221C158.088 122.464 158.088 120.707 158.088 118.949H160.901V119.542H158.729C158.729 120.037 158.729 120.53 158.729 121.025H160.856V121.617H158.729C158.729 122.285 158.729 122.955 158.729 123.625H160.901C160.901 123.821 160.901 124.02 160.901 124.219L158.088 124.221Z" fill="#05000C"/>
</svg>
