<svg width="34" height="34" viewBox="0 0 34 34" fill="none" xmlns="http://www.w3.org/2000/svg">
<g clip-path="url(#clip0_1279_19772)">
<path d="M12.6167 21.4805C12.7913 21.4805 12.9627 21.4101 13.0862 21.2859C13.2097 21.1624 13.2808 20.9917 13.2808 20.8164C13.2808 20.6418 13.2097 20.4704 13.0862 20.3469C12.9627 20.2234 12.792 20.1523 12.6167 20.1523C12.4421 20.1523 12.2707 20.2234 12.1472 20.3469C12.0237 20.4704 11.9526 20.6418 11.9526 20.8164C11.9526 20.9917 12.0237 21.1624 12.1472 21.2859C12.2707 21.4101 12.4421 21.4805 12.6167 21.4805Z" fill="#0154A4"/>
<path d="M28.4101 15.7401V13.022H29.2847C29.9804 13.022 30.5464 12.456 30.5464 11.7603V6.57412C30.5464 5.87839 29.9804 5.31242 29.2847 5.31242H25.1447C26.0029 4.4706 26.5367 3.29914 26.5367 2.00491C26.5367 1.63815 26.2394 1.34085 25.8726 1.34085C25.5058 1.34085 25.2085 1.63815 25.2085 2.00491C25.2085 3.24555 24.5216 4.32823 23.5084 4.89413C23.7618 4.42544 23.9059 3.88942 23.9059 3.32026C23.9059 1.48947 22.4164 0 20.5856 0C19.0848 0 17.814 1.00119 17.4045 2.3706C16.8273 1.88617 16.0839 1.59373 15.2732 1.59373C14.4625 1.59373 13.7191 1.88617 13.1419 2.3706C12.7324 1.00119 11.4616 0 9.96078 0C8.12999 0 6.64052 1.48947 6.64052 3.32026C6.64052 3.88942 6.78462 4.42551 7.03802 4.89413C6.02481 4.32823 5.33785 3.24549 5.33785 2.00484C5.33785 1.63808 5.04055 1.34079 4.6738 1.34079C4.30704 1.34079 4.00975 1.63808 4.00975 2.00484C4.00975 3.29908 4.54351 4.47053 5.40173 5.31235H1.2617C0.565972 5.31235 0 5.87832 0 6.57405V11.7602C0 12.456 0.565972 13.0219 1.2617 13.0219H2.13626V29.351C2.13626 30.4495 3.02994 31.3432 4.12841 31.3432H17.8305C19.5486 32.9877 21.8771 33.9994 24.4377 33.9994C29.7104 33.9994 34 29.7098 34 24.4371C34 20.581 31.7054 17.2513 28.4101 15.7401ZM18.5935 4.91399V3.32026C18.5935 2.22179 19.4871 1.3281 20.5856 1.3281C21.6841 1.3281 22.5778 2.22179 22.5778 3.32026C22.5778 4.41874 21.6841 5.31242 20.5856 5.31242H18.5935V4.91399ZM18.5935 6.64052H29.2183V11.6939H18.5935V6.64052ZM18.5935 13.022H27.082V15.247C26.2419 15.0049 25.3547 14.8748 24.4377 14.8748C22.2385 14.8748 20.2107 15.6214 18.5935 16.874V13.022ZM13.281 4.91399C13.281 3.81551 14.1747 2.92183 15.2732 2.92183C16.3717 2.92183 17.2654 3.81551 17.2654 4.91399V5.31242H13.281V4.91399ZM13.281 6.64052H17.2654V11.6939H13.281V6.64052ZM9.96078 1.3281C11.0593 1.3281 11.9529 2.22179 11.9529 3.32026V4.91399V5.31242H9.96078C8.86231 5.31242 7.96863 4.41874 7.96863 3.32026C7.96863 2.22179 8.86231 1.3281 9.96078 1.3281ZM1.3281 11.6939V6.64052H11.9529V11.6939H2.80031H1.3281ZM13.281 30.0152V23.8052C13.281 23.4385 12.9837 23.1412 12.617 23.1412C12.2502 23.1412 11.9529 23.4385 11.9529 23.8052V30.0152H4.12841C3.76225 30.0152 3.46436 29.7173 3.46436 29.3511V13.022H11.9529V17.8287C11.9529 18.1955 12.2502 18.4928 12.617 18.4928C12.9837 18.4928 13.281 18.1955 13.281 17.8287V13.022H17.2654V18.1203C15.7787 19.8062 14.8753 22.018 14.8753 24.4371C14.8753 26.5173 15.5433 28.4441 16.6755 30.0152H13.281ZM24.4377 32.6714C19.8973 32.6714 16.2034 28.9775 16.2034 24.4371C16.2034 19.8967 19.8973 16.2029 24.4377 16.2029C28.978 16.2029 32.6719 19.8967 32.6719 24.4371C32.6719 28.9775 28.978 32.6714 24.4377 32.6714Z" fill="#0154A4"/>
<path d="M26.6029 20.0669C26.2728 19.9066 25.8756 20.0442 25.7154 20.3741L22.0615 27.8982C21.9013 28.2281 22.0389 28.6254 22.3688 28.7857C22.4622 28.831 22.561 28.8526 22.6584 28.8526C22.9047 28.8526 23.1413 28.7149 23.2562 28.4784L26.9101 20.9543C27.0703 20.6244 26.9328 20.227 26.6029 20.0669Z" fill="#0154A4"/>
<path d="M22.7592 19.6938C22.3578 19.2924 21.824 19.0713 21.2564 19.0713C20.6887 19.0713 20.155 19.2924 19.7536 19.6938C18.9249 20.5225 18.9249 21.8708 19.7536 22.6995C20.1679 23.1139 20.7121 23.321 21.2564 23.321C21.8006 23.321 22.345 23.1138 22.7593 22.6995C23.5879 21.8708 23.5879 20.5225 22.7592 19.6938ZM21.8201 21.7603C21.5093 22.0713 21.0035 22.0712 20.6927 21.7603C20.3818 21.4495 20.3818 20.9437 20.6927 20.6328C20.8432 20.4822 21.0434 20.3993 21.2564 20.3993C21.4694 20.3993 21.6695 20.4823 21.8201 20.6329C22.131 20.9437 22.131 21.4496 21.8201 21.7603Z" fill="#0154A4"/>
<path d="M26.2343 26.1742C25.4056 27.0029 25.4056 28.3513 26.2343 29.18C26.6357 29.5814 27.1695 29.8025 27.7371 29.8025C28.3049 29.8025 28.8386 29.5814 29.24 29.18C30.0687 28.3513 30.0687 27.0029 29.24 26.1742C28.4113 25.3455 27.063 25.3456 26.2343 26.1742ZM28.3009 28.2409C28.1503 28.3915 27.9501 28.4743 27.7371 28.4743C27.5242 28.4743 27.324 28.3914 27.1734 28.2408C26.8626 27.9299 26.8626 27.4242 27.1734 27.1133C27.3289 26.9579 27.533 26.8802 27.7371 26.8802C27.9413 26.8802 28.1455 26.9579 28.3009 27.1133C28.6117 27.4242 28.6117 27.93 28.3009 28.2409Z" fill="#0154A4"/>
</g>
<defs>
<clipPath id="clip0_1279_19772">
<rect width="34" height="34" fill="white"/>
</clipPath>
</defs>
</svg>
