<svg width="15" height="14" viewBox="0 0 15 14" fill="none" xmlns="http://www.w3.org/2000/svg">
<path d="M8.49845 13V8C8.49845 7.86739 8.55113 7.74022 8.64489 7.64645C8.73866 7.55268 8.86584 7.5 8.99845 7.5H10.9984C11.1311 7.5 11.2582 7.55268 11.352 7.64645C11.4458 7.74022 11.4984 7.86739 11.4984 8V13M8.49845 13H1.07178M8.49845 13H11.4984M11.4984 13H13.9251M12.9984 13V5.23267C13.2642 5.07927 13.4911 4.86679 13.6615 4.61168C13.832 4.35656 13.9415 4.06564 13.9815 3.76143C14.0215 3.45723 13.991 3.14789 13.8923 2.85737C13.7937 2.56684 13.6295 2.30291 13.4124 2.086L12.6191 1.29333C12.4318 1.10574 12.1776 1.00023 11.9124 1H3.08378C2.81865 1.00023 2.56447 1.10574 2.37711 1.29333L1.58445 2.08533C1.36794 2.30249 1.20419 2.56647 1.10583 2.85691C1.00746 3.14736 0.977111 3.45652 1.01711 3.76054C1.05711 4.06457 1.1664 4.35536 1.33654 4.61048C1.50668 4.86559 1.73314 5.07823 1.99845 5.232M1.99845 12.9993V5.23333C2.39846 5.46399 2.86595 5.54918 3.32161 5.47445C3.77727 5.39972 4.19306 5.16967 4.49845 4.82333C4.68598 5.0363 4.91678 5.20681 5.17544 5.3235C5.43411 5.44018 5.71468 5.50036 5.99845 5.5C6.59578 5.5 7.13178 5.238 7.49845 4.82267C7.68592 5.03575 7.91669 5.20639 8.17536 5.3232C8.43402 5.44 8.71463 5.50027 8.99845 5.5C9.59578 5.5 10.1318 5.238 10.4984 4.82267C10.8039 5.1689 11.2197 5.39882 11.6754 5.47342C12.1311 5.54803 12.5985 5.46273 12.9984 5.232M3.99845 10.9993H6.49845C6.63106 10.9993 6.75823 10.9467 6.852 10.8529C6.94577 10.7591 6.99845 10.6319 6.99845 10.4993V8C6.99845 7.86739 6.94577 7.74022 6.852 7.64645C6.75823 7.55268 6.63106 7.5 6.49845 7.5H3.99845C3.86584 7.5 3.73866 7.55268 3.64489 7.64645C3.55113 7.74022 3.49845 7.86739 3.49845 8V10.5C3.49845 10.7767 3.72245 10.9993 3.99845 10.9993Z" stroke="#0154A4" stroke-linecap="round" stroke-linejoin="round"/>
</svg>
