<svg width="20" height="20" viewBox="0 0 20 20" fill="none" xmlns="http://www.w3.org/2000/svg">
<path fill-rule="evenodd" clip-rule="evenodd" d="M13.2575 1.66699C15.8775 1.66699 17.6375 3.46116 17.6375 6.13116V13.7945C17.6375 16.4878 15.9317 18.2395 13.2917 18.2562L6.88083 18.2587C4.26083 18.2587 2.5 16.4645 2.5 13.7945V6.13116C2.5 3.43699 4.20583 1.68616 6.84583 1.67033L13.2567 1.66699H13.2575ZM13.2575 2.91699L6.85 2.92033C4.91 2.93199 3.75 4.13199 3.75 6.13116V13.7945C3.75 15.807 4.92083 17.0087 6.88 17.0087L13.2875 17.0062C15.2275 16.9945 16.3875 15.7928 16.3875 13.7945V6.13116C16.3875 4.11866 15.2175 2.91699 13.2575 2.91699ZM13.0968 12.8951C13.4418 12.8951 13.7218 13.1751 13.7218 13.5201C13.7218 13.8651 13.4418 14.1451 13.0968 14.1451H7.08008C6.73508 14.1451 6.45508 13.8651 6.45508 13.5201C6.45508 13.1751 6.73508 12.8951 7.08008 12.8951H13.0968ZM13.0968 9.40633C13.4418 9.40633 13.7218 9.68633 13.7218 10.0313C13.7218 10.3763 13.4418 10.6563 13.0968 10.6563H7.08008C6.73508 10.6563 6.45508 10.3763 6.45508 10.0313C6.45508 9.68633 6.73508 9.40633 7.08008 9.40633H13.0968ZM9.37567 5.92566C9.72067 5.92566 10.0007 6.20566 10.0007 6.55066C10.0007 6.89566 9.72067 7.17566 9.37567 7.17566H7.07983C6.73483 7.17566 6.45483 6.89566 6.45483 6.55066C6.45483 6.20566 6.73483 5.92566 7.07983 5.92566H9.37567Z" fill="#4E4E4E"/>
</svg>
