<svg width="34" height="34" viewBox="0 0 34 34" fill="none" xmlns="http://www.w3.org/2000/svg">
<path d="M32.6216 20.4462H29.9305V16.9674C29.9305 16.5736 29.668 16.311 29.2741 16.311H17.6564V13.4886H20.3475C21.1351 13.4886 21.7259 12.8979 21.7259 12.1103V5.48092C21.7259 4.69327 21.1351 4.10254 20.3475 4.10254H13.6525C12.8649 4.10254 12.2741 4.69327 12.2741 5.48092V12.1759C12.2741 12.9635 12.8649 13.5543 13.6525 13.5543H16.3436V16.311H4.72587C4.33205 16.311 4.0695 16.5736 4.0695 16.9674V20.4462H1.37838C0.590733 20.4462 0 21.0369 0 21.8245V28.5195C0 29.3072 0.590733 29.8979 1.37838 29.8979H8.07336C8.861 29.8979 9.45174 29.3072 9.45174 28.5195V21.8245C9.45174 21.0369 8.861 20.4462 8.07336 20.4462H5.38224V17.6238H16.3436V20.4462H13.6525C12.8649 20.4462 12.2741 21.0369 12.2741 21.8245V28.5195C12.2741 29.3072 12.8649 29.8979 13.6525 29.8979H20.3475C21.1351 29.8979 21.7259 29.3072 21.7259 28.5195V21.8245C21.7259 21.0369 21.1351 20.4462 20.3475 20.4462H17.6564V17.6238H28.6178V20.4462H25.9266C25.139 20.4462 24.5483 21.0369 24.5483 21.8245V28.5195C24.5483 29.3072 25.139 29.8979 25.9266 29.8979H32.6216C33.4093 29.8979 34 29.3072 34 28.5195V21.8245C34 21.0369 33.3436 20.4462 32.6216 20.4462ZM8.139 21.8245C8.139 21.7589 8.07336 21.7589 8.139 21.8245V28.5195C8.139 28.5852 8.139 28.5852 8.07336 28.5852H1.37838C1.31274 28.5852 1.31274 28.5852 1.31274 28.5195V21.8245C1.31274 21.7589 1.31274 21.7589 1.37838 21.7589L8.139 21.8245ZM20.4131 21.8245C20.4131 21.7589 20.3475 21.7589 20.4131 21.8245V28.5195C20.4131 28.5852 20.4131 28.5852 20.3475 28.5852H13.6525C13.5869 28.5852 13.5869 28.5852 13.5869 28.5195V21.8245C13.5869 21.7589 13.5869 21.7589 13.6525 21.7589L20.4131 21.8245ZM13.5869 12.1103C13.6525 12.1759 13.5869 12.1759 13.5869 12.1103V5.48092C13.5869 5.41528 13.5869 5.41528 13.6525 5.41528H20.3475C20.4131 5.41528 20.4131 5.41528 20.4131 5.48092V12.1759C20.4131 12.2415 20.4131 12.2415 20.3475 12.2415L13.5869 12.1103ZM32.6873 28.4539C32.6873 28.5195 32.6216 28.5195 32.6873 28.4539L25.9266 28.5195C25.861 28.5195 25.861 28.5195 25.861 28.4539V21.8245C25.861 21.7589 25.861 21.7589 25.9266 21.7589H32.6216C32.6873 21.7589 32.6873 21.7589 32.6873 21.8245V28.4539Z" fill="#0154A4"/>
</svg>
