<svg width="34" height="34" viewBox="0 0 34 34" fill="none" xmlns="http://www.w3.org/2000/svg">
<g clip-path="url(#clip0_1902_11091)">
<path d="M27.2101 19.7422H6.79023L4.59668 24.1293H6.58083V34.0003H27.4195V24.1293H29.4037L27.2101 19.7422ZM26.5322 20.839L27.6289 23.0325H18.9843L17.8876 20.839H26.5322ZM7.46821 20.839H16.1128L15.016 23.0325H6.37144L7.46821 20.839ZM26.3228 32.9035H17.5486V29.0648H16.4518V32.9035H7.67761V24.1293H15.694L16.4518 22.6135V27.4196H17.5486V22.6135L18.3064 24.1293H26.3228V32.9035Z" fill="#0154A4"/>
<path d="M8.77441 28.5166H12.0647V29.6134H8.77441V28.5166Z" fill="#0154A4"/>
<path d="M8.77441 30.71H12.0647V31.8067H8.77441V30.71Z" fill="#0154A4"/>
<path d="M13.1611 30.71H14.2579V31.8067H13.1611V30.71Z" fill="#0154A4"/>
<path d="M14.4675 8.91918L17 8.2736L19.5325 8.91865L19.731 6.1992L21.0762 3.90123L18.6968 2.87139L17 0.773438L15.3026 2.87139L12.9232 3.90123L14.2685 6.1992L14.4675 8.91918ZM15.986 3.77029L17 2.51714L18.014 3.77082L19.5044 4.41641L18.6561 5.86557L18.5343 7.53322L17 7.14228L15.4657 7.53268L15.3439 5.86503L14.4956 4.41561L15.986 3.77029Z" fill="#0154A4"/>
<path d="M6.02127 10.0384L6.81814 8.67789L5.40647 8.06631L4.38708 6.80566L3.36769 8.06578L1.95602 8.67736L2.7529 10.0379L2.87072 11.6606L4.38708 11.275L5.90398 11.6611L6.02127 10.0384ZM4.94645 9.70371L4.90468 10.2746L4.38708 10.1431L3.87002 10.2746L3.82772 9.70371L3.52782 9.19093L4.0505 8.96467L4.38708 8.54936L4.72313 8.96521L5.24581 9.19174L4.94645 9.70371Z" fill="#0154A4"/>
<path d="M31.2471 10.0384L32.044 8.67789L30.6323 8.06631L29.6129 6.80566L28.5935 8.06578L27.1819 8.67736L27.9787 10.0379L28.0965 11.6606L29.6129 11.275L31.1298 11.6611L31.2471 10.0384ZM30.1723 9.70371L30.1305 10.2746L29.6129 10.1431L29.0959 10.2746L29.0541 9.70371L28.7542 9.19093L29.2769 8.96467L29.6129 8.54936L29.949 8.96521L30.4716 9.19174L30.1723 9.70371Z" fill="#0154A4"/>
<path d="M6.82438 13.0688C7.86867 13.7652 8.79648 14.6151 9.58024 15.5957L11.7524 18.3098L11.303 14.7166C11.0685 12.8406 10.0665 11.1138 8.55415 9.97982L8.02879 9.58594L6.42139 12.7999L6.82438 13.0688ZM8.40501 11.2865C9.33228 12.164 9.96127 13.332 10.1768 14.5956C9.48411 13.7821 8.69821 13.0573 7.83198 12.4326L8.40501 11.2865Z" fill="#0154A4"/>
<path d="M22.6967 14.7172L22.2474 18.3103L24.4196 15.5957C25.2039 14.6151 26.1311 13.7652 27.1754 13.0688L27.5779 12.7999L25.9705 9.58594L25.4451 9.98089C23.9333 11.1149 22.9308 12.8412 22.6967 14.7172ZM26.1678 12.4331C25.3016 13.0578 24.5152 13.7821 23.823 14.5961C24.0391 13.3325 24.6675 12.1645 25.5948 11.2871L26.1678 12.4331Z" fill="#0154A4"/>
<path d="M19.1934 18.6449H20.2901V16.3472C20.2901 13.7131 21.2185 11.149 22.9054 9.12494L22.0625 8.42285C20.2122 10.6434 19.1934 13.4577 19.1934 16.3472V18.6449Z" fill="#0154A4"/>
<path d="M23.0322 6.58105H24.129V7.67783H23.0322V6.58105Z" fill="#0154A4"/>
<path d="M24.6772 4.38672H25.774V5.48349H24.6772V4.38672Z" fill="#0154A4"/>
<path d="M13.7095 18.6449H14.8062V16.3472C14.8062 13.4571 13.7874 10.6434 11.9377 8.42285L11.0947 9.12494C12.7811 11.149 13.7095 13.7131 13.7095 16.3472V18.6449Z" fill="#0154A4"/>
<path d="M9.87109 6.58105H10.9679V7.67783H9.87109V6.58105Z" fill="#0154A4"/>
<path d="M8.22559 4.38672H9.32236V5.48349H8.22559V4.38672Z" fill="#0154A4"/>
<path d="M16.4517 9.32227H17.5484V10.419H16.4517V9.32227Z" fill="#0154A4"/>
<path d="M16.4517 11.5166H17.5484V18.6456H16.4517V11.5166Z" fill="#0154A4"/>
<path d="M31.8065 14.8066H32.9032V15.9034H31.8065V14.8066Z" fill="#0154A4"/>
<path d="M31.8065 17H32.9032V18.0968H31.8065V17Z" fill="#0154A4"/>
<path d="M32.9032 15.9033H34V17.0001H32.9032V15.9033Z" fill="#0154A4"/>
<path d="M30.7097 15.9033H31.8065V17.0001H30.7097V15.9033Z" fill="#0154A4"/>
<path d="M30.1613 0H31.2581V1.09677H30.1613V0Z" fill="#0154A4"/>
<path d="M30.1613 2.19336H31.2581V3.29013H30.1613V2.19336Z" fill="#0154A4"/>
<path d="M31.2581 1.09668H32.3548V2.19345H31.2581V1.09668Z" fill="#0154A4"/>
<path d="M29.0645 1.09668H30.1613V2.19345H29.0645V1.09668Z" fill="#0154A4"/>
<path d="M1.09677 17H2.19355V18.0968H1.09677V17Z" fill="#0154A4"/>
<path d="M1.09677 19.1934H2.19355V20.2901H1.09677V19.1934Z" fill="#0154A4"/>
<path d="M2.19354 18.0967H3.29032V19.1935H2.19354V18.0967Z" fill="#0154A4"/>
<path d="M0 18.0967H1.09677V19.1935H0V18.0967Z" fill="#0154A4"/>
<path d="M1.09677 0H2.19355V1.09677H1.09677V0Z" fill="#0154A4"/>
<path d="M1.09677 2.19336H2.19355V3.29013H1.09677V2.19336Z" fill="#0154A4"/>
<path d="M2.19354 1.09668H3.29032V2.19345H2.19354V1.09668Z" fill="#0154A4"/>
<path d="M0 1.09668H1.09677V2.19345H0V1.09668Z" fill="#0154A4"/>
</g>
<defs>
<clipPath id="clip0_1902_11091">
<rect width="34" height="34" fill="white"/>
</clipPath>
</defs>
</svg>
