<svg width="22" height="22" viewBox="0 0 22 22" fill="none" xmlns="http://www.w3.org/2000/svg">
<path fill-rule="evenodd" clip-rule="evenodd" d="M15.2548 2.75C18.2862 2.75 20.752 5.21583 20.752 8.24817V14.8271C20.752 17.8585 18.2862 20.3253 15.2548 20.3253H7.33111C4.2997 20.3253 1.83295 17.8585 1.83295 14.8271V8.24817C1.83295 5.21583 4.2997 2.75 7.33111 2.75H15.2548ZM15.2548 4.125H7.33111C5.05778 4.125 3.20795 5.97483 3.20795 8.24817V14.8271C3.20795 17.1004 5.05778 18.9503 7.33111 18.9503H15.2548C17.5281 18.9503 19.377 17.1004 19.377 14.8271V14.5704L16.354 14.571C14.615 14.571 13.1997 13.1566 13.1988 11.4186C13.1988 9.67872 14.6141 8.26338 16.354 8.26247L19.377 8.26192V8.24817C19.377 5.97483 17.5281 4.125 15.2548 4.125ZM19.377 9.63692L16.354 9.63747C15.3722 9.63838 14.5738 10.4368 14.5738 11.4176C14.5738 12.3975 15.3731 13.196 16.354 13.196L19.377 13.1954V9.63692ZM16.7734 10.6733C17.1529 10.6733 17.4609 10.9813 17.4609 11.3608C17.4609 11.7403 17.1529 12.0483 16.7734 12.0483H16.4874C16.1079 12.0483 15.7999 11.7403 15.7999 11.3608C15.7999 10.9813 16.1079 10.6733 16.4874 10.6733H16.7734ZM11.6275 6.90992C12.007 6.90992 12.315 7.21793 12.315 7.59742C12.315 7.97692 12.007 8.28492 11.6275 8.28492H6.67845C6.29895 8.28492 5.99095 7.97692 5.99095 7.59742C5.99095 7.21793 6.29895 6.90992 6.67845 6.90992H11.6275Z" fill="#0154A4"/>
</svg>
