<svg width="64" height="64" viewBox="0 0 64 64" fill="none" xmlns="http://www.w3.org/2000/svg">
<rect x="0.5" y="0.5" width="63" height="63" rx="4.5" fill="white" stroke="#0154A4" stroke-dasharray="4 4"/>
<path d="M26.827 26.1752C26.647 26.4601 26.4068 26.7022 26.1233 26.8844C25.8399 27.0667 25.5199 27.1847 25.186 27.2302C24.806 27.2842 24.429 27.3422 24.052 27.4052C22.999 27.5802 22.25 28.5072 22.25 29.5742V38.0002C22.25 38.5969 22.4871 39.1692 22.909 39.5912C23.331 40.0132 23.9033 40.2502 24.5 40.2502H39.5C40.0967 40.2502 40.669 40.0132 41.091 39.5912C41.5129 39.1692 41.75 38.5969 41.75 38.0002V29.5742C41.75 28.5072 41 27.5802 39.948 27.4052C39.5707 27.3423 39.1927 27.284 38.814 27.2302C38.4802 27.1846 38.1605 27.0665 37.8772 26.8842C37.5939 26.702 37.3539 26.46 37.174 26.1752L36.352 24.8592C36.1674 24.5593 35.9132 24.3083 35.611 24.1274C35.3089 23.9466 34.9675 23.8412 34.616 23.8202C32.8733 23.7266 31.1267 23.7266 29.384 23.8202C29.0325 23.8412 28.6911 23.9466 28.389 24.1274C28.0868 24.3083 27.8326 24.5593 27.648 24.8592L26.827 26.1752Z" stroke="#0154A4" stroke-width="1.5" stroke-linecap="round" stroke-linejoin="round"/>
<path d="M36.5 32.75C36.5 33.9435 36.0259 35.0881 35.182 35.932C34.3381 36.7759 33.1935 37.25 32 37.25C30.8065 37.25 29.6619 36.7759 28.818 35.932C27.9741 35.0881 27.5 33.9435 27.5 32.75C27.5 31.5565 27.9741 30.4119 28.818 29.568C29.6619 28.7241 30.8065 28.25 32 28.25C33.1935 28.25 34.3381 28.7241 35.182 29.568C36.0259 30.4119 36.5 31.5565 36.5 32.75ZM38.75 30.5H38.758V30.508H38.75V30.5Z" stroke="#0154A4" stroke-width="1.5" stroke-linecap="round" stroke-linejoin="round"/>
</svg>
