<svg width="16" height="16" viewBox="0 0 16 16" fill="none" xmlns="http://www.w3.org/2000/svg">
<path d="M5.19226 1.87748C6.96096 0.849791 9.13497 0.867754 10.8871 1.92453C12.6219 3.00283 13.6764 4.92728 13.6666 6.99745C13.6262 9.05404 12.4955 10.9872 11.0822 12.4817C10.2665 13.3481 9.35402 14.1143 8.36335 14.7645C8.26132 14.8235 8.14956 14.863 8.03358 14.881C7.92196 14.8763 7.81326 14.8433 7.71727 14.7851C6.20482 13.8081 4.87794 12.561 3.80046 11.1038C2.89886 9.88739 2.38663 8.41781 2.33333 6.89462L2.33737 6.67304C2.41098 4.68481 3.48674 2.86846 5.19226 1.87748ZM8.73445 5.19491C8.01544 4.88928 7.18646 5.05533 6.63459 5.61552C6.08272 6.17571 5.9168 7.01954 6.21432 7.75301C6.51184 8.48649 7.2141 8.96492 7.9932 8.96492C8.50361 8.96859 8.99425 8.76414 9.3558 8.39715C9.71735 8.03015 9.91977 7.53109 9.91797 7.01116C9.92068 6.21755 9.45346 5.50054 8.73445 5.19491Z" fill="white"/>
</svg>
