<svg width="12" height="14" viewBox="0 0 12 14" fill="none" xmlns="http://www.w3.org/2000/svg">
<path d="M5.9953 0.333984C9.10375 0.333984 11.6663 2.81258 11.6663 5.87916C11.6663 7.42444 11.1043 8.85907 10.1793 10.075C9.15888 11.4163 7.90111 12.585 6.48537 13.5023C6.16135 13.7143 5.86892 13.7303 5.51331 13.5023C4.0895 12.585 2.83173 11.4163 1.82001 10.075C0.89433 8.85907 0.333008 7.42444 0.333008 5.87916C0.333008 2.81258 2.8956 0.333984 5.9953 0.333984ZM5.9953 4.18521C4.96745 4.18521 4.12916 5.03251 4.12916 6.05182C4.12916 7.07912 4.96745 7.8871 5.9953 7.8871C7.02384 7.8871 7.87019 7.07912 7.87019 6.05182C7.87019 5.03251 7.02384 4.18521 5.9953 4.18521Z" fill="#0154A4"/>
</svg>
