<svg width="22" height="22" viewBox="0 0 22 22" fill="none" xmlns="http://www.w3.org/2000/svg">
<path fill-rule="evenodd" clip-rule="evenodd" d="M11.245 1.83398C11.9013 1.83398 12.5393 2.10348 12.9967 2.5719C13.4532 3.04307 13.7053 3.68932 13.686 4.34473C13.6879 4.49232 13.7365 4.66282 13.8245 4.81223C13.9702 5.05973 14.2003 5.2339 14.4735 5.3054C14.7466 5.37323 15.0326 5.33657 15.2755 5.19265C16.4489 4.52257 17.9421 4.92407 18.6122 6.08823L19.1833 7.07732C19.198 7.1039 19.2108 7.12957 19.2218 7.15615C19.8286 8.3029 19.4235 9.74665 18.296 10.4057C18.1319 10.5002 17.999 10.6322 17.9073 10.7917C17.7652 11.0382 17.7258 11.3316 17.7973 11.6011C17.8706 11.8761 18.0457 12.1043 18.2923 12.2455C18.8487 12.5654 19.264 13.1044 19.4299 13.7268C19.5958 14.3483 19.505 15.023 19.1815 15.5794L18.5728 16.5932C17.9027 17.7446 16.4095 18.1433 15.248 17.4723C15.0931 17.3834 14.9144 17.3348 14.7365 17.3302H14.731C14.4661 17.3302 14.1939 17.443 13.9959 17.6401C13.7951 17.8408 13.6851 18.1085 13.687 18.3927C13.6805 19.7392 12.5851 20.8282 11.245 20.8282H10.0964C8.7498 20.8282 7.65438 19.7337 7.65438 18.3872C7.65255 18.2212 7.60488 18.0489 7.51596 17.8995C7.37205 17.6483 7.13921 17.4687 6.87063 17.3972C6.60388 17.3257 6.31146 17.3651 6.0713 17.5044C5.49563 17.8252 4.81821 17.9032 4.19854 17.729C3.5798 17.5539 3.04538 17.1286 2.73188 16.5648L2.15896 15.5776C1.48888 14.4152 1.88763 12.9257 3.04813 12.2547C3.37721 12.0649 3.58163 11.7111 3.58163 11.3316C3.58163 10.9521 3.37721 10.5973 3.04813 10.4076C1.88671 9.7329 1.48888 8.23965 2.15805 7.07732L2.77955 6.05707C3.44046 4.90757 4.93463 4.5024 6.09971 5.17157C6.2583 5.26598 6.43063 5.31365 6.60571 5.31548C7.1768 5.31548 7.65438 4.84432 7.66355 4.26498C7.65988 3.62607 7.91196 3.01282 8.37121 2.5499C8.83229 2.0879 9.44463 1.83398 10.0964 1.83398H11.245ZM11.245 3.20898H10.0964C9.81221 3.20898 9.54638 3.3199 9.34563 3.51973C9.1458 3.72048 9.03671 3.98723 9.03855 4.2714C9.0193 5.61157 7.92388 6.69049 6.59746 6.69049C6.17213 6.6859 5.76238 6.57132 5.40671 6.35865C4.90713 6.07448 4.25446 6.24957 3.96205 6.75832L3.34146 7.77857C3.0573 8.27173 3.23146 8.92348 3.73746 9.21773C4.48821 9.65224 4.95663 10.4626 4.95663 11.3316C4.95663 12.2006 4.48821 13.01 3.73563 13.4454C3.23238 13.7369 3.05821 14.385 3.34971 14.8892L3.92813 15.8865C4.07113 16.1441 4.30488 16.3302 4.57529 16.4062C4.84479 16.4814 5.1418 16.4493 5.3893 16.3118C5.75321 16.0982 6.17671 15.9873 6.60205 15.9873C6.81196 15.9873 7.02188 16.0139 7.22721 16.0689C7.84688 16.2357 8.38496 16.6501 8.70396 17.2065C8.91113 17.5557 9.02571 17.9637 9.02938 18.3798C9.02938 18.9757 9.50788 19.4532 10.0964 19.4532H11.245C11.8307 19.4532 12.3092 18.9784 12.312 18.3927C12.3083 17.7455 12.5613 17.1304 13.0242 16.6675C13.4807 16.211 14.1187 15.9369 14.7567 15.9552C15.1747 15.9653 15.5771 16.0781 15.9319 16.2797C16.4425 16.5722 17.0942 16.398 17.3894 15.8938L17.998 14.8791C18.1337 14.6453 18.1731 14.352 18.1007 14.0816C18.0292 13.8112 17.8495 13.5765 17.6075 13.4381C17.041 13.1117 16.6368 12.5856 16.469 11.9549C16.3031 11.3362 16.3939 10.6606 16.7175 10.1042C16.9283 9.73748 17.2372 9.42857 17.6075 9.2159C18.1044 8.92532 18.2785 8.2754 17.9898 7.7694C17.9779 7.74923 17.9669 7.72815 17.9577 7.70615L17.4205 6.77482C17.1281 6.26607 16.4773 6.09098 15.9667 6.38157C15.4149 6.7079 14.7585 6.8014 14.1279 6.63548C13.4981 6.47232 12.9701 6.07357 12.641 5.51073C12.4302 5.15873 12.3156 4.74898 12.312 4.3319C12.3202 4.0184 12.2102 3.73698 12.0104 3.53073C11.8115 3.3254 11.5319 3.20898 11.245 3.20898ZM10.6747 8.22691C12.3861 8.22691 13.7785 9.62024 13.7785 11.3317C13.7785 13.0431 12.3861 14.4346 10.6747 14.4346C8.96329 14.4346 7.57087 13.0431 7.57087 11.3317C7.57087 9.62024 8.96329 8.22691 10.6747 8.22691ZM10.6747 9.60191C9.72137 9.60191 8.94587 10.3783 8.94587 11.3317C8.94587 12.285 9.72137 13.0596 10.6747 13.0596C11.628 13.0596 12.4035 12.285 12.4035 11.3317C12.4035 10.3783 11.628 9.60191 10.6747 9.60191Z" fill="#0154A4"/>
</svg>
