<svg width="22" height="22" viewBox="0 0 22 22" fill="none" xmlns="http://www.w3.org/2000/svg">
<path fill-rule="evenodd" clip-rule="evenodd" d="M18.1866 16.677C18.1866 19.6983 14.0432 20.0475 10.9275 20.0475L10.7045 20.0473C8.71942 20.0425 3.66656 19.9172 3.66656 16.6586C3.66656 13.6989 7.64339 13.3034 10.7354 13.2885L11.1504 13.2882C13.1354 13.2931 18.1866 13.4184 18.1866 16.677ZM10.9275 14.663C7.02156 14.663 5.04156 15.334 5.04156 16.6586C5.04156 17.9951 7.02156 18.6725 10.9275 18.6725C14.8325 18.6725 16.8116 18.0015 16.8116 16.677C16.8116 15.3405 14.8325 14.663 10.9275 14.663ZM10.9275 1.83301C13.6115 1.83301 15.7941 4.01651 15.7941 6.70051C15.7941 9.38451 13.6115 11.5671 10.9275 11.5671H10.8981C8.21965 11.5588 6.0499 9.37442 6.05904 6.69776C6.05904 4.01651 8.24257 1.83301 10.9275 1.83301ZM10.9275 3.14201C8.9649 3.14201 7.36805 4.73792 7.36805 6.70051C7.36165 8.65667 8.94657 10.2517 10.9009 10.259L10.9275 10.9135V10.259C12.8891 10.259 14.4851 8.66217 14.4851 6.70051C14.4851 4.73792 12.8891 3.14201 10.9275 3.14201Z" fill="#0154A4"/>
</svg>
