<svg width="33" height="33" viewBox="0 0 33 33" fill="none" xmlns="http://www.w3.org/2000/svg">
<path d="M4.01437 9.36617V6.69017C4.01437 5.98045 4.2963 5.29979 4.79815 4.79794C5.3 4.2961 5.98065 4.01416 6.69037 4.01416H9.36638" stroke="#0154A4" stroke-width="1.69011" stroke-linecap="round" stroke-linejoin="round"/>
<path d="M22.7464 4.01416H25.4224C26.1321 4.01416 26.8127 4.2961 27.3146 4.79794C27.8164 5.29979 28.0984 5.98045 28.0984 6.69017V9.36617" stroke="#0154A4" stroke-width="1.69011" stroke-linecap="round" stroke-linejoin="round"/>
<path d="M28.0984 22.7461V25.4221C28.0984 26.1318 27.8164 26.8125 27.3146 27.3143C26.8127 27.8162 26.1321 28.0981 25.4224 28.0981H22.7464" stroke="#0154A4" stroke-width="1.69011" stroke-linecap="round" stroke-linejoin="round"/>
<path d="M9.36638 28.0981H6.69037C5.98065 28.0981 5.3 27.8162 4.79815 27.3143C4.2963 26.8125 4.01437 26.1318 4.01437 25.4221V22.7461" stroke="#0154A4" stroke-width="1.69011" stroke-linecap="round" stroke-linejoin="round"/>
<path d="M9.36607 16.0562H22.7461" stroke="#0154A4" stroke-width="1.69011" stroke-linecap="round" stroke-linejoin="round"/>
</svg>
