<svg width="22" height="22" viewBox="0 0 22 22" fill="none" xmlns="http://www.w3.org/2000/svg">
<path fill-rule="evenodd" clip-rule="evenodd" d="M14.5829 1.83301C17.4649 1.83301 19.4009 3.80659 19.4009 6.74359V15.1733C19.4009 18.1359 17.5245 20.0628 14.6205 20.0811L7.56861 20.0838C4.68661 20.0838 2.74969 18.1103 2.74969 15.1733V6.74359C2.74969 3.78001 4.62611 1.85409 7.53011 1.83667L14.582 1.83301H14.5829ZM14.5829 3.20801L7.53469 3.21167C5.40069 3.22451 4.12469 4.54451 4.12469 6.74359V15.1733C4.12469 17.387 5.41261 18.7088 7.5677 18.7088L14.6159 18.7061C16.7499 18.6933 18.0259 17.3714 18.0259 15.1733V6.74359C18.0259 4.52984 16.7389 3.20801 14.5829 3.20801ZM14.4061 14.1839C14.7856 14.1839 15.0936 14.4919 15.0936 14.8714C15.0936 15.2509 14.7856 15.5589 14.4061 15.5589H7.78779C7.40829 15.5589 7.10029 15.2509 7.10029 14.8714C7.10029 14.4919 7.40829 14.1839 7.78779 14.1839H14.4061ZM14.4061 10.3463C14.7856 10.3463 15.0936 10.6543 15.0936 11.0338C15.0936 11.4133 14.7856 11.7213 14.4061 11.7213H7.78779C7.40829 11.7213 7.10029 11.4133 7.10029 11.0338C7.10029 10.6543 7.40829 10.3463 7.78779 10.3463H14.4061ZM10.3129 6.51754C10.6924 6.51754 11.0004 6.82554 11.0004 7.20504C11.0004 7.58454 10.6924 7.89254 10.3129 7.89254H7.78751C7.40801 7.89254 7.10001 7.58454 7.10001 7.20504C7.10001 6.82554 7.40801 6.51754 7.78751 6.51754H10.3129Z" fill="#0154A4"/>
</svg>
