<svg width="22" height="22" viewBox="0 0 22 22" fill="none" xmlns="http://www.w3.org/2000/svg">
<path fill-rule="evenodd" clip-rule="evenodd" d="M11.4433 1.83301C12.4819 1.83301 17.9314 3.70392 18.6529 4.42534C19.2542 5.02667 19.245 5.51251 19.2029 7.84084C19.1864 8.77401 19.1634 10.0454 19.1634 11.8054C19.1634 18.1139 11.9493 20.3708 11.6422 20.4633C11.5771 20.4835 11.5102 20.4927 11.4433 20.4927C11.3764 20.4927 11.3094 20.4835 11.2444 20.4633C10.9373 20.3708 3.72311 18.1139 3.72311 11.8054C3.72311 10.0482 3.7002 8.77676 3.6837 7.84359C3.67617 7.42733 3.66969 7.0699 3.66756 6.76015L3.6673 6.41063C3.67516 5.26237 3.78293 4.87634 4.23461 4.42534C4.9542 3.70392 10.4038 1.83301 11.4433 1.83301ZM11.4433 3.20801C10.6659 3.20801 5.76178 4.93501 5.1962 5.40709C5.02936 5.57484 5.02295 5.86634 5.0587 7.81792C5.0752 8.75842 5.09811 10.0363 5.09811 11.8054C5.09811 16.573 10.3433 18.6896 11.4424 19.0792C12.5405 18.6878 17.7884 16.5593 17.7884 11.8054C17.7884 10.0344 17.8114 8.75567 17.8288 7.81517C17.8636 5.86542 17.8572 5.57392 17.6803 5.39792C17.1257 4.93501 12.2206 3.20801 11.4433 3.20801ZM14.8547 8.56088C15.1232 8.82947 15.1232 9.26488 14.8547 9.53347L11.2815 13.1076C11.1788 13.211 11.0462 13.278 10.9039 13.3007L10.7957 13.3092C10.6132 13.3092 10.4382 13.2368 10.3089 13.1076L8.57457 11.3714C8.30691 11.1028 8.30691 10.6665 8.57549 10.3988C8.84316 10.1302 9.27949 10.1302 9.54807 10.3988L10.7957 11.6482L13.883 8.56088C14.1516 8.2923 14.5861 8.2923 14.8547 8.56088Z" fill="#0154A4"/>
</svg>
