<svg width="34" height="34" viewBox="0 0 34 34" fill="none" xmlns="http://www.w3.org/2000/svg">
<g clip-path="url(#clip0_1902_11089)">
<path d="M31.1757 8.47249H30.831C30.6273 7.75698 30.3427 7.07049 29.9809 6.42145L30.2259 6.17642C30.5062 5.89626 30.6604 5.5226 30.6604 5.12424C30.6604 4.72588 30.5062 4.35229 30.2257 4.0718L28.5935 2.4415C28.3132 2.15948 27.9391 2.00422 27.54 2.00422C27.1409 2.00422 26.7667 2.15948 26.4878 2.4401L26.2431 2.6848C25.5936 2.3219 24.9069 2.03676 24.1918 1.8331V1.48852C24.1919 0.667764 23.5242 0 22.7034 0H20.3957C19.5749 0 18.9072 0.667764 18.9072 1.48852V1.8331C18.1923 2.03669 17.5051 2.3219 16.8543 2.68507L16.6107 2.4415C16.3303 2.15948 15.9562 2.00422 15.5571 2.00429C15.1581 2.00429 14.784 2.15961 14.5051 2.44017L12.8732 4.07213C12.5929 4.35229 12.4386 4.72595 12.4386 5.12431C12.4386 5.52267 12.5929 5.89626 12.8731 6.17642L13.118 6.42139C12.7547 7.07242 12.47 7.75904 12.2674 8.47249H11.9215C11.1007 8.47249 10.433 9.14026 10.433 9.96102V12.2707C10.433 13.0915 11.1007 13.7592 11.9215 13.7592H12.2674C12.47 14.4726 12.7547 15.1592 13.118 15.8103L12.8731 16.0553C12.5928 16.3355 12.4386 16.7091 12.4386 17.1075C12.4386 17.5058 12.5928 17.8794 12.8731 18.1596L14.5037 19.7902C14.784 20.0722 15.158 20.2275 15.5571 20.2275H15.5571C15.9562 20.2275 16.3303 20.0722 16.6093 19.7916L16.8542 19.5466C17.5057 19.9101 18.1929 20.195 18.9071 20.3975V20.7433C18.9071 21.564 19.5749 22.2318 20.3956 22.2318H22.7033C23.5241 22.2318 24.1918 21.564 24.1918 20.7433V20.3975C24.9063 20.1949 25.5929 19.9102 26.2431 19.5469L26.4865 19.7902C26.7667 20.0722 27.1409 20.2275 27.5399 20.2275C27.939 20.2275 28.3132 20.0722 28.5918 19.7919L30.2259 18.1596C30.5061 17.8794 30.6604 17.5057 30.6604 17.1074C30.6604 16.709 30.5061 16.3355 30.2259 16.0553L29.9809 15.8103C30.3426 15.1612 30.6272 14.4747 30.831 13.7592H31.1756C31.9964 13.7592 32.6641 13.0915 32.6641 12.2707V9.96102C32.6642 9.14026 31.9965 8.47249 31.1757 8.47249ZM22.8638 20.7432C22.8638 20.8302 22.7904 20.9036 22.7034 20.9036H20.3957C20.3087 20.9036 20.2353 20.8302 20.2353 20.7432V19.8811V15.6947C20.2353 15.417 20.0625 15.1687 19.8022 15.0721C18.0177 14.4103 16.8189 12.693 16.8189 10.7987C16.8189 9.2975 17.5664 7.89026 18.8181 7.03463C18.8743 6.99625 18.924 6.96491 18.9674 6.93921C18.965 7.02554 18.9589 7.10761 18.9556 7.15044C18.9507 7.21784 18.9467 7.27103 18.9467 7.32383V10.4579C18.9467 11.8964 20.0707 13.0978 21.5055 13.193C21.5348 13.1949 21.5641 13.1949 21.5934 13.193C23.0272 13.0979 24.1504 11.8965 24.1504 10.4579V7.32383C24.1504 7.2713 24.1465 7.21844 24.1416 7.15144C24.1384 7.10841 24.1323 7.02587 24.13 6.93914C24.1733 6.96478 24.2227 6.99605 24.2786 7.03437C25.5307 7.89019 26.2782 9.29744 26.2782 10.7986C26.2782 12.6927 25.08 14.4101 23.2966 15.0721C23.0364 15.1687 22.8637 15.417 22.8637 15.6947V19.881V20.7432H22.8638ZM31.3361 12.2707C31.3361 12.3562 31.2611 12.4311 31.1757 12.4311H30.3155C30.0052 12.4311 29.7363 12.646 29.6678 12.9486C29.4575 13.8778 29.0933 14.7564 28.5852 15.5601C28.4194 15.8225 28.4575 16.1649 28.677 16.3845L29.2869 16.9944C29.3265 17.034 29.3324 17.0822 29.3324 17.1074C29.3324 17.1326 29.3265 17.1809 29.2871 17.2202L27.6517 18.8539C27.6143 18.8914 27.5702 18.8993 27.54 18.8993C27.5097 18.8993 27.4658 18.8914 27.427 18.8524L26.8171 18.2425C26.5972 18.0227 26.2545 17.9848 25.9921 18.1511C25.4252 18.5103 24.8219 18.7953 24.1919 19.0059V16.1364C26.252 15.1776 27.6064 13.0883 27.6064 10.7986C27.6064 8.85844 26.6426 7.04134 25.0283 5.9379C24.781 5.7689 24.029 5.25473 23.3712 5.6333C22.7254 6.00516 22.7897 6.87686 22.8171 7.24912C22.8195 7.28146 22.8219 7.30862 22.8224 7.32383V10.4579C22.8224 11.1848 22.2668 11.7942 21.5495 11.8642C20.8312 11.7941 20.2748 11.1847 20.2748 10.4579L20.2748 7.32861C20.2754 7.30862 20.2778 7.28146 20.2802 7.24899C20.3078 6.87692 20.3727 6.0057 19.7274 5.63363C19.0699 5.25439 18.3168 5.76876 18.069 5.9379C16.4546 7.04141 15.4908 8.8585 15.4908 10.7986C15.4908 13.0887 16.8459 15.1782 18.9072 16.1366V19.006C18.2771 18.7953 17.673 18.5102 17.1045 18.1508C16.9952 18.0818 16.8722 18.0481 16.7498 18.0481C16.5783 18.0481 16.4082 18.1144 16.2801 18.2426L15.6689 18.8539C15.6315 18.8915 15.5875 18.8994 15.5572 18.8994C15.5269 18.8994 15.483 18.8915 15.4442 18.8525L13.8123 17.2205C13.7726 17.1809 13.7667 17.1326 13.7667 17.1075C13.7667 17.0822 13.7726 17.034 13.8123 16.9944L14.4221 16.3845C14.6417 16.1649 14.6798 15.8225 14.5139 15.5601C14.0033 14.7522 13.6391 13.8739 13.4316 12.9497C13.3636 12.6465 13.0944 12.4311 12.7837 12.4311H11.9216C11.8361 12.4311 11.7612 12.3561 11.7612 12.2706V9.96095C11.7612 9.87396 11.8346 9.80052 11.9216 9.80052H12.7837C13.0944 9.80052 13.3635 9.58503 13.4316 9.2819C13.6391 8.35768 14.0032 7.47935 14.5139 6.67147C14.6798 6.40904 14.6417 6.06665 14.4221 5.84712L13.8122 5.2372C13.7726 5.19762 13.7667 5.14941 13.7667 5.12417C13.7667 5.09894 13.7726 5.05073 13.8123 5.01109L15.4456 3.37767C15.483 3.34008 15.527 3.33218 15.5573 3.33218C15.5875 3.33218 15.6315 3.34008 15.6703 3.37906L16.2801 3.98899C16.4998 4.20859 16.8422 4.24664 17.1046 4.08076C17.9114 3.57064 18.7907 3.20575 19.7176 2.99637C20.0204 2.92798 20.2354 2.65897 20.2354 2.34866V1.48852C20.2354 1.40153 20.3088 1.32809 20.3958 1.32809H22.7035C22.7905 1.32809 22.864 1.40153 22.864 1.48852V2.3488C22.864 2.65917 23.0789 2.92811 23.3816 2.99651C24.3094 3.20608 25.1877 3.57077 25.9922 4.08056C26.2547 4.24684 26.5974 4.20899 26.8172 3.98919L27.4285 3.37787C27.4659 3.34028 27.5099 3.33238 27.5401 3.33238C27.5704 3.33238 27.6143 3.34028 27.6534 3.37953L29.2871 5.01129C29.3266 5.05086 29.3326 5.09907 29.3326 5.12431C29.3326 5.14954 29.3266 5.19775 29.287 5.23739L28.6771 5.84732C28.4576 6.06685 28.4195 6.40924 28.5854 6.67167C29.0934 7.47536 29.4577 8.35396 29.668 9.28323C29.7364 9.58583 30.0054 9.80065 30.3156 9.80065H31.1758C31.2628 9.80065 31.3362 9.87409 31.3362 9.96108V12.2707H31.3361Z" fill="#0154A4"/>
<path d="M25.419 29.2398C25.1596 29.4991 25.1596 29.9196 25.419 30.179C25.5487 30.3086 25.7186 30.3735 25.8885 30.3735C26.0585 30.3735 26.2284 30.3086 26.3581 30.179L26.3599 30.1771C26.6193 29.9178 26.6183 29.4982 26.3589 29.2389C26.0996 28.9796 25.6783 28.9806 25.419 29.2398Z" fill="#0154A4"/>
<path d="M28.495 22.807L23.2231 25.5144C22.7762 25.0516 22.15 24.7628 21.4573 24.7628H17.8452C17.6429 24.7628 17.5935 24.7468 17.5902 24.7456C17.5609 24.7302 17.4683 24.6432 17.394 24.5734L17.3611 24.5424C14.4387 21.7915 11.9702 21.9658 9.16291 23.0737C8.7087 23.253 8.69993 23.2534 8.2438 23.2728L7.42702 23.2734C7.19434 22.5715 6.53216 22.0635 5.75316 22.0635H3.09725C2.12595 22.0635 1.3358 22.8546 1.3358 23.8269V30.7973C1.3358 31.7685 2.12595 32.5587 3.09725 32.5587H5.75316C6.53209 32.5587 7.19421 32.0513 7.42696 31.3502H8.92106C9.05301 31.3502 9.05301 31.3502 9.20647 31.3935C9.26225 31.4092 9.33011 31.4283 9.41777 31.4519L16.2902 33.2905C16.5932 33.3723 16.871 33.4529 17.1398 33.5307C18.0203 33.7858 18.7604 34.0003 19.5318 34.0003C20.4037 34.0003 21.3154 33.7263 22.5145 32.9272C22.5203 32.9233 22.526 32.9194 22.5317 32.9153L23.8438 31.9797C24.1424 31.7668 24.2118 31.3521 23.9989 31.0535C23.7859 30.7548 23.3712 30.6854 23.0727 30.8984L21.7694 31.8277C20.0293 32.9851 19.2905 32.7711 17.5094 32.2551C17.235 32.1756 16.9513 32.0934 16.6351 32.008L9.76214 30.1693C9.68166 30.1476 9.61851 30.1298 9.56671 30.1152C9.31597 30.0446 9.22221 30.0223 8.92113 30.0223H7.51654V24.6021H8.23417C8.24373 24.6021 8.25316 24.6019 8.26273 24.6015L8.30058 24.5999C8.85725 24.5761 9.01297 24.5609 9.65058 24.3091C12.1161 23.3362 14.0193 23.2206 16.4517 25.5104L16.4845 25.5413C16.9002 25.9319 17.1396 26.091 17.8452 26.091H21.4574C21.8813 26.091 22.251 26.3264 22.4437 26.6731C22.4457 26.6769 22.4481 26.6806 22.4503 26.6844C22.5363 26.8436 22.5853 27.0257 22.5853 27.2191C22.5853 27.84 22.0794 28.3452 21.4574 28.3452H15.6034C15.2367 28.3452 14.9394 28.6424 14.9394 29.0092C14.9394 29.3759 15.2367 29.6732 15.6034 29.6732H21.4574C22.8117 29.6732 23.9134 28.5723 23.9134 27.2191C23.9134 27.0351 23.8924 26.8561 23.8539 26.6836L29.1017 23.9886C29.5984 23.7336 30.2776 23.761 30.6148 24.3082C30.9131 24.7904 30.749 25.4315 30.2334 25.7991L27.9314 27.4387C27.6326 27.6514 27.5629 28.0661 27.7756 28.3648C27.9052 28.5467 28.1096 28.6437 28.3171 28.6437C28.4504 28.6437 28.5849 28.6037 28.7017 28.5205L31.004 26.8808C32.0974 26.1013 32.4157 24.695 31.7448 23.6105C31.0852 22.5399 29.6882 22.1945 28.495 22.807ZM6.18838 30.7973C6.18838 31.0322 5.9891 31.2306 5.75316 31.2306H3.09725C2.86231 31.2306 2.66389 31.0321 2.66389 30.7973V23.8269C2.66389 23.5869 2.85832 23.3916 3.09725 23.3916H5.75316C5.9891 23.3916 6.18838 23.5909 6.18838 23.8269V30.7973Z" fill="#0154A4"/>
</g>
<defs>
<clipPath id="clip0_1902_11089">
<rect width="34" height="34" fill="white"/>
</clipPath>
</defs>
</svg>
