<svg width="32" height="32" viewBox="0 0 32 32" fill="none" xmlns="http://www.w3.org/2000/svg">
<path d="M7.33877 10.1693C8.77087 10.1693 9.93564 9.00455 9.93564 7.57246C9.93564 6.14071 8.77087 4.97559 7.33877 4.97559C5.90703 4.97559 4.74226 6.14036 4.74226 7.57246C4.74226 9.00455 5.90703 10.1693 7.33877 10.1693ZM7.33877 6.0364C8.18601 6.0364 8.87483 6.72557 8.87483 7.57246C8.87483 8.41969 8.18601 9.10851 7.33877 9.10851C6.49189 9.10851 5.80307 8.41934 5.80307 7.57246C5.80307 6.72557 6.49189 6.0364 7.33877 6.0364Z" fill="#0154A4"/>
<path d="M11.5542 17.9649C11.5234 17.9581 11.4788 17.9497 11.4244 17.9472C11.3119 17.9309 11.2119 17.9352 11.1295 17.939L6.46403 17.9415C6.17124 17.9415 5.93362 18.1788 5.93362 18.4719C5.93362 18.7651 6.17124 19.0023 6.46403 19.0023H11.0535C11.0952 19.0023 11.1362 19.0006 11.1772 18.9988C11.2098 18.9974 11.2409 18.9931 11.2695 18.9967C11.2985 19.003 11.3282 19.0066 11.3579 19.008C11.3943 19.0158 11.4488 19.0253 11.5142 19.0253C11.8176 19.0253 12.0648 19.2721 12.0648 19.5755V28.3881C12.0648 28.6915 11.818 28.9383 11.5142 28.9383C11.2112 28.9383 10.9643 28.6915 10.9643 28.3881V21.5547C10.9643 21.2615 10.7267 21.0242 10.4339 21.0242H4.24693C3.68929 21.0242 3.23562 20.5706 3.23562 20.0133C3.23562 19.9542 3.24517 19.8973 3.25471 19.8407C3.26355 19.788 3.26426 19.7343 3.25719 19.6813L3.25082 19.6385C3.2441 19.5911 3.23562 19.5434 3.23562 19.4938V12.5579C3.23562 11.8139 3.84099 11.2089 4.58462 11.2089C5.32825 11.2089 5.93327 11.8139 5.93327 12.5579V14.8369C5.93327 15.13 6.17089 15.3673 6.46367 15.3673H11.2649C11.4601 15.3673 11.6185 15.5261 11.6185 15.7209C11.6185 15.9157 11.4601 16.0745 11.2649 16.0745H7.34768C7.28368 16.0745 7.22039 16.0862 7.16063 16.1088L5.79324 16.6243C5.77132 16.6325 5.7501 16.6424 5.72924 16.6533L5.14579 16.967L5.16276 13.0922C5.16418 12.7994 4.92762 12.5607 4.63483 12.5597C4.63377 12.5597 4.63306 12.5597 4.63236 12.5597C4.34063 12.5597 4.10336 12.7955 4.10195 13.088L4.08109 17.8542C4.08038 18.0412 4.17797 18.2149 4.33851 18.311C4.49905 18.4072 4.69848 18.4122 4.86255 18.3238L6.20024 17.6045L7.44457 17.1357H11.2649C12.045 17.1357 12.6793 16.5013 12.6793 15.7212C12.6793 14.9412 12.045 14.3068 11.2649 14.3068H6.99408V12.5583C6.99408 11.2294 5.91311 10.1484 4.58462 10.1484C3.25613 10.1484 2.1748 11.2294 2.1748 12.5583V19.4942C2.1748 19.5812 2.18364 19.6657 2.19531 19.7499C2.184 19.8312 2.1748 19.9185 2.1748 20.0136C2.1748 21.1558 3.10443 22.0854 4.24693 22.0854H9.90318V28.3881C9.90318 29.2763 10.6256 29.9991 11.5139 29.9991C12.4025 29.9991 13.1252 29.2767 13.1252 28.3881V19.5752C13.1249 18.7004 12.424 17.9861 11.5542 17.9649Z" fill="#0154A4"/>
<path d="M8.65663 22.5688H1.54812V11.8429C1.54812 11.5498 1.3105 11.3125 1.01771 11.3125C0.724927 11.3125 0.487305 11.5498 0.487305 11.8429V23.0992C0.487305 23.3923 0.724927 23.6296 1.01771 23.6296H1.68249V29.469C1.68249 29.7622 1.92011 29.9994 2.21289 29.9994C2.50568 29.9994 2.7433 29.7622 2.7433 29.469V23.6296H6.63295V29.469C6.63295 29.7622 6.87057 29.9994 7.16336 29.9994C7.45614 29.9994 7.69376 29.7622 7.69376 29.469V23.6296H8.65698C8.94977 23.6296 9.18739 23.3923 9.18739 23.0992C9.18739 22.8061 8.94977 22.5688 8.65663 22.5688Z" fill="#0154A4"/>
<path d="M29.8254 20.0136C29.8254 19.9185 29.8166 19.8312 29.8049 19.7499C29.8162 19.6661 29.8254 19.5812 29.8254 19.4942V12.5583C29.8254 11.2294 28.7441 10.1484 27.4156 10.1484C26.0871 10.1484 25.0061 11.2294 25.0061 12.5583V17.9415H20.9468L20.8704 17.939C20.7664 17.9345 20.6657 17.9345 20.5762 17.9472C20.5246 17.9493 20.4804 17.9574 20.4461 17.9649C19.5762 17.9861 18.875 18.7004 18.875 19.5752V28.3877C18.875 29.276 19.5978 29.9987 20.4864 29.9987C21.3746 29.9987 22.097 29.2763 22.097 28.3877V22.0854H27.7533C28.8958 22.0854 29.8254 21.1561 29.8254 20.0136ZM21.5663 21.0246C21.2735 21.0246 21.0359 21.2619 21.0359 21.555V28.3881C21.0359 28.6915 20.7894 28.9383 20.486 28.9383C20.1826 28.9383 19.9355 28.6915 19.9355 28.3881V19.5755C19.9355 19.2721 20.1823 19.0253 20.486 19.0253C20.5486 19.0253 20.6009 19.0165 20.6409 19.0084C20.6787 19.0076 20.7176 19.0034 20.7502 18.9967L20.823 18.9992C20.8637 19.0009 20.9047 19.0027 20.9468 19.0027H25.5351H25.5362C25.5373 19.0027 25.538 19.0023 25.539 19.0023C25.5907 19.0023 25.6398 18.9924 25.6872 18.9783C25.6928 18.9769 25.6982 18.9776 25.7035 18.9758L27.5556 18.3605C27.7735 18.2884 27.9198 18.0844 27.9188 17.8549L27.8979 13.0887C27.8965 12.7966 27.6592 12.5604 27.3675 12.5604C27.3668 12.5604 27.3661 12.5604 27.365 12.5604C27.0723 12.5614 26.8357 12.8001 26.8371 13.0929L26.8562 17.4748L26.0666 17.7371V12.5583C26.0666 11.8143 26.6716 11.2093 27.4153 11.2093C28.1589 11.2093 28.7643 11.8143 28.7643 12.5583V19.4946C28.7643 19.5441 28.7558 19.5914 28.7491 19.6392L28.7427 19.682C28.7353 19.735 28.736 19.7888 28.7452 19.8414C28.7544 19.898 28.7643 19.9546 28.7643 20.014C28.7643 20.5713 28.3106 21.025 27.7529 21.025L21.5663 21.0246Z" fill="#0154A4"/>
<path d="M27.3675 9.40761C28.7992 9.40761 29.964 8.24284 29.964 6.81074C29.964 5.37899 28.7992 4.21387 27.3675 4.21387C25.9354 4.21387 24.7706 5.37864 24.7706 6.81074C24.771 8.24248 25.9358 9.40761 27.3675 9.40761ZM27.3675 5.27468C28.2144 5.27468 28.9032 5.96386 28.9032 6.81074C28.9032 7.65797 28.2144 8.3468 27.3675 8.3468C26.5203 8.3468 25.8314 7.65762 25.8314 6.81074C25.8318 5.9635 26.5206 5.27468 27.3675 5.27468Z" fill="#0154A4"/>
<path d="M30.9818 11.3125C30.689 11.3125 30.4514 11.5498 30.4514 11.8429V22.5688H23.3429C23.0501 22.5688 22.8125 22.8061 22.8125 23.0992C22.8125 23.3923 23.0501 23.6296 23.3429 23.6296H24.3061V29.469C24.3061 29.7622 24.5437 29.9994 24.8365 29.9994C25.1293 29.9994 25.3669 29.7622 25.3669 29.469V23.6296H29.2566V29.469C29.2566 29.7622 29.4942 29.9994 29.787 29.9994C30.0798 29.9994 30.3174 29.7622 30.3174 29.469V23.6296H30.9822C31.275 23.6296 31.5126 23.3923 31.5126 23.0992V11.8429C31.5122 11.5498 31.2746 11.3125 30.9818 11.3125Z" fill="#0154A4"/>
<path d="M23.4771 14.6252C23.4806 14.6004 23.4827 14.5753 23.4827 14.5502L23.4969 4.29323C23.4969 4.29252 23.4972 4.29217 23.4972 4.29146C23.4972 4.29076 23.4972 4.2904 23.4972 4.28969V4.16275C23.4972 4.02202 23.4414 3.88729 23.342 3.78758L21.0687 1.51461C20.9693 1.41524 20.8342 1.35938 20.6935 1.35938H14.7494C13.6851 1.35938 12.8194 2.22464 12.8194 3.28864V14.3444C12.8194 15.4081 13.6851 16.2737 14.7494 16.2737H21.568C22.5192 16.273 23.3395 15.5647 23.4771 14.6252ZM21.8148 3.7607H20.5167V2.46262L21.8148 3.7607ZM13.8802 14.3441V3.28829C13.8802 2.80951 14.2703 2.41983 14.7494 2.41983H19.4562V4.29111C19.4562 4.58425 19.6939 4.82152 19.9866 4.82152H22.4368V9.98414L22.4219 14.5043C22.3466 14.9102 21.9856 15.2122 21.5683 15.2122H14.7494C14.2699 15.2122 13.8802 14.8229 13.8802 14.3441Z" fill="#0154A4"/>
<path d="M15.6334 8.07016C15.732 8.16139 15.8607 8.21089 15.9934 8.21089C16.0177 8.21089 16.0429 8.20913 16.0673 8.20559C16.2246 8.18331 16.3643 8.09173 16.4467 7.95559L17.1903 6.73141C17.3424 6.48106 17.2624 6.15468 17.0121 6.00263C16.7624 5.85129 16.4357 5.93015 16.2833 6.1805L15.8767 6.85058L15.7847 6.76571C15.5704 6.56734 15.2342 6.58007 15.0351 6.79542C14.8364 7.01076 14.8501 7.34633 15.0651 7.54506L15.6334 8.07016Z" fill="#0154A4"/>
<path d="M20.8152 6.53906H18.4389C18.1462 6.53906 17.9085 6.77633 17.9085 7.06947C17.9085 7.36261 18.1462 7.59988 18.4389 7.59988H20.8152C21.108 7.59988 21.3456 7.36261 21.3456 7.06947C21.3456 6.77633 21.108 6.53906 20.8152 6.53906Z" fill="#0154A4"/>
<path d="M17.0115 8.8017C16.7619 8.65001 16.4352 8.72886 16.2828 8.97957L15.8761 9.64929L15.7842 9.56443C15.5699 9.36641 15.2333 9.37914 15.0349 9.59413C14.8358 9.80912 14.8496 10.145 15.0646 10.3438L15.6328 10.8685C15.7315 10.9594 15.8602 11.0093 15.9928 11.0093C16.0172 11.0093 16.042 11.0075 16.0667 11.004C16.2241 10.9817 16.3637 10.8901 16.4461 10.754L17.1898 9.53013C17.3418 9.28013 17.2619 8.95411 17.0115 8.8017Z" fill="#0154A4"/>
<path d="M20.8153 9.33594H18.4391C18.1463 9.33594 17.9087 9.57321 17.9087 9.86634C17.9087 10.1595 18.1463 10.3968 18.4391 10.3968H20.8153C21.1081 10.3968 21.3457 10.1595 21.3457 9.86634C21.3457 9.57321 21.1081 9.33594 20.8153 9.33594Z" fill="#0154A4"/>
<path d="M17.0119 11.4239C16.7612 11.2719 16.4352 11.3511 16.2828 11.6018L15.8762 12.2715L15.7842 12.1867C15.5692 11.9886 15.2337 12.0014 15.0346 12.2167C14.8359 12.4317 14.8496 12.7676 15.0646 12.9664L15.6329 13.4907C15.7315 13.5816 15.8606 13.6311 15.9928 13.6311C16.0172 13.6311 16.0424 13.6294 16.0667 13.6258C16.2241 13.6035 16.3634 13.512 16.4462 13.3758L17.1898 12.1524C17.3418 11.902 17.2623 11.576 17.0119 11.4239Z" fill="#0154A4"/>
<path d="M20.6477 11.96H18.4391C18.1463 11.96 17.9087 12.1972 17.9087 12.4904C17.9087 12.7835 18.1463 13.0208 18.4391 13.0208H20.6477C20.9405 13.0208 21.1781 12.7835 21.1781 12.4904C21.1781 12.1972 20.9405 11.96 20.6477 11.96Z" fill="#0154A4"/>
</svg>
