<svg width="22" height="22" viewBox="0 0 22 22" fill="none" xmlns="http://www.w3.org/2000/svg">
<path fill-rule="evenodd" clip-rule="evenodd" d="M16.9134 3.66602C18.9594 3.66602 20.6241 5.31418 20.6241 7.3391L20.625 9.71693C20.625 9.89843 20.5526 10.0744 20.4234 10.2028C20.295 10.332 20.1199 10.4044 19.9375 10.4044C19.2161 10.4044 18.6294 10.9801 18.6294 11.6878C18.6294 12.3954 19.2161 12.9711 19.9375 12.9711C20.317 12.9711 20.625 13.2791 20.625 13.6586V16.0346C20.625 18.0595 18.9604 19.7077 16.9144 19.7077H4.62735C2.58135 19.7077 0.916687 18.0595 0.916687 16.0346V13.6586C0.916687 13.2791 1.22469 12.9711 1.60419 12.9711C2.3256 12.9711 2.91227 12.3954 2.91227 11.6878C2.91227 11.0003 2.34944 10.4814 1.60419 10.4814C1.42177 10.4814 1.24669 10.409 1.11835 10.2798C0.989104 10.1514 0.916687 9.97543 0.916687 9.79393L0.917604 7.3391C0.917604 5.31418 2.58227 3.66602 4.62827 3.66602H16.9134ZM16.9134 5.04102H13.1533L13.1538 6.80212C13.1538 7.18162 12.8458 7.48962 12.4663 7.48962C12.0868 7.48962 11.7788 7.18162 11.7788 6.80212L11.7783 5.04102H4.62827C3.34035 5.04102 2.2926 6.07227 2.2926 7.3391L2.29169 9.18893C3.4531 9.47402 4.28727 10.4695 4.28727 11.6878C4.28727 12.9179 3.43844 13.9556 2.29169 14.2572V16.0346C2.29169 17.3014 3.33944 18.3327 4.62735 18.3327H11.7783L11.7788 16.9682C11.7788 16.5878 12.0868 16.2807 12.4663 16.2807C12.8458 16.2807 13.1538 16.5878 13.1538 16.9682L13.1533 18.3327H16.9144C18.2023 18.3327 19.25 17.3014 19.25 16.0346V14.2572C18.1033 13.9556 17.2544 12.9179 17.2544 11.6878C17.2544 10.4567 18.1024 9.41993 19.25 9.11835L19.2491 7.3391C19.2491 6.07227 18.2014 5.04102 16.9134 5.04102ZM12.4663 8.71181C12.8458 8.71181 13.1538 9.01981 13.1538 9.39931V13.8186C13.1538 14.1981 12.8458 14.5061 12.4663 14.5061C12.0868 14.5061 11.7788 14.1981 11.7788 13.8186V9.39931C11.7788 9.01981 12.0868 8.71181 12.4663 8.71181Z" fill="#0154A4"/>
</svg>
