<svg width="20" height="20" viewBox="0 0 20 20" fill="none" xmlns="http://www.w3.org/2000/svg">
<path d="M10.5976 1.66699C11.2278 1.66699 11.7984 2.01699 12.1135 2.53366C12.2668 2.78366 12.369 3.09199 12.3434 3.41699C12.3264 3.66699 12.4031 3.91699 12.5393 4.15033C12.9737 4.85866 13.936 5.12533 14.6854 4.72533C15.5285 4.24199 16.5931 4.53366 17.0785 5.35866L17.6491 6.34199C18.1431 7.16699 17.8705 8.22533 17.0189 8.70033C16.295 9.12532 16.0395 10.067 16.4739 10.7837C16.6101 11.0087 16.7634 11.2003 17.0019 11.317C17.2999 11.4753 17.5299 11.7253 17.6917 11.9753C18.0068 12.492 17.9812 13.1253 17.6747 13.6837L17.0785 14.6837C16.7634 15.217 16.1758 15.5503 15.5711 15.5503C15.2731 15.5503 14.9409 15.467 14.6684 15.3003C14.447 15.1587 14.1915 15.1087 13.919 15.1087C13.0758 15.1087 12.369 15.8003 12.3434 16.6253C12.3434 17.5837 11.5599 18.3337 10.5806 18.3337H9.42235C8.43446 18.3337 7.65096 17.5837 7.65096 16.6253C7.63392 15.8003 6.92707 15.1087 6.08395 15.1087C5.80292 15.1087 5.54743 15.1587 5.33452 15.3003C5.062 15.467 4.72134 15.5503 4.43179 15.5503C3.81862 15.5503 3.23099 15.217 2.91589 14.6837L2.32826 13.6837C2.01316 13.142 1.99612 12.492 2.31123 11.9753C2.44749 11.7253 2.70298 11.4753 2.99253 11.317C3.23099 11.2003 3.38428 11.0087 3.52906 10.7837C3.95488 10.067 3.69939 9.12532 2.9755 8.70033C2.13239 8.22533 1.85986 7.16699 2.34529 6.34199L2.91589 5.35866C3.40983 4.53366 4.46585 4.24199 5.31749 4.72533C6.05841 5.12533 7.02075 4.85866 7.45508 4.15033C7.59134 3.91699 7.66799 3.66699 7.65096 3.41699C7.63392 3.09199 7.7276 2.78366 7.88941 2.53366C8.20452 2.01699 8.77511 1.68366 9.3968 1.66699H10.5976ZM10.01 7.65033C8.67291 7.65033 7.59134 8.70033 7.59134 10.0087C7.59134 11.317 8.67291 12.3587 10.01 12.3587C11.347 12.3587 12.4031 11.317 12.4031 10.0087C12.4031 8.70033 11.347 7.65033 10.01 7.65033Z" fill="#0154A4"/>
</svg>
