<svg width="20" height="20" viewBox="0 0 20 20" fill="none" xmlns="http://www.w3.org/2000/svg">
<path fill-rule="evenodd" clip-rule="evenodd" d="M10.0003 7.91602C11.1511 7.91602 12.0837 8.84862 12.0837 9.99935C12.0837 11.1501 11.1511 12.0827 10.0003 12.0827C8.84959 12.0827 7.91699 11.1501 7.91699 9.99935C7.91699 8.84862 8.84959 7.91602 10.0003 7.91602Z" stroke="#4E4E4E" stroke-width="1.5" stroke-linecap="round" stroke-linejoin="round"/>
<path fill-rule="evenodd" clip-rule="evenodd" d="M16.807 6.04155C16.2374 5.048 14.9764 4.70804 13.9908 5.28178C13.1335 5.77978 12.062 5.15666 12.062 4.15982C12.062 3.01317 11.1386 2.08301 10.0001 2.08301C8.8617 2.08301 7.93821 3.01317 7.93821 4.15982C7.93821 5.15666 6.8668 5.77978 6.01032 5.28178C5.0239 4.70804 3.76289 5.048 3.19326 6.04155C2.62446 7.03509 2.96198 8.30522 3.9484 8.87813C4.80488 9.37696 4.80488 10.6224 3.9484 11.1212C2.96198 11.695 2.62446 12.9651 3.19326 13.9578C3.76289 14.9513 5.0239 15.2913 6.0095 14.7184C6.86598 14.2196 7.93821 14.8427 7.93821 15.8395C7.93821 16.9862 8.8617 17.9163 10.0001 17.9163C11.1386 17.9163 12.062 16.9862 12.062 15.8395C12.062 14.8427 13.1335 14.2196 13.9908 14.7184C14.9764 15.2913 16.2374 14.9513 16.807 13.9578C17.3766 12.9651 17.0383 11.695 16.0527 11.1212C15.1962 10.6224 15.1954 9.37696 16.0527 8.87813C17.0383 8.30522 17.3766 7.03509 16.807 6.04155Z" stroke="#4E4E4E" stroke-width="1.5" stroke-linecap="round" stroke-linejoin="round"/>
</svg>
