<svg width="30" height="30" viewBox="0 0 30 30" fill="none" xmlns="http://www.w3.org/2000/svg">
<g clip-path="url(#clip0_3246_15834)">
<path d="M15.8875 29.0625H13.175C12.2583 29.0625 11.4845 28.3759 11.3755 27.4641L11.0861 25.1923C10.5085 25.0046 9.95148 24.7734 9.4223 24.5033L7.61316 25.9092C6.87934 26.4771 5.84641 26.4118 5.20945 25.7566L3.30223 23.8494C2.65195 23.2185 2.58656 22.1856 3.15449 21.453L4.56039 19.6426C4.28914 19.1134 4.05785 18.5564 3.87137 17.9788L1.5948 17.6894C0.686602 17.578 0 16.8042 0 15.8875V13.175C0 12.2583 0.686602 11.4845 1.59844 11.3755L3.87016 11.0861C4.05785 10.5085 4.28914 9.95148 4.55918 9.4223L3.15449 7.61316C2.58535 6.87934 2.65195 5.8452 3.30828 5.20824L5.21551 3.30102C5.84641 2.65074 6.88055 2.58656 7.61195 3.15328L9.42109 4.56039C9.95027 4.29035 10.5073 4.05906 11.0861 3.87137L11.3755 1.5948C11.4845 0.686602 12.2583 0 13.175 0H15.8875C16.8042 0 17.578 0.686602 17.687 1.59844L17.9764 3.87016C18.5552 4.05785 19.1122 4.28914 19.6414 4.55918L21.4505 3.15328C22.1856 2.58535 23.2173 2.65074 23.8543 3.30707L25.7615 5.2143C26.4118 5.8452 26.4771 6.87812 25.9092 7.61074L24.5033 9.42109C24.7746 9.95027 25.0059 10.5073 25.1923 11.0849L27.4689 11.3743C28.3759 11.4845 29.0625 12.2583 29.0625 13.175V15.8875C29.0625 16.8042 28.3759 17.578 27.4641 17.687L25.1923 17.9764C25.0046 18.554 24.7734 19.111 24.5033 19.6402L25.9092 21.4493C26.4784 22.1832 26.4118 23.2161 25.7554 23.853L23.8482 25.7603C23.2173 26.4105 22.1832 26.4771 21.4518 25.908L19.6414 24.5021C19.1122 24.7734 18.5552 25.0046 17.9776 25.1911L17.6882 27.4677C17.578 28.3759 16.8042 29.0625 15.8875 29.0625ZM9.36055 23.1773C9.46105 23.1773 9.56398 23.2028 9.65602 23.2536C10.3232 23.6266 11.0462 23.9269 11.8042 24.1449C12.0367 24.2115 12.2075 24.4101 12.2377 24.6498L12.5768 27.3139C12.6131 27.6179 12.8759 27.8516 13.175 27.8516H15.8875C16.1866 27.8516 16.4494 27.6179 16.4845 27.32L16.8248 24.6511C16.855 24.4113 17.0258 24.2127 17.2583 24.1461C18.0163 23.9281 18.7393 23.6278 19.4065 23.2548C19.6184 23.1362 19.8824 23.1568 20.0725 23.3057L22.1916 24.9526C22.435 25.1415 22.7765 25.1257 22.9848 24.9114L24.9041 22.9921C25.1233 22.7789 25.1403 22.4375 24.9514 22.1929L23.3045 20.0737C23.1555 19.8824 23.135 19.6196 23.2536 19.4077C23.6266 18.7405 23.9269 18.0175 24.1449 17.2595C24.2115 17.027 24.4101 16.8563 24.6498 16.826L27.3139 16.4869C27.6179 16.4494 27.8516 16.1866 27.8516 15.8875V13.175C27.8516 12.8759 27.6179 12.6131 27.32 12.578L24.6511 12.2377C24.4113 12.2075 24.2127 12.0367 24.1461 11.8042C23.9281 11.0462 23.6278 10.3232 23.2548 9.65602C23.1362 9.4441 23.1555 9.18133 23.3057 8.99L24.9526 6.87086C25.1427 6.62625 25.1257 6.28477 24.9126 6.07891L22.9933 4.15957C22.7814 3.93918 22.4387 3.92223 22.1941 4.11234L20.0749 5.75922C19.8824 5.90816 19.6196 5.92875 19.4077 5.81008C18.7429 5.43711 18.02 5.13801 17.2595 4.91883C17.027 4.85223 16.8563 4.65363 16.826 4.41387L16.4869 1.7498C16.4494 1.44465 16.1866 1.21094 15.8875 1.21094H13.175C12.8759 1.21094 12.6131 1.44465 12.578 1.74254L12.2377 4.41145C12.2075 4.65121 12.0367 4.8498 11.8042 4.91762C11.0438 5.13559 10.3208 5.4359 9.65602 5.80766C9.4441 5.92754 9.18133 5.90574 8.98879 5.75801L6.86965 4.11113C6.62504 3.92102 6.28477 3.93797 6.0777 4.15109L4.15836 6.07164C3.93918 6.28477 3.92223 6.62625 4.11113 6.87086L5.75801 8.99C5.90695 9.18133 5.92754 9.4441 5.80887 9.65602C5.43469 10.3232 5.13559 11.0462 4.91762 11.8042C4.85102 12.0367 4.65242 12.2075 4.41266 12.2377L1.74859 12.5768C1.44465 12.6131 1.21094 12.8759 1.21094 13.175V15.8875C1.21094 16.1866 1.44465 16.4494 1.74254 16.4845L4.41145 16.8248C4.65121 16.855 4.8498 17.0258 4.91641 17.2583C5.13437 18.0163 5.43469 18.7393 5.80766 19.4065C5.92633 19.6184 5.90695 19.8812 5.7568 20.0725L4.10992 22.1916C3.9198 22.4363 3.93676 22.7777 4.14988 22.9836L6.06922 24.9029C6.28113 25.1221 6.62141 25.1391 6.86844 24.9502L8.98758 23.3033C9.09777 23.2209 9.22855 23.1773 9.36055 23.1773Z" fill="#0154A4" stroke="#0154A4" stroke-width="0.5"/>
<path d="M15 21.25C11.5538 21.25 8.75 18.4462 8.75 15C8.75 11.5538 11.5538 8.75 15 8.75C18.4462 8.75 21.25 11.5538 21.25 15C21.25 18.4462 18.4462 21.25 15 21.25ZM15 10C12.2425 10 10 12.2425 10 15C10 17.7575 12.2425 20 15 20C17.7575 20 20 17.7575 20 15C20 12.2425 17.7575 10 15 10Z" fill="#0154A4" stroke="#0154A4" stroke-width="0.5"/>
</g>
<defs>
<clipPath id="clip0_3246_15834">
<rect width="30" height="30" fill="white"/>
</clipPath>
</defs>
</svg>
