<svg width="22" height="22" viewBox="0 0 22 22" fill="none" xmlns="http://www.w3.org/2000/svg">
<path fill-rule="evenodd" clip-rule="evenodd" d="M14.4774 0.916992C14.8569 0.916992 15.1649 1.22499 15.1649 1.60449L15.1653 2.38165C16.5037 2.47342 17.6153 2.93187 18.4021 3.72025C19.261 4.58283 19.7129 5.82308 19.7083 7.31083V15.6736C19.7083 18.7279 17.7686 20.6254 14.6474 20.6254H6.89423C3.77298 20.6254 1.83331 18.7013 1.83331 15.6039V7.309C1.83331 4.42809 3.56311 2.57885 6.38428 2.38197L6.38484 1.60449C6.38484 1.22499 6.69284 0.916992 7.07234 0.916992C7.45184 0.916992 7.75984 1.22499 7.75984 1.60449L7.75956 2.36441H13.7894L13.7899 1.60449C13.7899 1.22499 14.0979 0.916992 14.4774 0.916992ZM18.3333 9.07899H3.20831V15.6039C3.20831 17.9561 4.51731 19.2504 6.89423 19.2504H14.6474C17.0243 19.2504 18.3333 17.9799 18.3333 15.6736L18.3333 9.07899ZM14.8511 14.8469C15.2306 14.8469 15.5386 15.1549 15.5386 15.5344C15.5386 15.9139 15.2306 16.2219 14.8511 16.2219C14.4716 16.2219 14.1599 15.9139 14.1599 15.5344C14.1599 15.1549 14.4633 14.8469 14.8428 14.8469H14.8511ZM10.7834 14.8469C11.1629 14.8469 11.4709 15.1549 11.4709 15.5344C11.4709 15.9139 11.1629 16.2219 10.7834 16.2219C10.4039 16.2219 10.0922 15.9139 10.0922 15.5344C10.0922 15.1549 10.3956 14.8469 10.7751 14.8469H10.7834ZM6.70714 14.8469C7.08664 14.8469 7.39464 15.1549 7.39464 15.5344C7.39464 15.9139 7.08664 16.2219 6.70714 16.2219C6.32764 16.2219 6.01505 15.9139 6.01505 15.5344C6.01505 15.1549 6.31939 14.8469 6.69889 14.8469H6.70714ZM14.8511 11.2841C15.2306 11.2841 15.5386 11.5921 15.5386 11.9716C15.5386 12.3511 15.2306 12.6591 14.8511 12.6591C14.4716 12.6591 14.1599 12.3511 14.1599 11.9716C14.1599 11.5921 14.4633 11.2841 14.8428 11.2841H14.8511ZM10.7834 11.2841C11.1629 11.2841 11.4709 11.5921 11.4709 11.9716C11.4709 12.3511 11.1629 12.6591 10.7834 12.6591C10.4039 12.6591 10.0922 12.3511 10.0922 11.9716C10.0922 11.5921 10.3956 11.2841 10.7751 11.2841H10.7834ZM6.70714 11.2841C7.08664 11.2841 7.39464 11.5921 7.39464 11.9716C7.39464 12.3511 7.08664 12.6591 6.70714 12.6591C6.32764 12.6591 6.01505 12.3511 6.01505 11.9716C6.01505 11.5921 6.31939 11.2841 6.69889 11.2841H6.70714ZM13.7894 3.73941H7.75956L7.75984 4.62124C7.75984 5.00074 7.45184 5.30874 7.07234 5.30874C6.69284 5.30874 6.38484 5.00074 6.38484 4.62124L6.38435 3.76022C4.33081 3.93273 3.20831 5.17753 3.20831 7.309V7.70399H18.3333L18.3333 7.309C18.337 6.17692 18.0326 5.29692 17.4286 4.69192C16.8983 4.16007 16.1231 3.84244 15.1656 3.76066L15.1649 4.62124C15.1649 5.00074 14.8569 5.30874 14.4774 5.30874C14.0979 5.30874 13.7899 5.00074 13.7899 4.62124L13.7894 3.73941Z" fill="#0154A4"/>
</svg>
