<svg width="22" height="22" viewBox="0 0 22 22" fill="none" xmlns="http://www.w3.org/2000/svg">
<g clip-path="url(#clip0_3225_15817)">
<path d="M6.59127 3.5H15.4087C17.116 3.5 18.5 4.88401 18.5 6.59127V15.4087C18.5 17.116 17.116 18.5 15.4087 18.5H6.59127C4.88401 18.5 3.5 17.116 3.5 15.4087V6.59127C3.5 4.88401 4.88401 3.5 6.59127 3.5Z" stroke="#0154A4"/>
<path fill-rule="evenodd" clip-rule="evenodd" d="M10.371 9.20677C10.371 8.82436 10.6869 8.65256 11.1967 8.65256C12.0417 8.67083 12.8708 8.88522 13.6186 9.27881V7.0121C12.8492 6.71036 12.0287 6.55982 11.2023 6.56873C9.22929 6.56873 7.91028 7.59956 7.91028 9.33978C7.91028 12.0332 11.6124 11.5954 11.6124 12.7592C11.6124 13.2082 11.2189 13.3522 10.6813 13.3522C9.73428 13.3 8.81228 13.0287 7.98787 12.5597V14.8819C8.82791 15.2449 9.73295 15.4334 10.6481 15.4361C12.6709 15.4361 14.0675 14.4385 14.0675 12.665C14.0842 9.7776 10.371 10.2986 10.371 9.20677Z" fill="#0154A4"/>
</g>
<defs>
<clipPath id="clip0_3225_15817">
<rect width="16" height="16" fill="white" transform="translate(3 3)"/>
</clipPath>
</defs>
</svg>
