<svg width="34" height="34" viewBox="0 0 34 34" fill="none" xmlns="http://www.w3.org/2000/svg">
<path d="M13.1479 9.62143C13.1479 9.89655 13.3709 10.1195 13.646 10.1195H20.3541C20.6292 10.1195 20.8521 9.89655 20.8521 9.62143C20.8521 9.34631 20.6292 9.12339 20.3541 9.12339H20.2712L20.8453 5.6785C20.8752 5.49887 20.8048 5.31731 20.6615 5.20482C20.5184 5.09246 20.3251 5.06703 20.1578 5.13881L18.333 5.92088L17.4038 4.63413C17.3101 4.5045 17.1599 4.42773 17 4.42773C16.8401 4.42773 16.6899 4.5045 16.5963 4.63413L15.667 5.92088L13.8421 5.13881C13.6747 5.06709 13.4817 5.09246 13.3384 5.20482C13.1952 5.31725 13.1247 5.49887 13.1547 5.6785L13.7288 9.12339H13.646C13.3709 9.12339 13.1479 9.34631 13.1479 9.62143ZM14.287 6.41315L15.6411 6.99347C15.8554 7.08525 16.1046 7.01625 16.2411 6.82726L17 5.77638L17.759 6.82732C17.8955 7.01625 18.1448 7.08531 18.3589 6.99347L19.713 6.41315L19.2613 9.12332H14.7387L14.287 6.41315Z" fill="#0154A4"/>
<path d="M9.12302 12.1705V13.1096C9.12302 13.6802 9.5872 14.1443 10.1577 14.1443H23.8422C24.4128 14.1443 24.877 13.6802 24.877 13.1096V12.1705C24.877 11.5999 24.4128 11.1357 23.8422 11.1357H10.1577C9.5872 11.1357 9.12302 11.5999 9.12302 12.1705ZM23.8809 12.1705V13.1096C23.8809 13.1309 23.8635 13.1483 23.8422 13.1483H10.1577C10.1364 13.1483 10.1191 13.1309 10.1191 13.1096V12.1705C10.1191 12.1492 10.1364 12.1318 10.1577 12.1318H23.8422C23.8635 12.1318 23.8809 12.1491 23.8809 12.1705Z" fill="#0154A4"/>
<path d="M23.0376 15.8311H14.9878C14.7127 15.8311 14.4897 16.054 14.4897 16.3291C14.4897 16.6042 14.7127 16.8271 14.9878 16.8271H23.0376C23.3127 16.8271 23.5356 16.6042 23.5356 16.3291C23.5356 16.054 23.3127 15.8311 23.0376 15.8311Z" fill="#0154A4"/>
<path d="M10.9629 16.8271H12.9753C13.2504 16.8271 13.4734 16.6042 13.4734 16.3291C13.4734 16.054 13.2504 15.8311 12.9753 15.8311H10.9629C10.6878 15.8311 10.4648 16.054 10.4648 16.3291C10.4648 16.6042 10.6878 16.8271 10.9629 16.8271Z" fill="#0154A4"/>
<path d="M23.0373 18.5146H14.9875C14.7125 18.5146 14.4895 18.7376 14.4895 19.0127C14.4895 19.2878 14.7125 19.5107 14.9875 19.5107H23.0373C23.3124 19.5107 23.5354 19.2878 23.5354 19.0127C23.5354 18.7376 23.3124 18.5146 23.0373 18.5146Z" fill="#0154A4"/>
<path d="M10.9627 19.5107H12.9751C13.2502 19.5107 13.4732 19.2878 13.4732 19.0127C13.4732 18.7376 13.2502 18.5146 12.9751 18.5146H10.9627C10.6876 18.5146 10.4646 18.7376 10.4646 19.0127C10.4646 19.2878 10.6876 19.5107 10.9627 19.5107Z" fill="#0154A4"/>
<path d="M23.0376 21.1982H14.9878C14.7127 21.1982 14.4897 21.4212 14.4897 21.6963C14.4897 21.9714 14.7127 22.1943 14.9878 22.1943H23.0376C23.3127 22.1943 23.5356 21.9714 23.5356 21.6963C23.5356 21.4212 23.3127 21.1982 23.0376 21.1982Z" fill="#0154A4"/>
<path d="M10.9629 22.1943H12.9753C13.2504 22.1943 13.4734 21.9714 13.4734 21.6963C13.4734 21.4212 13.2504 21.1982 12.9753 21.1982H10.9629C10.6878 21.1982 10.4648 21.4212 10.4648 21.6963C10.4648 21.9714 10.6878 22.1943 10.9629 22.1943Z" fill="#0154A4"/>
<path d="M23.5356 24.3789C23.5356 24.1038 23.3127 23.8809 23.0376 23.8809H14.9878C14.7127 23.8809 14.4897 24.1038 14.4897 24.3789C14.4897 24.654 14.7127 24.877 14.9878 24.877H23.0376C23.3127 24.877 23.5356 24.654 23.5356 24.3789Z" fill="#0154A4"/>
<path d="M10.9629 24.877H12.9753C13.2504 24.877 13.4734 24.654 13.4734 24.3789C13.4734 24.1038 13.2504 23.8809 12.9753 23.8809H10.9629C10.6878 23.8809 10.4648 24.1038 10.4648 24.3789C10.4648 24.654 10.6878 24.877 10.9629 24.877Z" fill="#0154A4"/>
<path d="M13.5118 29.573H20.4883C21.0588 29.573 21.5229 29.1089 21.5229 28.5383V27.5991C21.5229 27.0286 21.0588 26.5645 20.4883 26.5645H13.5118C12.9413 26.5645 12.4771 27.0286 12.4771 27.5991V28.5383C12.4771 29.1089 12.9413 29.573 13.5118 29.573ZM13.4732 27.5991C13.4732 27.5779 13.4905 27.5605 13.5118 27.5605H20.4883C20.5095 27.5605 20.5268 27.5779 20.5268 27.5991V28.5383C20.5268 28.5596 20.5095 28.5769 20.4883 28.5769H13.5118C13.4905 28.5769 13.4732 28.5596 13.4732 28.5383V27.5991Z" fill="#0154A4"/>
<path d="M33.502 22.7252C33.7771 22.7252 34 22.5023 34 22.2271V6.26707C34 5.25278 33.1748 4.42762 32.1605 4.42762H26.8892V3.58426C26.8892 2.56964 26.0641 1.74414 25.0498 1.74414H13.343C13.068 1.74414 12.845 1.96707 12.845 2.24219C12.845 2.51731 13.068 2.74023 13.343 2.74023H25.0498C25.5148 2.74023 25.8931 3.11888 25.8931 3.58426V30.4164C25.8931 30.8817 25.5148 31.2604 25.0498 31.2604H8.95023C8.48526 31.2604 8.10688 30.8817 8.10688 30.4164V3.58426C8.10688 3.11888 8.48519 2.74023 8.95023 2.74023H11.0188C11.2938 2.74023 11.5168 2.51731 11.5168 2.24219C11.5168 1.96707 11.2938 1.74414 11.0188 1.74414H8.95023C7.93595 1.74414 7.11078 2.56964 7.11078 3.58426V4.42762H1.83945C0.825164 4.42762 0 5.25278 0 6.26707V9.86556C0 10.1407 0.222992 10.3636 0.498047 10.3636C0.773102 10.3636 0.996094 10.1407 0.996094 9.86556V6.26707C0.996094 5.80203 1.37441 5.42371 1.83945 5.42371H7.11078V11.1358H3.71795C3.14746 11.1358 2.68328 11.6 2.68328 12.1705V13.1096C2.68328 13.6802 3.14746 14.1444 3.71795 14.1444H7.11078V15.1607H2.51049C2.23543 15.1607 2.01244 15.3837 2.01244 15.6588C2.01244 15.9339 2.23543 16.1568 2.51049 16.1568H7.11078V17.8439H2.51049C2.23543 17.8439 2.01244 18.0669 2.01244 18.342C2.01244 18.6171 2.23543 18.84 2.51049 18.84H7.11078V20.5271H2.51049C2.23543 20.5271 2.01244 20.7501 2.01244 21.0252C2.01244 21.3003 2.23543 21.5232 2.51049 21.5232H7.11078V23.2104H4.12044C3.54988 23.2104 3.0857 23.6745 3.0857 24.2451V25.1843C3.0857 25.7548 3.54988 26.219 4.12044 26.219H7.11078V28.577H1.83945C1.37441 28.577 0.996094 28.1987 0.996094 27.7336V12.1898C0.996094 11.9147 0.773102 11.6918 0.498047 11.6918C0.222992 11.6918 0 11.9147 0 12.1898V27.7336C0 28.7478 0.825164 29.573 1.83945 29.573H7.11078V30.4164C7.11078 31.431 7.93595 32.2565 8.95023 32.2565H25.0498C26.0641 32.2565 26.8892 31.431 26.8892 30.4164V29.573H32.1605C33.1748 29.573 34 28.7478 34 27.7336V24.5514C34 24.2762 33.7771 24.0533 33.502 24.0533C33.2268 24.0533 33.0039 24.2762 33.0039 24.5514V27.7336C33.0039 28.1986 32.6256 28.5769 32.1605 28.5769H26.8892V26.2189H29.8796C30.4501 26.2189 30.9142 25.7548 30.9142 25.1842V24.245C30.9142 23.6745 30.4501 23.2104 29.8796 23.2104H26.8892V21.5232H31.4895C31.7646 21.5232 31.9876 21.3002 31.9876 21.0251C31.9876 20.75 31.7646 20.5271 31.4895 20.5271H26.8892V18.84H31.4895C31.7646 18.84 31.9876 18.617 31.9876 18.3419C31.9876 18.0668 31.7646 17.8439 31.4895 17.8439H26.8892V16.1568H31.4895C31.7646 16.1568 31.9876 15.9338 31.9876 15.6587C31.9876 15.3836 31.7646 15.1607 31.4895 15.1607H26.8892V14.1443H30.282C30.8526 14.1443 31.3168 13.6801 31.3168 13.1096V12.1705C31.3168 11.5999 30.8526 11.1357 30.282 11.1357H26.8892V5.42371H32.1605C32.6256 5.42371 33.0039 5.80203 33.0039 6.26707V22.2271C33.0039 22.5023 33.2268 22.7252 33.502 22.7252ZM3.71795 13.1482C3.6967 13.1482 3.67937 13.1309 3.67937 13.1096V12.1705C3.67937 12.1491 3.6967 12.1318 3.71795 12.1318H7.11078V13.1482H3.71795ZM4.12044 25.2228C4.09912 25.2228 4.08179 25.2055 4.08179 25.1842V24.245C4.08179 24.2238 4.09912 24.2065 4.12044 24.2065H7.11078V25.2228H4.12044ZM29.8796 24.2065C29.9008 24.2065 29.9181 24.2239 29.9181 24.2451V25.1843C29.9181 25.2055 29.9008 25.2229 29.8796 25.2229H26.8892V24.2065H29.8796ZM30.282 12.1319C30.3034 12.1319 30.3207 12.1492 30.3207 12.1705V13.1096C30.3207 13.131 30.3034 13.1483 30.282 13.1483H26.8892V12.1319H30.282Z" fill="#0154A4"/>
<path d="M17 8.41211C17.2751 8.41211 17.498 8.18913 17.498 7.91406C17.498 7.639 17.2751 7.41602 17 7.41602C16.7249 7.41602 16.502 7.639 16.502 7.91406C16.502 8.18913 16.7249 8.41211 17 8.41211Z" fill="#0154A4"/>
</svg>
