<svg width="24" height="24" viewBox="0 0 24 24" fill="none" xmlns="http://www.w3.org/2000/svg">
<path d="M19.5036 7.73473C19.3594 7.53395 19.2443 7.31387 19.1616 7.08098C19.1137 6.82764 19.1018 6.5688 19.1264 6.31215C19.1864 5.86455 19.1179 5.40912 18.929 4.99895C18.6657 4.62692 18.3018 4.33767 17.88 4.16513C17.6489 4.06052 17.434 3.92361 17.2415 3.75851C17.0765 3.56592 16.9396 3.35095 16.8349 3.12C16.6624 2.69804 16.3731 2.33401 16.0011 2.07062C15.591 1.88211 15.1359 1.81376 14.6886 1.87353C14.4318 1.89814 14.1728 1.88631 13.9194 1.8384C13.6864 1.75579 13.4661 1.64072 13.2653 1.49658C12.8998 1.21326 12.4606 1.04089 12 1C11.5393 1.04082 11.1001 1.21313 10.7345 1.49644C10.5338 1.64049 10.3137 1.75556 10.0808 1.83825C9.82742 1.88579 9.56863 1.89761 9.31196 1.87338C8.86436 1.81354 8.40897 1.88201 7.99876 2.07084C7.62678 2.33418 7.3376 2.69813 7.16513 3.12C7.06052 3.35101 6.92361 3.56599 6.75851 3.75847C6.56592 3.92347 6.35096 4.06038 6.12 4.16513C5.69804 4.33763 5.33401 4.62688 5.07062 4.99895C4.88213 5.409 4.81379 5.86409 4.87353 6.31142C4.89815 6.56819 4.88632 6.82716 4.8384 7.08062C4.75574 7.31366 4.6406 7.53386 4.4964 7.73473C4.21314 8.10022 4.04084 8.5394 4 9C4.04082 9.46067 4.21313 9.89991 4.49644 10.2655C4.64056 10.4662 4.75569 10.6863 4.83844 10.9192C4.88634 11.1725 4.89817 11.4314 4.87356 11.688C4.81359 12.1356 4.88207 12.5911 5.07102 13.0012C5.3343 13.3733 5.6982 13.6625 6.12004 13.8351C6.35105 13.9397 6.56602 14.0766 6.75851 14.2417C6.92348 14.4342 7.06037 14.6491 7.16513 14.88C7.26772 15.0876 7.3858 15.2871 7.51836 15.4769L5.47655 21.0867C5.45315 21.1511 5.4484 21.2207 5.46286 21.2877C5.47732 21.3546 5.51039 21.4161 5.55826 21.4651C5.60614 21.5141 5.66688 21.5486 5.73348 21.5645C5.80008 21.5805 5.86984 21.5773 5.93473 21.5554L7.86476 20.9035L8.92444 22.6439C8.95691 22.6972 9.00255 22.7412 9.05696 22.7718C9.11138 22.8024 9.17275 22.8184 9.23516 22.8184C9.24687 22.8184 9.25895 22.8177 9.27102 22.8166C9.3392 22.8099 9.40408 22.784 9.45818 22.742C9.51228 22.6999 9.55339 22.6435 9.57676 22.5791L11.6264 16.9485C11.8707 17.0175 12.1294 17.0175 12.3737 16.9485L14.4234 22.5791C14.4468 22.6435 14.4879 22.6999 14.542 22.742C14.5961 22.784 14.6609 22.8099 14.7291 22.8166C14.7412 22.8177 14.7533 22.8184 14.765 22.8184C14.8274 22.8184 14.8888 22.8024 14.9432 22.7718C14.9976 22.7412 15.0432 22.6972 15.0757 22.6439L16.1354 20.9035L18.0655 21.5554C18.1303 21.5773 18.2001 21.5805 18.2667 21.5645C18.3333 21.5485 18.394 21.5141 18.4419 21.4651C18.4898 21.4161 18.5229 21.3546 18.5373 21.2876C18.5518 21.2207 18.547 21.151 18.5236 21.0867L16.4817 15.4767C16.6141 15.2869 16.7322 15.0874 16.8349 14.88C16.9395 14.6489 17.0764 14.434 17.2415 14.2415C17.4341 14.0765 17.649 13.9396 17.88 13.8349C18.302 13.6624 18.666 13.3731 18.9294 13.0011C19.1179 12.591 19.1862 12.1359 19.1265 11.6886C19.1019 11.4318 19.1137 11.1728 19.1616 10.9194C19.2443 10.6863 19.3594 10.4661 19.5036 10.2653C19.7869 9.89978 19.9592 9.4606 20 9C19.9591 8.53939 19.7868 8.10022 19.5036 7.73473ZM9.15233 21.6193L8.33487 20.2766C8.29188 20.2061 8.22615 20.1523 8.1485 20.1241C8.07085 20.0959 7.98592 20.0949 7.90767 20.1215L6.41869 20.6243L8.10793 15.9829C8.4924 16.1242 8.90465 16.1734 9.31156 16.1264C9.56834 16.102 9.82728 16.1138 10.0808 16.1616C10.3138 16.2442 10.534 16.3594 10.7349 16.5036C10.8087 16.5505 10.885 16.5985 10.963 16.6454L9.15233 21.6193ZM16.0923 20.1215C16.0141 20.0949 15.9291 20.0959 15.8515 20.1241C15.7739 20.1523 15.7081 20.2061 15.6651 20.2766L14.8477 21.6193L13.0372 16.6456C13.1151 16.5983 13.1915 16.5505 13.2653 16.5036C13.4661 16.3594 13.6861 16.2443 13.919 16.1616C14.1724 16.1138 14.4312 16.102 14.6879 16.1264C15.095 16.1736 15.5075 16.1243 15.8921 15.9826L17.5813 20.6243L16.0923 20.1215ZM18.8899 9.87465C18.7037 10.1368 18.5585 10.4257 18.4592 10.7315C18.3898 11.0554 18.3696 11.3878 18.3995 11.7177C18.4454 12.0276 18.4111 12.3442 18.2997 12.6371C18.0996 12.8836 17.8392 13.0742 17.5437 13.1903C17.2458 13.3268 16.9706 13.5079 16.7273 13.7273C16.5076 13.9704 16.3265 14.2458 16.19 14.5437C16.0739 14.8392 15.8833 15.0996 15.6367 15.2997C15.3438 15.4108 15.0273 15.4452 14.7173 15.3995C14.3875 15.3698 14.055 15.39 13.7312 15.4592C13.4255 15.5586 13.1367 15.7038 12.8747 15.8899C12.6217 16.092 12.3201 16.224 12 16.2727C11.6799 16.224 11.3783 16.092 11.1253 15.8899C10.8632 15.7037 10.5743 15.5585 10.2685 15.4592C10.0644 15.409 9.85465 15.3857 9.64455 15.3901C9.52309 15.3901 9.402 15.395 9.28233 15.3996C8.97236 15.4454 8.65584 15.4111 8.36291 15.2999C8.11638 15.0998 7.9258 14.8393 7.80967 14.5438C7.6732 14.2459 7.49214 13.9706 7.27273 13.7273C7.02955 13.5076 6.75424 13.3265 6.45633 13.19C6.16082 13.0739 5.90037 12.8833 5.70029 12.6367C5.58894 12.3438 5.55458 12.0273 5.60051 11.7173C5.63034 11.3875 5.61023 11.055 5.54084 10.7312C5.44143 10.4255 5.29619 10.1367 5.11007 9.87465C4.90801 9.6217 4.776 9.32007 4.72727 9C4.776 8.67993 4.90801 8.3783 5.11007 8.12535C5.29627 7.86321 5.44151 7.57428 5.54084 7.26847C5.61024 6.94463 5.63035 6.61217 5.60051 6.28233C5.55456 5.97237 5.58891 5.6558 5.70029 5.36291C5.90037 5.11638 6.16082 4.92579 6.45633 4.80967C6.75415 4.67319 7.02944 4.49213 7.27273 4.27273C7.49236 4.02955 7.67355 3.75424 7.81 3.45633C7.92613 3.16082 8.11673 2.90037 8.36327 2.70029C8.65617 2.589 8.9727 2.55465 9.28265 2.60051C9.61251 2.63015 9.94496 2.61004 10.2688 2.54084C10.5745 2.44143 10.8633 2.29619 11.1253 2.11007C11.3783 1.90801 11.6799 1.776 12 1.72727C12.3201 1.776 12.6217 1.90801 12.8747 2.11007C13.1368 2.29627 13.4257 2.44151 13.7315 2.54084C14.0554 2.61004 14.3878 2.63015 14.7177 2.60051C15.0276 2.55458 15.3442 2.58893 15.6371 2.70029C15.8836 2.90037 16.0742 3.16082 16.1903 3.45633C16.3268 3.75415 16.5079 4.02944 16.7273 4.27273C16.9704 4.49236 17.2458 4.67355 17.5437 4.81C17.8392 4.92613 18.0996 5.11673 18.2997 5.36327C18.4111 5.65615 18.4454 5.9727 18.3995 6.28265C18.3697 6.61251 18.3898 6.94498 18.4592 7.26884C18.5586 7.5745 18.7038 7.86329 18.8899 8.12535C19.092 8.3783 19.224 8.67993 19.2727 9C19.224 9.32007 19.092 9.6217 18.8899 9.87465Z" fill="#0154A4"/>
<path d="M11.9998 3.18359C10.8491 3.18359 9.72421 3.52482 8.76742 4.16413C7.81062 4.80344 7.06489 5.71212 6.62453 6.77525C6.18416 7.83839 6.06894 9.00823 6.29344 10.1368C6.51793 11.2655 7.07206 12.3022 7.88575 13.1159C8.69944 13.9295 9.73614 14.4837 10.8648 14.7082C11.9934 14.9327 13.1632 14.8174 14.2263 14.3771C15.2895 13.9367 16.1982 13.191 16.8375 12.2342C17.4768 11.2774 17.818 10.1525 17.818 9.00178C17.8162 7.45924 17.2027 5.98038 16.112 4.88964C15.0212 3.79891 13.5424 3.18536 11.9998 3.18359ZM11.9998 14.0927C10.9929 14.0927 10.0087 13.7941 9.17147 13.2347C8.33427 12.6753 7.68176 11.8802 7.29644 10.95C6.91112 10.0197 6.8103 8.99613 7.00674 8.00859C7.20317 7.02105 7.68803 6.11394 8.40001 5.40196C9.11198 4.68998 10.0191 4.20512 11.0066 4.00869C11.9942 3.81225 13.0178 3.91307 13.948 4.29839C14.8783 4.68371 15.6734 5.33622 16.2328 6.17342C16.7922 7.01061 17.0907 7.99489 17.0907 9.00178C17.0892 10.3515 16.5524 11.6455 15.598 12.5999C14.6436 13.5543 13.3496 14.0912 11.9998 14.0927Z" fill="#0154A4"/>
<path d="M13.3045 7.18506L12.3259 5.20212C12.2925 5.14533 12.2448 5.09825 12.1876 5.06554C12.1305 5.03283 12.0657 5.01562 11.9999 5.01562C11.934 5.01562 11.8692 5.03283 11.8121 5.06554C11.7549 5.09825 11.7072 5.14533 11.6739 5.20212L10.6952 7.18506L8.50662 7.50324C8.4395 7.513 8.37645 7.54134 8.32459 7.58505C8.27273 7.62876 8.23413 7.6861 8.21315 7.7506C8.19217 7.8151 8.18964 7.88418 8.20586 7.95003C8.22207 8.01589 8.25638 8.0759 8.30491 8.12328L9.88869 9.66695L9.51477 11.847C9.50332 11.9139 9.51082 11.9826 9.5364 12.0455C9.56198 12.1083 9.60464 12.1627 9.65954 12.2026C9.71444 12.2425 9.7794 12.2662 9.84707 12.2711C9.91474 12.2759 9.98243 12.2618 10.0425 12.2302L11.9999 11.2011L13.9572 12.2302C14.0173 12.2617 14.085 12.2759 14.1526 12.271C14.2203 12.2661 14.2853 12.2424 14.3402 12.2026C14.3951 12.1627 14.4377 12.1083 14.4633 12.0454C14.4889 11.9826 14.4964 11.9139 14.4849 11.847L14.111 9.66692L15.6948 8.12324C15.7433 8.07586 15.7776 8.01585 15.7939 7.95C15.8101 7.88414 15.8075 7.81506 15.7866 7.75056C15.7656 7.68607 15.727 7.62872 15.6751 7.58501C15.6233 7.5413 15.5602 7.51297 15.4931 7.50321L13.3045 7.18506ZM13.4665 9.2799C13.4243 9.32105 13.3928 9.37184 13.3746 9.42788C13.3564 9.48392 13.3521 9.54354 13.3621 9.60161L13.6437 11.2437L12.1692 10.4684C12.117 10.4409 12.0589 10.4266 11.9999 10.4266C11.9408 10.4266 11.8827 10.4409 11.8305 10.4684L10.3562 11.2437L10.6378 9.60161C10.6478 9.54354 10.6435 9.48392 10.6253 9.42788C10.6071 9.37184 10.5756 9.32105 10.5334 9.2799L9.34022 8.11688L10.989 7.87721C11.0474 7.86878 11.1028 7.84627 11.1505 7.81162C11.1982 7.77697 11.2368 7.73122 11.2628 7.67833L11.9999 6.18481L12.7371 7.67841C12.7631 7.7313 12.8017 7.77704 12.8494 7.81169C12.8971 7.84634 12.9525 7.86885 13.0109 7.87728L14.6597 8.11695L13.4665 9.2799Z" fill="#0154A4"/>
</svg>
