<svg width="64" height="64" viewBox="0 0 64 64" fill="none" xmlns="http://www.w3.org/2000/svg">
<rect width="64" height="64" rx="32" fill="#D8EAFF"/>
<path d="M33.5718 47.6441C33.5819 47.902 33.7992 48.1028 34.057 48.0927C34.3149 48.0826 34.5158 47.8654 34.5057 47.6075C34.2615 41.4292 35.0651 36.306 37.0031 32.3257C38.9218 28.3848 41.9635 25.5599 46.2136 23.9368C46.4553 23.8448 46.5766 23.5742 46.4846 23.3325C46.3926 23.0908 46.1221 22.9695 45.8804 23.0615C41.3959 24.7741 38.1861 27.7556 36.1608 31.9155C34.1546 36.036 33.3214 41.3083 33.5718 47.6441Z" fill="#00BFFE"/>
<path d="M29.4946 47.6075C29.4845 47.8654 29.6854 48.0826 29.9432 48.0927C30.2011 48.1028 30.4183 47.902 30.4284 47.6441C30.6788 41.3083 29.8457 36.036 27.8395 31.9155C25.8142 27.7556 22.6043 24.7741 18.1199 23.0615C17.8782 22.9695 17.6076 23.0908 17.5156 23.3325C17.4236 23.5742 17.5449 23.8448 17.7866 23.9368C22.0368 25.5599 25.0785 28.3848 26.9972 32.3257C28.9351 36.306 29.7388 41.4292 29.4946 47.6075Z" fill="#00BFFE"/>
<path d="M37.921 47.6388C37.9281 47.8967 38.1429 48.1 38.4008 48.0929C38.6586 48.0859 38.8619 47.871 38.8549 47.6132C38.7478 43.8009 39.5475 40.6674 41.0227 38.2109C42.6028 35.5798 44.9666 33.718 47.8253 32.6262C48.067 32.5342 48.1884 32.2637 48.0964 32.022C48.0043 31.7803 47.7338 31.659 47.4921 31.751C44.4416 32.916 41.9153 34.9093 40.2207 37.7311C38.6569 40.3351 37.8087 43.6384 37.921 47.6388Z" fill="#0154A4"/>
<path d="M25.1451 47.6132C25.1381 47.871 25.3413 48.0859 25.5992 48.0929C25.8571 48.1 26.0719 47.8967 26.0789 47.6388C26.1913 43.6384 25.3431 40.3351 23.7793 37.7311C22.0848 34.9093 19.5586 32.9159 16.5081 31.751C16.2664 31.659 15.9958 31.7803 15.9038 32.022C15.8118 32.2637 15.9331 32.5342 16.1748 32.6262C19.0336 33.718 21.3973 35.5798 22.9773 38.2108C24.4525 40.6673 25.2522 43.8009 25.1451 47.6132Z" fill="#0154A4"/>
<path d="M20.5047 27.6543C20.5047 27.3954 20.2948 27.1855 20.0359 27.1855C19.777 27.1855 19.5671 27.3954 19.5671 27.6543V28.4932C19.5671 28.7521 19.777 28.9619 20.0359 28.9619C20.2948 28.9619 20.5047 28.7521 20.5047 28.4932V27.6543ZM20.5047 30.3562C20.5047 30.0973 20.2948 29.8874 20.0359 29.8874C19.777 29.8874 19.5671 30.0973 19.5671 30.3562V31.1951C19.5671 31.4539 19.777 31.6638 20.0359 31.6638C20.2948 31.6638 20.5047 31.4539 20.5047 31.1951V30.3562Z" fill="#FF0000"/>
<path d="M21.8064 29.8936C22.0653 29.8936 22.2752 29.6837 22.2752 29.4248C22.2752 29.1659 22.0653 28.9561 21.8064 28.9561H21.0454C20.7865 28.9561 20.5767 29.1659 20.5767 29.4248C20.5767 29.6837 20.7865 29.8936 21.0454 29.8936H21.8064ZM19.0266 29.8936C19.2855 29.8936 19.4954 29.6837 19.4954 29.4248C19.4954 29.1659 19.2855 28.9561 19.0266 28.9561H18.2656C18.0068 28.9561 17.7969 29.1659 17.7969 29.4248C17.7969 29.6837 18.0068 29.8936 18.2656 29.8936H19.0266Z" fill="#FF0000"/>
<path d="M44.4329 27.6543C44.4329 27.3954 44.223 27.1855 43.9641 27.1855C43.7052 27.1855 43.4954 27.3954 43.4954 27.6543V28.4932C43.4954 28.7521 43.7052 28.9619 43.9641 28.9619C44.223 28.9619 44.4329 28.7521 44.4329 28.4932V27.6543ZM44.4329 30.3562C44.4329 30.0973 44.223 29.8874 43.9641 29.8874C43.7052 29.8874 43.4954 30.0973 43.4954 30.3562V31.1951C43.4954 31.4539 43.7052 31.6638 43.9641 31.6638C44.223 31.6638 44.4329 31.4539 44.4329 31.1951V30.3562Z" fill="#FF0000"/>
<path d="M45.7346 29.8936C45.9935 29.8936 46.2034 29.6837 46.2034 29.4248C46.2034 29.1659 45.9935 28.9561 45.7346 28.9561H44.9736C44.7148 28.9561 44.5049 29.1659 44.5049 29.4248C44.5049 29.6837 44.7148 29.8936 44.9736 29.8936H45.7346ZM42.9548 29.8936C43.2137 29.8936 43.4236 29.6837 43.4236 29.4248C43.4236 29.1659 43.2137 28.9561 42.9548 28.9561H42.1939C41.935 28.9561 41.7251 29.1659 41.7251 29.4248C41.7251 29.6837 41.935 29.8936 42.1939 29.8936H42.9548Z" fill="#FF0000"/>
<path d="M39.9214 20.5733C39.9214 20.3144 39.7115 20.1045 39.4527 20.1045C39.1938 20.1045 38.9839 20.3144 38.9839 20.5733V21.4121C38.9839 21.671 39.1938 21.8809 39.4527 21.8809C39.7115 21.8809 39.9214 21.671 39.9214 21.4121V20.5733ZM39.9214 23.2751C39.9214 23.0162 39.7115 22.8064 39.4527 22.8064C39.1938 22.8064 38.9839 23.0162 38.9839 23.2751V24.114C38.9839 24.3729 39.1938 24.5828 39.4527 24.5828C39.7115 24.5828 39.9214 24.3729 39.9214 24.114V23.2751Z" fill="#FFCC00"/>
<path d="M41.2229 22.8121C41.4818 22.8121 41.6917 22.6022 41.6917 22.3433C41.6917 22.0844 41.4818 21.8745 41.2229 21.8745H40.4619C40.203 21.8745 39.9932 22.0844 39.9932 22.3433C39.9932 22.6022 40.203 22.8121 40.4619 22.8121H41.2229ZM38.4431 22.8121C38.702 22.8121 38.9119 22.6022 38.9119 22.3433C38.9119 22.0844 38.702 21.8745 38.4431 21.8745H37.6821C37.4233 21.8745 37.2134 22.0844 37.2134 22.3433C37.2134 22.6022 37.4233 22.8121 37.6821 22.8121H38.4431Z" fill="#FFCC00"/>
<path d="M25.0162 20.5733C25.0162 20.3144 24.8063 20.1045 24.5474 20.1045C24.2885 20.1045 24.0786 20.3144 24.0786 20.5733V21.4121C24.0786 21.671 24.2885 21.8809 24.5474 21.8809C24.8063 21.8809 25.0162 21.671 25.0162 21.4121V20.5733ZM25.0162 23.2751C25.0162 23.0162 24.8063 22.8064 24.5474 22.8064C24.2885 22.8064 24.0786 23.0162 24.0786 23.2751V24.114C24.0786 24.3729 24.2885 24.5828 24.5474 24.5828C24.8063 24.5828 25.0162 24.3729 25.0162 24.114V23.2751Z" fill="#FFCC00"/>
<path d="M26.3179 22.8121C26.5767 22.8121 26.7866 22.6022 26.7866 22.3433C26.7866 22.0844 26.5767 21.8745 26.3179 21.8745H25.5569C25.298 21.8745 25.0881 22.0844 25.0881 22.3433C25.0881 22.6022 25.298 22.8121 25.5569 22.8121H26.3179ZM23.5381 22.8121C23.797 22.8121 24.0069 22.6022 24.0069 22.3433C24.0069 22.0844 23.797 21.8745 23.5381 21.8745H22.7771C22.5182 21.8745 22.3083 22.0844 22.3083 22.3433C22.3083 22.6022 22.5182 22.8121 22.7771 22.8121H23.5381Z" fill="#FFCC00"/>
<path d="M26.9121 24.3112C26.7058 24.1565 26.4132 24.1983 26.2584 24.4046C26.1037 24.6109 26.1456 24.9035 26.3518 25.0583C27.4887 25.9103 28.3546 26.955 29.0384 28.198C29.7322 29.4591 30.2406 30.9264 30.6542 32.6039C30.7158 32.8547 30.9692 33.008 31.22 32.9463C31.4707 32.8846 31.624 32.6313 31.5624 32.3805C31.1298 30.6261 30.5943 29.0846 29.8587 27.7476C29.1131 26.3923 28.1638 25.2492 26.9121 24.3112Z" fill="#1FB61F"/>
<path d="M37.6485 25.0583C37.8548 24.9035 37.8966 24.6109 37.7419 24.4046C37.5872 24.1983 37.2945 24.1565 37.0882 24.3112C35.8365 25.2492 34.8872 26.3923 34.1416 27.7476C33.406 29.0846 32.8705 30.6261 32.438 32.3805C32.3763 32.6313 32.5296 32.8846 32.7804 32.9463C33.0311 33.008 33.2845 32.8547 33.3462 32.6039C33.7598 30.9264 34.2682 29.4591 34.962 28.198C35.6458 26.955 36.5116 25.9103 37.6485 25.0583Z" fill="#1FB61F"/>
<path d="M32.0001 17.2802C32.4472 16.3861 32.8943 15.939 33.7886 15.939C34.7758 15.939 35.577 16.7401 35.577 17.7273C35.577 19.5157 33.7886 21.3042 32.0001 23.0926C30.2117 21.3042 28.4233 19.5157 28.4233 17.7273C28.4233 16.7401 29.2245 15.939 30.2117 15.939C31.106 15.939 31.5531 16.3861 32.0001 17.2802Z" fill="#0154A4"/>
<path d="M48.2993 19.5921C48.7298 19.1067 49.0852 18.9015 49.6458 19.0517C50.2646 19.2175 50.6323 19.8543 50.4665 20.4732C50.1661 21.5943 48.7446 22.415 47.3231 23.2357C46.5024 21.8142 45.6817 20.3927 45.9821 19.2716C46.1479 18.6528 46.7847 18.2851 47.4036 18.4509C47.9641 18.6011 48.1693 18.9565 48.2993 19.5921Z" fill="#FF0000"/>
<path d="M15.7005 19.5921C15.8306 18.9565 16.0358 18.6011 16.5964 18.4509C17.2152 18.2851 17.852 18.6528 18.0178 19.2716C18.3182 20.3927 17.4975 21.8142 16.6768 23.2357C15.2553 22.415 13.8338 21.5943 13.5334 20.4732C13.3676 19.8543 13.7353 19.2175 14.3541 19.0517C14.9147 18.9015 15.27 19.1067 15.7005 19.5921Z" fill="#FF0000"/>
<path fill-rule="evenodd" clip-rule="evenodd" d="M12.5821 28.6279L13.6248 29.54L14.9727 29.6044L14.4821 30.8979L14.8681 32.249L13.5222 32.1363L12.4129 32.9069L12.0716 31.5438L11 30.6689L12.1351 29.9392L12.5821 28.6279Z" fill="#FFCC00"/>
<path fill-rule="evenodd" clip-rule="evenodd" d="M51.418 28.6279L51.865 29.9392L53 30.669L51.9284 31.5438L51.5871 32.907L50.4779 32.1363L49.132 32.2491L49.5179 30.8979L49.0273 29.6045L50.3752 29.54L51.418 28.6279Z" fill="#FFCC00"/>
<path d="M21.7163 19.1987C22.6253 19.1987 23.3623 18.4618 23.3623 17.5527C23.3623 16.6437 22.6253 15.9067 21.7163 15.9067C20.8072 15.9067 20.0703 16.6437 20.0703 17.5527C20.0703 18.4618 20.8072 19.1987 21.7163 19.1987Z" fill="#00BFFE"/>
<path d="M42.2837 19.1987C43.1927 19.1987 43.9297 18.4618 43.9297 17.5527C43.9297 16.6437 43.1927 15.9067 42.2837 15.9067C41.3746 15.9067 40.6377 16.6437 40.6377 17.5527C40.6377 18.4618 41.3746 19.1987 42.2837 19.1987Z" fill="#00BFFE"/>
<path d="M49.4751 27.1289C50.166 27.1289 50.726 26.5688 50.726 25.8779C50.726 25.187 50.166 24.627 49.4751 24.627C48.7842 24.627 48.2241 25.187 48.2241 25.8779C48.2241 26.5688 48.7842 27.1289 49.4751 27.1289Z" fill="#1FB61F"/>
<path d="M14.5249 27.1289C15.2158 27.1289 15.7758 26.5688 15.7758 25.8779C15.7758 25.187 15.2158 24.627 14.5249 24.627C13.834 24.627 13.2739 25.187 13.2739 25.8779C13.2739 26.5688 13.834 27.1289 14.5249 27.1289Z" fill="#1FB61F"/>
</svg>
