<svg width="22" height="22" viewBox="0 0 22 22" fill="none" xmlns="http://www.w3.org/2000/svg">
<path fill-rule="evenodd" clip-rule="evenodd" d="M11 1.83301C16.0545 1.83301 20.1666 5.94517 20.1666 10.9997C20.1666 16.0542 16.0545 20.1663 11 20.1663C5.94548 20.1663 1.83331 16.0542 1.83331 10.9997C1.83331 5.94517 5.94548 1.83301 11 1.83301ZM11 3.20801C6.70356 3.20801 3.20831 6.70326 3.20831 10.9997C3.20831 15.2961 6.70356 18.7913 11 18.7913C15.2964 18.7913 18.7916 15.2961 18.7916 10.9997C18.7916 6.70326 15.2964 3.20801 11 3.20801ZM11.0036 13.5626C11.5105 13.5626 11.9202 13.9723 11.9202 14.4792C11.9202 14.9862 11.5105 15.3959 11.0036 15.3959C10.4966 15.3959 10.0823 14.9862 10.0823 14.4792C10.0823 13.9723 10.4884 13.5626 10.9944 13.5626H11.0036ZM10.9946 6.83251C11.3741 6.83251 11.6821 7.14051 11.6821 7.52001V11.5708C11.6821 11.9503 11.3741 12.2583 10.9946 12.2583C10.6151 12.2583 10.3071 11.9503 10.3071 11.5708V7.52001C10.3071 7.14051 10.6151 6.83251 10.9946 6.83251Z" fill="#0154A4"/>
</svg>
