<svg width="16" height="16" viewBox="0 0 16 16" fill="none" xmlns="http://www.w3.org/2000/svg">
<path d="M2.5 2V9.5C2.5 9.89782 2.65804 10.2794 2.93934 10.5607C3.22064 10.842 3.60218 11 4 11H5.5M2.5 2H1.5M2.5 2H13.5M5.5 11H10.5M5.5 11L4.83333 13M13.5 2H14.5M13.5 2V9.5C13.5 9.89782 13.342 10.2794 13.0607 10.5607C12.7794 10.842 12.3978 11 12 11H10.5M10.5 11L11.1667 13M4.83333 13H11.1667M4.83333 13L4.5 14M11.1667 13L11.5 14M5 8L7 6L8.432 7.432C9.1048 6.4662 9.98144 5.65988 11 5.07" stroke="#4E4E4E" stroke-linecap="round" stroke-linejoin="round"/>
</svg>
