<svg width="20" height="20" viewBox="0 0 20 20" fill="none" xmlns="http://www.w3.org/2000/svg">
<path fill-rule="evenodd" clip-rule="evenodd" d="M13.1616 0.833008C13.5066 0.833008 13.7866 1.11301 13.7866 1.45801L13.787 2.16452C15.0037 2.24794 16.0143 2.66471 16.7295 3.38142C17.5103 4.16559 17.9212 5.29309 17.917 6.64559V14.2481C17.917 17.0248 16.1537 18.7498 13.3162 18.7498H6.26783C3.43033 18.7498 1.66699 17.0006 1.66699 14.1848V6.64392C1.66699 4.02492 3.23954 2.34379 5.80423 2.1648L5.80474 1.45801C5.80474 1.11301 6.08474 0.833008 6.42974 0.833008C6.77474 0.833008 7.05474 1.11301 7.05474 1.45801L7.05449 2.14884H12.5362L12.5366 1.45801C12.5366 1.11301 12.8166 0.833008 13.1616 0.833008ZM16.667 8.25301H2.91699V14.1848C2.91699 16.3231 4.10699 17.4998 6.26783 17.4998H13.3162C15.477 17.4998 16.667 16.3448 16.667 14.2481L16.667 8.25301ZM13.5013 13.4966C13.8463 13.4966 14.1263 13.7766 14.1263 14.1216C14.1263 14.4666 13.8463 14.7466 13.5013 14.7466C13.1563 14.7466 12.873 14.4666 12.873 14.1216C12.873 13.7766 13.1488 13.4966 13.4938 13.4966H13.5013ZM9.80341 13.4966C10.1484 13.4966 10.4284 13.7766 10.4284 14.1216C10.4284 14.4666 10.1484 14.7466 9.80341 14.7466C9.45841 14.7466 9.17508 14.4666 9.17508 14.1216C9.17508 13.7766 9.45091 13.4966 9.79591 13.4966H9.80341ZM6.09774 13.4966C6.44274 13.4966 6.72274 13.7766 6.72274 14.1216C6.72274 14.4666 6.44274 14.7466 6.09774 14.7466C5.75274 14.7466 5.46858 14.4666 5.46858 14.1216C5.46858 13.7766 5.74524 13.4966 6.09024 13.4966H6.09774ZM13.5013 10.2577C13.8463 10.2577 14.1263 10.5377 14.1263 10.8827C14.1263 11.2277 13.8463 11.5077 13.5013 11.5077C13.1563 11.5077 12.873 11.2277 12.873 10.8827C12.873 10.5377 13.1488 10.2577 13.4938 10.2577H13.5013ZM9.80341 10.2577C10.1484 10.2577 10.4284 10.5377 10.4284 10.8827C10.4284 11.2277 10.1484 11.5077 9.80341 11.5077C9.45841 11.5077 9.17508 11.2277 9.17508 10.8827C9.17508 10.5377 9.45091 10.2577 9.79591 10.2577H9.80341ZM6.09774 10.2577C6.44274 10.2577 6.72274 10.5377 6.72274 10.8827C6.72274 11.2277 6.44274 11.5077 6.09774 11.5077C5.75274 11.5077 5.46858 11.2277 5.46858 10.8827C5.46858 10.5377 5.74524 10.2577 6.09024 10.2577H6.09774ZM12.5362 3.39884H7.05449L7.05474 4.20051C7.05474 4.54551 6.77474 4.82551 6.42974 4.82551C6.08474 4.82551 5.80474 4.54551 5.80474 4.20051L5.8043 3.41776C3.93744 3.57459 2.91699 4.70622 2.91699 6.64392V7.00301H16.667L16.667 6.64392C16.6703 5.61476 16.3937 4.81476 15.8445 4.26476C15.3624 3.78126 14.6577 3.49251 13.7873 3.41816L13.7866 4.20051C13.7866 4.54551 13.5066 4.82551 13.1616 4.82551C12.8166 4.82551 12.5366 4.54551 12.5366 4.20051L12.5362 3.39884Z" fill="#4E4E4E"/>
</svg>
