<svg width="22" height="22" viewBox="0 0 22 22" fill="none" xmlns="http://www.w3.org/2000/svg">
<path fill-rule="evenodd" clip-rule="evenodd" d="M8.79265 12.7936C11.7801 12.7936 15.752 13.13 15.752 16.0404C15.752 19.1062 11.1238 19.2902 9.1386 19.3012L8.41782 19.3012C6.30109 19.2902 1.83331 19.1073 1.83331 16.0588C1.83331 12.9895 6.46146 12.8053 8.44669 12.7943L8.68521 12.7936C8.72238 12.7936 8.75822 12.7936 8.79265 12.7936ZM8.79265 14.1686C6.24523 14.1686 3.20831 14.4958 3.20831 16.0588C3.20831 17.2981 5.08748 17.9269 8.79265 17.9269C12.4978 17.9269 14.377 17.2917 14.377 16.0404C14.377 14.7983 12.4978 14.1686 8.79265 14.1686ZM17.1478 12.3654C19.6283 12.7367 20.148 13.8852 20.148 14.7827C20.148 15.4509 19.8593 16.3557 18.4815 16.8772C18.4018 16.9075 18.3193 16.9222 18.2377 16.9222C17.96 16.9222 17.6987 16.7526 17.5951 16.4785C17.4604 16.1237 17.6391 15.7259 17.9939 15.5921C18.773 15.2969 18.773 14.9367 18.773 14.7827C18.773 14.2629 18.158 13.9072 16.9452 13.7267C16.5694 13.6698 16.31 13.3197 16.3659 12.9447C16.4227 12.5689 16.7793 12.3168 17.1478 12.3654ZM8.79265 1.83301C11.3877 1.83301 13.4998 3.94501 13.4998 6.54009C13.5052 7.79042 13.0203 8.97109 12.1366 9.86026C11.2548 10.7503 10.0769 11.2426 8.82381 11.2472H8.79265C6.19665 11.2472 4.08465 9.13517 4.08465 6.54009C4.08465 3.94501 6.19665 1.83301 8.79265 1.83301ZM15.2896 2.86316C17.0909 3.15832 18.398 4.69924 18.398 6.52616C18.3944 8.36407 17.0221 9.94257 15.2053 10.1974C15.1732 10.202 15.1411 10.2038 15.109 10.2038C14.7717 10.2038 14.4774 9.95541 14.4289 9.61166C14.3766 9.23582 14.6379 8.88749 15.0137 8.83524C16.1577 8.67482 17.0212 7.68207 17.023 6.52524C17.023 5.37574 16.1999 4.40591 15.0678 4.22074C14.6929 4.15841 14.4389 3.80549 14.5004 3.43057C14.5618 3.05566 14.9165 2.80357 15.2896 2.86316ZM8.79265 3.20801C6.95473 3.20801 5.45965 4.70309 5.45965 6.54009C5.45965 8.37709 6.95473 9.87217 8.79265 9.87217H8.82106C9.70473 9.86851 10.5371 9.52109 11.1613 8.89134C11.7865 8.26342 12.1284 7.42834 12.1248 6.54284C12.1248 4.70309 10.6296 3.20801 8.79265 3.20801Z" fill="#0154A4"/>
</svg>
